<?xml version="1.0" encoding="UTF-8"?>
<svg id="Layer_1" data-name="Layer 1" xmlns="http://www.w3.org/2000/svg" viewBox="0 0 2719.46 1141.04">
  <defs>
    <style>
      .cls-1 {
        fill: #734f31;
      }

      .cls-2 {
        fill: #e1d3a9;
      }

      .cls-3 {
        fill: #c0aa8a;
      }
    </style>
  </defs>
  <rect class="cls-1" x="716.44" y="61.04" width="1920" height="1080"/>
  <g>
    <path class="cls-3" d="m1893.87,61.04c.54,2.77,2.81,1.65,4.34,1.77,9.85.78,19.58,2.42,29.31,4.05.23.04.4.4.88.92-9.09-.87-17.86-1.66-26.62-2.57-18.97-1.97-37.94-1.8-56.97-.86-14.22.7-28.28,2.47-42.32,4.7-16.58,2.64-32.88,6.48-48.91,11.36-17.78,5.41-35.15,12.02-51.96,19.98-8.36,3.96-16.51,8.33-24.6,12.82-8.22,4.56-16.19,9.52-24.04,14.6-10,6.47-19.35,13.91-28.79,21.2-11.03,8.52-21.49,17.63-31.37,27.39-8.62,8.51-15.81,18.33-24.07,27.16-8.21,8.78-14.84,18.67-21.4,28.56-9.72,14.65-19.08,29.51-26.52,45.6-5.25,11.35-10.53,22.67-14.97,34.33-4.66,12.23-8.15,24.89-11.72,37.5-4.8,16.97-6.99,34.35-9.12,51.8-1.98,16.18-3.21,32.36-3.52,48.65-.06,3.02.75,4.54,3.82,5.46,11.89,3.55,23.93,6.32,36.26,7.81,1.58.19,3.98-.13,3.68,2.15-.31,2.37-2.56,1.15-4.06,1.02-13.02-1.11-25.75-3.68-38.32-7.22-2.55-.72-3.23-1.9-3.2-4.39.13-10.34-.05-20.69.11-31.04.54-35.42,6.67-69.9,17.46-103.62,10.44-32.62,25.43-63,44.5-91.4,19.16-28.52,41.97-53.75,68.07-76.14,26.12-22.41,54.78-40.78,85.85-55.34,33.69-15.79,68.97-26.59,105.88-31.83,6.96-.99,13.94-1.76,20.91-2.64,1.24-.16,2.89.32,3-1.78h3.6c3.6,1.65,7.2,1.15,10.8,0h42.31c2.7,1.28,5.4,1.59,8.1,0h3.6Z"/>
    <path class="cls-3" d="m793.68,61.04c7.28,5.82,15.71,9.86,23.3,15.2,17.65,12.4,34.72,25.46,50.64,40.1,24.7,22.73,46.79,47.71,65.75,75.32,16.99,24.75,30.98,51.22,42.35,79.06,10.79,26.42,18.69,53.69,23.77,81.72,3.17,17.5,5.38,35.13,6,52.98.35,10.03.56,20.06.54,30.09,0,3,1.15,4.32,3.9,4.97,16.21,3.81,32.03,8.89,47.65,14.62,13.92,5.11,27.5,10.99,40.86,17.44,23.38,11.28,45.5,24.67,66.58,39.77,5.93,4.25,10.02,10.12,13.15,16.66l-.09.1c-6.86-5.02-13.69-10.1-20.6-15.06-32.09-23-66.58-41.51-103.57-55.36-14.89-5.58-29.99-10.5-45.41-14.37-3.71-.93-4.77-2.06-4.28-6.3,1.06-9.08-.31-18.25-.95-27.36-1.16-16.56-3.07-33.05-6.06-49.4-7.54-41.25-20.78-80.61-39.93-117.89-20.26-39.44-45.98-74.97-77.17-106.62-28.16-28.58-59.45-53-94.04-73.25-.99-.58-2.32-.9-2.31-2.44h9.9Z"/>
    <path class="cls-3" d="m977.34,1141.04c-.92-7.18-5.13-13.03-8.09-19.34-13.61-29.02-30.82-55.84-50.69-80.95-18.37-23.21-39-44.22-61.68-63.31-28.37-23.88-59.19-43.89-92.43-60.21-21.56-10.59-43.95-19.17-66.94-26.12-2.77-.84-3.92-1.86-3.85-4.89.19-8.24.06-16.5.02-24.75-.12-25.42,5.77-49.57,15.71-72.8,10.46-24.44,25.77-45.55,44.93-63.9,3.24-3.11,6.65-6.05,10.09-8.95,1.92-1.62,3.11-1.43,3.18,1.52.06,2.67-.43,4.65-2.64,6.63-19.43,17.52-35.56,37.66-47.15,61.21-10.19,20.71-16.83,42.48-19.69,65.45-1.28,10.26-1.09,20.61-2.49,30.84-.43,3.12.46,4.77,3.82,5.74,35.11,10.2,68.56,24.26,100.13,42.85,20.68,12.17,40.49,25.53,59,40.76,8.6,7.08,15.02,16.29,22.49,24.47,10.74,11.75,22.02,22.93,34.02,33.35,8.27,7.18,14.23,16.14,20.57,24.8,14.53,19.88,26.8,41.15,37.47,63.32,3.82,7.93,7.83,15.83,10.51,24.27h-6.3Z"/>
    <path class="cls-3" d="m2719.46,690.14c-10.31-1.49-19.94-5.32-29.67-8.73-36.97-12.95-71.63-30.52-103.89-52.77-16.15-11.14-31.68-23.16-46.19-36.32-7.45-6.76-14.31-14.32-21.46-21.44-12.94-12.9-23.94-27.31-34.99-41.7-12.95-16.87-23.53-35.27-33.43-54.07-14.81-28.09-26.11-57.53-34.07-88.24-5-19.28-8.51-38.84-10.59-58.67-1.56-14.9-2.58-29.82-2.43-44.8.07-6.56.63-13.11,1.41-19.68.34,5.31.89,10.61,1,15.92.69,34.23,5.34,67.9,14.01,101.03,8.1,30.98,19.58,60.68,34.39,89.03,11.73,22.45,25.55,43.6,41,63.72,12.6,16.42,26.48,31.64,41.27,46.07,7.64,7.46,15.83,14.3,23.91,21.29,13.17,11.41,27.1,21.7,41.63,31.16,35.74,23.28,74.02,41.18,115.02,53.14,1,.29,2.05.4,3.08.59v4.5Z"/>
    <path class="cls-3" d="m1459.01,1141.04c7.23-18.65,16.68-36.19,26.93-53.3,15.92-26.56,34.71-50.93,56.02-73.44,29.47-31.13,62.99-56.92,100.15-78.21,37.4-21.42,77.1-36.84,119.08-46.39,22.21-5.05,44.65-8.52,67.44-9.81,10.61-.6,21.23-1.63,31.85-1.42,28.16.57,56.21,2.48,83.91,8.03,1.13.23,2.22.62,4.06,1.13-6.37,1.49-11.69-.51-16.94-1.5-11.36-2.15-22.89-2.25-34.26-3.63-13.94-1.7-27.81-1.57-41.71-1.33-12.84.22-25.63,1.28-38.39,3.23-12.7,1.95-25.59,2.88-38.15,5.61-9.7,2.11-19.51,3.99-29.02,6.76-17,4.95-33.73,10.74-50.24,17.22-30.81,12.11-59.46,28.12-86.6,46.93-15.63,10.84-30.23,22.97-44.46,35.6-17.31,15.38-32.87,32.37-47.29,50.39-15.26,19.07-28.82,39.36-40.46,60.88-5.21,9.63-10.33,19.29-14.67,29.35-.54,1.25-1.14,2.45-.95,3.87h-6.3Z"/>
    <path class="cls-3" d="m657.73,61.04c.37,2.62,2.79,1.94,4.28,2.4,7.3,2.21,14.72,4.02,22.01,6.24,20.4,6.21,39.95,14.47,59.07,23.93,20.33,10.06,39.51,21.89,57.69,35.36,27.34,20.26,51.47,43.83,72.64,70.5,21,26.46,37.98,55.22,51.18,86.28,11.3,26.59,19.17,54.16,23.74,82.63,3.01,18.77,4.85,37.7,4.54,56.74-.07,4.19,1.54,5.37,5.29,5.87,10.07,1.34,20.1,3,30.15,4.57,1.78.28,3.43,1.17,2.92,3.19-.49,1.91-2.17.81-3.4.6-11.21-1.92-22.4-3.94-33.63-5.68-2.36-.36-2.88-1.18-2.95-3.38-.9-30.33-5.02-60.25-12.87-89.55-13.03-48.65-35.07-92.95-65.75-132.91-25.48-33.19-55.66-61.42-90.18-85.05-37.87-25.92-79.23-44.12-123.44-56.04-5.77-1.56-11.67-2.65-17.52-3.95-1.12-.25-2.53-.04-2.66-1.76h14.41c.9.93,1.8,1.2,2.7,0h1.8Z"/>
    <path class="cls-3" d="m1977.6,61.04c7.62,2.58,15.28,5.07,22.87,7.76,17.49,6.19,34.48,13.51,50.94,22.14,18.88,9.9,36.83,21.19,53.88,33.94,13.08,9.77,25.33,20.51,37.07,31.86,19.12,18.49,36.1,38.73,50.88,60.81,28.97,43.28,47.92,90.6,57.01,141.87,4.14,23.38,5.42,46.96,4.63,70.66-.14,4.06.51,6.07,5.28,6.63,9.34,1.08,18.67,2.51,27.79,4.97,1.15.31,2.31.63,3.46.93,1.35.35,2.21,1.15,1.78,2.58-.42,1.39-1.68,1.02-2.66.79-11.37-2.66-22.83-4.79-34.35-6.68-1.46-.24-3.36-.4-2.88-2.55,1.58-7.19-.1-14.34-.44-21.44-.75-15.67-2.32-31.29-5.05-46.8-8.74-49.74-26.41-95.99-53.64-138.57-12.79-19.99-27.3-38.57-43.43-56.01-33.49-36.2-72.68-64.59-116.92-86.09-19.97-9.7-40.62-17.78-62.08-23.7-2.04-.56-4.98-.08-5.85-3.1h11.7Z"/>
    <path class="cls-3" d="m1661.58,61.04c-.49,2.37-2.85,2.55-4.4,3.37-23.11,12.21-44.8,26.62-65.25,42.83-22.92,18.17-43.89,38.37-62.67,60.91-17.41,20.89-33.11,42.89-46.43,66.56-20.99,37.33-36.05,77-45.13,118.83-4.47,20.6-6.95,41.51-8.86,62.54-.78,8.56,1.11,13.23,8.46,17.15,8.45,4.51,16.52,9.71,25.48,13.24,1.38.54,2.87,1.08,3.64,2.49.67,1.24.9,2.66.03,3.82-.84,1.11-1.95.2-2.86-.16-12.28-4.92-23.93-11.04-35.02-18.27-2.49-1.62-2.28-3.88-1.87-5.94,1.15-5.81.63-11.65.76-17.47.72-30.86,6.19-60.98,14.38-90.65,7.12-25.78,16.82-50.59,28.86-74.47,14.9-29.55,33.14-56.88,54.45-82.24,27.29-32.48,58.84-60.09,94.29-83.27,10.26-6.71,20.88-12.86,31.33-19.27h10.8Z"/>
    <path class="cls-3" d="m2719.46,637.04c-7.32-2.8-14.7-5.38-22.28-7.5-3.49-.97-6.69-3.06-10.14-4.47-16.69-6.86-33.05-14.56-48.39-24.07-31.72-19.67-60.9-42.57-86.1-70.24-28.8-31.63-51.71-67.04-68.39-106.51-11.85-28.03-19.91-57.1-24.55-87.1-1.73-11.22-3.03-22.54-3.11-33.94-.07-10.01-.01-20.03.59-30.09.41,4.98,1.02,9.95,1.19,14.93,1.17,32.94,6.92,65.13,16.73,96.51,9.01,28.83,21.45,56.24,37.22,82.09,15.03,24.62,32.55,47.31,52.64,67.98,24.66,25.37,52.29,46.99,82.88,64.8,10.32,6.01,21,11.24,31.82,16.32,13.02,6.11,26.21,11.52,39.88,15.89v5.4Z"/>
    <path class="cls-3" d="m1517.53,1141.04c4.3-11.26,10.69-21.41,16.94-31.61,17.95-29.34,40.02-55.33,65.24-78.61,21.43-19.78,45.05-36.67,70.47-51,30.06-16.94,61.84-29.58,95.34-37.86,23.15-5.72,46.61-9.26,70.44-10.77,24.32-1.54,48.51-.63,72.65,2.14,9.39,1.07,18.77,2.46,27.88,5.24-4.39.31-8.86-.3-12.89-1.3-10.85-2.69-21.91-2.02-32.82-3.34-11.36-1.38-22.77-1.07-34.13-.67-12.94.46-25.87,1.47-38.73,3.32-10.46,1.5-21.01,2.44-31.33,4.75-7.22,1.62-14.3,4.19-21.47,5.73-9.86,2.13-19.21,5.46-28.7,8.62-12.2,4.07-23.73,9.65-35.4,14.92-9.25,4.18-17.97,9.32-26.91,14.06-33.16,17.6-61.47,41.35-87.45,68.03-15.88,16.31-29.95,34.16-42.33,53.32-6.5,10.05-12.92,20.13-18.42,30.77-.68,1.32-1.46,2.65-1.17,4.25h-7.2Z"/>
    <path class="cls-3" d="m2151.36,61.04c1.02,5.55,5.05,9.42,8.12,13.71,12.8,17.92,26.88,34.78,42.13,50.73,22.35,23.38,47.04,43.88,73.96,61.68,27.07,17.89,55.75,32.82,86.19,44.19,29.65,11.07,60.09,19.21,91.4,24.13,29.89,4.7,59.97,5.38,90.06,4.26,21.05-.79,42.01-3.29,62.68-7.71.25-.05.56.13,1.18.29-1.47,1.74-3.55,1.37-5.18,1.92-1.82.61-3.81.69-5.72,1.06-34.87,6.9-70.15,8.57-105.54,7.13-26.34-1.07-52.38-4.96-78.12-10.93-33.44-7.76-65.55-19.16-96.23-34.47-18.11-9.03-35.54-19.28-52.26-30.75-25.18-17.28-48.31-36.93-69.29-59.08-18.27-19.29-34.8-39.99-49.01-62.48-.72-1.14-1.55-2.23-1.57-3.66h7.2Z"/>
    <path class="cls-3" d="m849.5,61.04c4.06,8.04,9.56,15.17,14.87,22.36,6.58,8.9,13.24,17.81,20.64,26.02,10.61,11.77,20.94,23.81,32.89,34.36,8.97,7.92,17.86,15.91,27.23,23.37,17.48,13.94,35.8,26.65,55.24,37.67,25.35,14.38,51.83,26.33,79.47,35.58,22.17,7.42,44.82,13.06,67.92,16.8,22.04,3.57,44.19,5.45,66.56,5.68,22.18.23,44.23-.72,66.19-3.7.7-.09,1.43.11,2.27,1.15-4.96.74-9.91,1.5-14.87,2.22-17.83,2.58-35.83,3.14-53.76,3.26-14.02.1-28.1-.62-42.14-2.04-21.49-2.17-42.69-5.66-63.68-10.7-26.02-6.25-51.19-14.9-75.6-25.82-30.51-13.65-59.05-30.64-85.6-50.91-29.32-22.38-55.41-48.07-78.16-77.15-8.41-10.76-16.18-21.94-23.66-33.35-.96-1.46-2.4-2.78-2.11-4.82h6.3Z"/>
    <path class="cls-3" d="m633.42,115.94c26.54,5.33,51.93,14.08,76.4,25.58,36.71,17.25,68.85,40.68,96.87,70.07,33.66,35.3,58.04,75.91,72.86,122.37,7.04,22.06,11.31,44.56,13.33,67.59.64,7.35.73,14.66.68,21.98-.02,3.01,1,3.96,3.9,3.83,12.15-.55,24.25.67,36.38.97,1.49.04,3.88-.59,3.67,1.96-.18,2.12-2.36,1.47-3.69,1.28-11.46-1.67-22.99-1.63-34.52-1.68-6.18-.03-5.93-.07-6.67-6.34-2.36-20.04-4.28-40.13-9.09-59.83-11.73-48.09-33.17-91.25-64.51-129.6-28.07-34.34-61.75-61.7-100.75-82.68-25.34-13.63-52.04-23.68-79.97-30.52-1.63-.4-3.22-.69-4.88-.5v-4.5Z"/>
    <path class="cls-3" d="m1796.66,922.35c8.05-3.05,16.62-3.31,25-4.4,15.45-2.01,31.06-2.5,46.58-2.48,12.04.02,24.16.67,36.24,1.9,11.99,1.22,23.91,2.94,35.82,4.54,9.81,1.31,19.3,4.84,29.01,7.01,13.45,3.02,26.44,7.6,39.41,12.07,5.53,1.91,11.01,4.52,16.44,6.97,18.5,8.32,36.49,17.61,53.66,28.48,19.24,12.19,37.21,25.98,54.16,41.19,17,15.26,32.2,32.15,46.22,50.1,11.2,14.34,21,29.65,29.85,45.57,5,9,9.88,18.05,13.43,27.74h-6.3c-.16-5.03-3.15-8.98-5.35-13.14-19.37-36.7-43.77-69.69-73.61-98.54-25.86-25.01-54.63-46.1-86.27-63.32-26.97-14.68-55.28-25.97-84.86-34.08-20.5-5.62-41.36-9.39-62.53-11.69-18.36-2-36.72-2.93-55.13-2.3-15.23.52-30.45,1.63-45.54,4.04-2.06.33-4.18.22-6.28.31l.04.04Z"/>
    <path class="cls-3" d="m2719.46,574.94c-7.93-1.37-14.95-5.23-22.09-8.56-28.7-13.38-54.84-30.7-78.44-51.85-42.13-37.74-72.11-83.4-89.65-137.16-7.03-21.55-11.32-43.65-13.46-66.24-1.06-11.24-.02-22.47-1.03-33.65-.25-2.73,1.55-2.09,2.85-2.08,9.3.04,18.58-.3,27.84-1.01,3.58-.28,7.15-.64,10.73-.84,1.06-.06,2.73-.5,2.74,1.34.01,1.45-1.44,1.24-2.43,1.36-9.22,1.13-18.47,1.69-27.75,1.67-2.85,0-5.7.1-8.55-.02-2.46-.1-3.5.8-3.46,3.37.2,13.18,1.38,26.28,3.46,39.28,2.89,18.05,7.19,35.77,12.93,53.13,5.37,16.23,12.19,31.87,20.09,47.03,6.71,12.89,14.43,25.16,22.89,36.97,16.12,22.51,34.8,42.64,56.07,60.39,18,15.02,37.32,28.06,58.09,38.88,7.96,4.15,16.22,7.73,24.4,11.47,1.46.67,3.02,1.4,4.75,1.12v5.4Z"/>
    <path class="cls-3" d="m633.42,819.74c1.81-7.22,3.49-14.47,5.44-21.65,6.37-23.43,16.05-45.43,28.86-66.05,10.32-16.6,22.16-32.06,36.06-45.77,40.39-39.86,88.43-64.98,144.55-74.67,20.99-3.62,42.04-3.97,63.15-3.14,12.67.5,25.31,2.17,37.71,5.13.78.19,1.89-.17,2.4,1.46-10.16-1.7-20.14-3.03-30.2-3.84-15.11-1.21-30.17-1.05-45.26.23-16.14,1.37-32.03,4.21-47.59,8.62-26.52,7.51-51.47,18.54-74.71,33.51-17.47,11.25-33.56,24.11-47.77,39.22-18.33,19.48-33.84,40.95-45.95,64.94-12.46,24.69-20.46,50.67-24.89,77.86-.2,1.25.2,2.87-1.81,3.06v-18.9Z"/>
    <path class="cls-3" d="m919.72,1141.04c-4.86-11.66-11.52-22.33-18.1-33.04-13.45-21.91-29.36-41.89-46.94-60.65-30.23-32.25-65.07-58.28-104.17-78.77-32.47-17.01-66.69-29.09-102.51-36.67-4.81-1.02-9.59-2.41-14.58-2.37v-3.6c18,2.27,35.59,6.5,52.98,11.54,23.94,6.95,46.9,16.36,69.01,27.84,26.38,13.7,50.99,29.99,73.61,49.36,27.6,23.62,51.46,50.48,71.5,80.73,8.77,13.23,16.61,27.03,23.4,41.4.64,1.35,1.53,2.61,1.2,4.23h-5.4Z"/>
    <path class="cls-3" d="m914.32,61.04c4.56,7.26,10.43,13.49,16.02,19.9,18.27,20.94,38.94,39.35,61.27,55.82,31.28,23.08,65.51,40.58,102.24,53.41,23.12,8.07,46.78,13.7,70.92,17.29,11.22,1.67,22.56,2.54,33.92,3.24,10.64.66,21.26.72,31.88.6,18.37-.22,36.62-2.18,54.85-4.59-5.28,2.25-10.95,2.77-16.5,3.53-21.08,2.9-42.27,4.21-63.55,3.73-35.35-.81-70.02-6.14-103.89-16.33-36.27-10.9-70.26-26.8-101.73-47.8-30.69-20.48-58.17-44.65-81.46-73.41-3.2-3.95-6.45-7.87-9.69-11.79-.87-1.05-1.77-2.07-1.46-3.59h7.2Z"/>
    <path class="cls-3" d="m1543.64,61.04c-3.41,7.43-9.06,13.29-13.92,19.69-12.36,16.27-26.47,30.97-41.39,44.86-21.11,19.66-44.33,36.55-69.4,50.82-23.22,13.22-47.38,24.47-72.83,32.69-24.8,8-50.09,13.93-76.06,16.8-12.8,1.41-25.61,2.14-38.47,2.77-29.02,1.41-57.59-1.91-86.08-6.69-.34-.06-.63-.45-1.77-1.31,6.94.93,12.92,1.82,18.91,2.51,8.17.94,16.34,1.98,24.53,2.53,48.91,3.3,96.9-2.13,143.75-16.41,41.29-12.59,79.61-31.37,114.77-56.62,20.29-14.57,39.09-30.73,56.28-48.77,12.19-12.79,23.62-26.27,33.7-40.82.4-.58.51-1.36.76-2.05h7.2Z"/>
    <path class="cls-3" d="m2216.18,61.04c1.52,3.66,4.41,6.29,6.88,9.25,8.14,9.76,16.73,19.06,25.86,27.95,10.53,10.25,21.56,19.84,33.03,28.96,16.09,12.79,33.21,24.12,51.26,33.85,25.5,13.74,52.2,24.64,80.13,32.66,16.6,4.77,33.45,8.09,50.39,10.97,10.73,1.82,21.66,2.58,32.58,3.17,8.68.47,17.35.86,26.05.78,23.98-.22,47.79-2.06,71.31-6.96.71-.15,1.46-.08,2.34.68-5.26,1.12-10.48,2.49-15.79,3.31-24,3.74-48.14,6-72.45,5.58-46.09-.81-90.78-9.05-133.87-25.61-34.08-13.11-65.7-30.66-94.75-52.76-25.75-19.6-48.58-42.22-68.68-67.57-.99-1.24-2.28-2.45-2.38-4.24h8.1Z"/>
    <path class="cls-3" d="m1584.16,1141.04c5.09-10.25,12.07-19.24,18.98-28.25,9.13-11.89,18.98-23.18,29.88-33.5,12.58-11.91,25.86-22.94,40.04-32.93,25.54-17.99,53.13-31.9,82.73-41.73,26.23-8.71,53.14-14.1,80.82-15.87,26.73-1.7,53.25-.69,79.64,3.81,1.75.3,3.47.73,5.18,1.4-5.99.51-11.85-.85-17.7-1.61-14.92-1.95-29.89-1.9-44.85-1.66-26.28.41-52.06,4.28-77.49,11.1-35.2,9.43-67.72,24.58-97.94,44.72-11.78,7.85-22.58,17.07-33.51,26.11-12.58,10.4-22.83,22.84-33.86,34.58-6.49,6.91-11.99,14.86-17.16,22.85-2.42,3.74-6.02,6.67-7.55,10.98h-7.2Z"/>
    <path class="cls-3" d="m633.42,174.44c8.24.95,15.96,3.83,23.72,6.53,21.17,7.37,41.04,17.36,59.94,29.4,20.26,12.91,37.84,28.92,53.94,46.54,12.95,14.18,23.85,29.95,33.26,46.73,13.38,23.85,22.39,49.26,27.62,76.05,3.08,15.76,4.63,31.67,4.1,47.74-.12,3.53.56,4.43,4.55,3.88,11.24-1.56,22.55-2.89,33.93-3.09,1.36-.02,2.9-.5,4.96,1.41-15.39.84-29.93,1.49-44.72,4.15-2.39-67.72-25.88-127.66-72.59-177.81-35.45-38.06-78.68-63.73-128.72-77.93v-3.6Z"/>
    <path class="cls-3" d="m2150.46,1141.04c-3.4-8.74-9.13-16.11-14.42-23.66-13.87-19.78-29.71-37.92-47.62-54.18-19.7-17.88-41.16-33.35-64.5-46.15-28.28-15.52-58.19-26.79-89.7-33.72-16.82-3.7-33.81-6.09-51.03-7.24-11.54-.77-23.07-.87-34.59-.59-14.06.33-28.05,1.77-41.97,3.84-.39.06-.81-.07-1.29-.57,5-1.11,9.95-2.87,15-3.21,19.54-1.3,39.05-3.98,58.69-2.69,21,1.37,41.89,3.74,62.47,8.38,22.98,5.17,45.32,12.28,66.64,22.27,22.88,10.73,44.39,23.72,64.48,39.2,17.76,13.69,33.49,29.36,48.37,45.98,13.31,14.86,24.11,31.55,34.31,48.63.67,1.13.98,2.47,1.46,3.72-2.1,0-4.2,0-6.3,0Z"/>
    <path class="cls-3" d="m2719.46,513.74c-11.66-4.89-22.39-11.45-32.84-18.46-17.75-11.89-33.8-25.85-48.13-41.66-19.26-21.24-34.6-45.07-45.9-71.48-8.65-20.23-14.31-41.27-17.74-62.93-2.35-14.84-2.24-29.83-2.18-44.82.02-3.55,2.68-3.21,4.68-3.46,12.19-1.54,24.21-3.93,36.2-6.52,1.9-.41,3.76-1.04,5.67-1.4,1.35-.26,3.18-1.18,3.71,1.03.47,1.97-1.16,2.58-2.67,2.9-6.15,1.29-12.28,2.68-18.47,3.72-8.25,1.39-16.54,2.59-24.83,3.65-2.76.35-2.54,2.11-2.41,3.87.63,8.94.95,17.93,2.08,26.81,2.76,21.58,7.94,42.59,15.96,62.87,9.93,25.11,23.13,48.34,40.06,69.35,19.5,24.2,42.38,44.7,68.97,60.9,5.72,3.48,11.38,7.21,17.84,9.32v6.3Z"/>
    <path class="cls-3" d="m633.42,680.24c11.99-15.58,25.13-30.15,39.6-43.44,6.6-6.06,13.46-11.82,20.56-17.32,24.31-18.85,50.65-34.07,79.28-45.32,25.2-9.9,51.22-16.46,78.09-20.07,19.55-2.63,39.14-3.09,58.74-2.34,17.29.66,34.5,2.59,51.26,7.55-4.94-.78-9.86-1.63-14.81-2.34-19.93-2.88-39.99-3.37-60.06-2.68-33.76,1.16-66.46,7.95-98.21,19.45-18.48,6.7-36.31,14.79-53.19,24.84-19.66,11.71-37.96,25.27-55.22,40.33-12.57,10.96-23.22,23.63-34.13,36.1-2.44,2.79-4.4,5.99-6.62,8.98-1.4,1.89-2.66,3.99-5.33,4.35v-8.1Z"/>
    <path class="cls-3" d="m2719.46,763.04c-2.5.19-1.95,2.45-2.3,3.8-6.12,23.92-16.33,46.03-30.66,66.03-19.04,26.57-43.25,47.43-72.31,62.59-21.98,11.46-45.25,18.9-69.79,22.21-18,2.43-36.03,2.84-54.14.48-6.66-.87-13.28-1.7-19.76-3.78,5.88.62,11.77,1.12,17.63,1.89,11.21,1.47,22.48,1.12,33.68.51,19.06-1.05,37.64-4.98,55.74-11.13,25.55-8.69,48.52-21.83,69.1-39.29,28.63-24.29,49.28-54.07,62-89.35,4.22-11.71,6.95-23.82,9.03-36.08.21-1.23-.25-2.88,1.78-3.06v21.6c-.61.3-.75.6,0,.9v2.7Z"/>
    <path class="cls-3" d="m633.42,593.84c9.76-8.14,19.28-16.58,29.55-24.11,44.35-32.55,93.26-55.06,147.07-66.77,20.06-4.37,40.33-7.02,60.85-8.29,20.71-1.29,41.33-.62,61.93,1.2,14.31,1.26,28.47,3.63,42.54,6.53,1.06.22,2.38.25,3.38,1.74-7.02-1.12-13.71-2.09-20.37-3.27-9.58-1.7-19.28-2.36-28.94-3.27-12.69-1.19-25.44-1.15-38.18-.92-29.74.54-58.96,4.77-87.78,12.07-26.22,6.65-51.49,15.99-75.71,27.87-26.15,12.82-50.4,28.79-73.04,47.15-5.93,4.81-11.84,9.66-17.05,15.27-1.14,1.23-2.35,2.37-4.25,1.99v-7.2Z"/>
    <path class="cls-3" d="m633.42,526.34c9.95-6.39,19.57-13.27,29.66-19.46,26.93-16.54,55.33-29.84,85.15-40.28,24.96-8.74,50.52-14.94,76.55-19.22,31.48-5.17,63.26-5.89,95.02-4.44,22.55,1.03,44.96,4.15,67.07,8.96.7.15,1.36.51,1.9,1.4-3.09-.55-6.18-1.11-9.28-1.63-22.59-3.81-45.3-5.93-68.24-6.64-16.36-.51-32.63.15-48.85,1.44-22.51,1.8-44.77,5.52-66.76,10.86-31.41,7.64-61.6,18.64-90.59,32.84-23.69,11.6-46.31,25.07-67.36,41.07-1.26.96-2.46,2.27-4.27,2.3v-7.2Z"/>
    <path class="cls-3" d="m852.2,1141.04c.27-3.17-2.03-5.23-3.53-7.51-11.66-17.81-24.75-34.45-39.56-49.83-31.7-32.92-68.68-58.06-110.58-76.04-19.7-8.46-40.15-14.74-61.11-19.3-1.3-.28-2.67-.22-4.01-.32,0-1.2,0-2.4,0-3.6,10.23.65,19.98,3.64,29.79,6.24,31.94,8.48,61.71,21.96,89.6,39.59,16.85,10.66,32.57,22.79,47.21,36.4,19.39,18.04,36.48,37.96,50.95,60.12,3.01,4.61,6.33,9.08,8.43,14.25h-7.2Z"/>
    <path class="cls-3" d="m2719.46,232.94c-7.2,1.7-13.52,5.53-20.21,8.43-17.08,7.39-34.52,13.69-52.44,18.7-1.44.4-2.84,1.03-4.3,1.3-3.23.61-4.22,2.35-4.16,5.67.65,35.86,7.63,70.19,24.95,101.89,11.13,20.36,25.08,38.62,42.62,53.99,3.07,2.69,2.51,5.94,1.38,9.7-24.2-20.31-42.75-44.34-55.26-72.97-9.34-21.36-14.46-43.63-15.67-66.95-.45-8.72-.13-17.34.17-26.01.28-7.92.11-7.96,7.79-10.31,24.4-7.47,48.12-16.66,70.98-28.05,1.33-.66,2.76-1.13,4.14-1.69v6.3Z"/>
    <path class="cls-3" d="m1468.92,61.04c-.94,3.69-4.05,5.84-6.38,8.42-8.26,9.12-17.48,17.26-26.9,25.14-21.02,17.57-43.97,32.12-68.66,43.97-29.77,14.29-60.94,23.95-93.63,28.84-19.29,2.88-38.65,4.62-58.13,4.23-22.17-.44-44.14-2.91-65.88-7.39-.56-.12-1.07-.47-1.5-1.22,5.74.87,11.47,1.8,17.22,2.61,23.65,3.29,47.35,4.31,71.23,2.74,22.65-1.5,44.9-5.08,66.78-11.01,40.19-10.88,77.14-28.52,110.81-53.09,12.75-9.3,24.5-19.7,36.11-30.3,4.3-3.93,8.24-8.25,11.74-12.94h7.2Z"/>
    <path class="cls-3" d="m993.55,61.04c-.1,2.16,1.69,3.08,2.93,4.27,18.73,18.09,39.75,33.1,62.34,45.93,29.1,16.53,59.99,28.5,92.74,35.5,14.47,3.1,29.13,4.96,43.89,6.24,13.19,1.14,26.36.91,39.53.68,14.96-.25,29.84-1.73,44.49-4.96.69-.15,1.41-.11,2.18.19-5.13,2.47-10.77,2.87-16.21,3.72-24.79,3.87-49.71,4.72-74.77,3.09-27.81-1.81-54.92-7.09-81.27-15.93-25.52-8.55-49.69-20.08-72.34-34.74-18.04-11.67-34.76-24.98-50.31-39.78-1.26-1.2-2.95-2.17-3.1-4.23h9.9Z"/>
    <path class="cls-3" d="m633.42,238.34c18.37,6.28,35.73,14.76,51.74,25.65,23.67,16.1,43.58,36.18,58.62,60.54,15.49,25.1,25.46,52.32,28.46,81.93,1.24,12.26.75,24.48.68,36.73,0,1.65-.27,3.23-1.41,4.69-.69-10.28-1.28-20.41-2.05-30.52-1.76-22.96-8.17-44.72-17.76-65.53-11.75-25.49-28.3-47.57-49.1-66.39-20.32-18.38-43.25-32.55-69.17-41.71v-5.4Z"/>
    <path class="cls-3" d="m2295.41,61.04c1.94,5.28,6.94,7.67,10.8,11,16.94,14.6,35.29,27.25,54.85,38.08,19.28,10.68,39.41,19.39,60.51,25.93,16.91,5.24,34.03,9.43,51.53,11.86,22.59,3.14,45.26,3.97,68.08,2.55,12.54-.78,24.93-2.61,37.43-3.71-9,3.04-18.42,3.85-27.73,4.97-15.93,1.92-31.97,2.44-48.02,1.94-36.99-1.14-72.81-8.22-107.37-21.49-28.01-10.75-54.07-25.07-78.07-43.08-9.95-7.46-19.74-15.14-28.41-24.12-1.09-1.13-2.81-1.92-2.61-3.94h9Z"/>
    <path class="cls-3" d="m2081.13,1141.04c-.28-3.81-3.37-5.96-5.49-8.48-40.39-48-91.13-79.3-152.21-93.76-26.73-6.33-53.9-7.87-81.22-6.54-11.17.54-22.33,1.9-33.33,4.12-.7.14-1.45.02-2.2-.21,8.16-2.49,16.58-3.7,24.97-4.76,16.07-2.04,32.26-2.67,48.42-1.83,22.61,1.18,44.9,4.62,66.66,11.08,24.98,7.42,48.57,17.97,70.47,32.1,24.44,15.77,46.04,34.8,64.05,57.73,2.61,3.32,6.68,5.73,7.09,10.55h-7.2Z"/>
    <path class="cls-3" d="m1654.38,1141.04c4.25-6.57,10.25-11.53,15.52-17.18,13.88-14.88,29.57-27.43,46.69-38.24,31.83-20.1,66.38-32.81,103.65-38.39,12.93-1.94,25.92-2.97,38.89-3.01,12.95-.04,25.99.45,38.85,2.92,4.5.87,9.14,1.1,13.51,3.05-5.76-.73-11.5-1.66-17.27-2.17-12.51-1.09-24.99-1.8-37.62-.95-13.9.94-27.71,2.03-41.38,4.8-21.8,4.41-42.79,11.18-62.9,20.75-16.4,7.81-32,16.92-46.51,27.86-12.31,9.27-24.1,19.11-34.33,30.74-2.81,3.2-6.57,5.58-8.11,9.82h-9Z"/>
    <path class="cls-3" d="m2719.46,892.64c-2.2-.06-3.02,1.91-4.13,3.14-12.84,14.18-27.66,25.94-43.21,37.01-31.95,22.74-67.5,36.7-105.71,44.15-21.67,4.23-43.67,5.71-65.74,4.65-12.84-.61-25.58-2.45-38.27-4.51-1.01-.16-1.97-.62-2.86-1.5,4.44.58,8.87,1.24,13.32,1.73,21.95,2.42,43.88,2.55,65.87.23,23.08-2.44,45.43-7.83,67.13-15.83,18.32-6.76,35.73-15.52,52.22-26.04,22.11-14.11,41.82-31.02,59.12-50.74.62-.7,1.27-1.27,2.25-1.29v9Z"/>
    <path class="cls-3" d="m2719.46,970.04c-2.82.42-4.78,2.45-6.88,4.02-21.13,15.76-44.03,28.51-68.28,38.59-26.74,11.12-54.61,18.49-83.39,22.31-17.09,2.27-34.25,3.73-51.45,3.29-19.57-.51-39.12-1.88-58.35-6.04-.54-.12-1.07-.29-1.51-1.02,8.89,1.03,17.78,2.12,26.68,3.06,16.72,1.77,33.44,1.89,50.24.93,16.02-.92,31.91-2.72,47.61-5.89,51.82-10.44,98.79-31.67,140.69-63.97,1.41-1.08,2.65-2.48,4.64-2.48v7.2Z"/>
    <path class="cls-3" d="m2719.46,105.14c-3.1-.21-4.74,2.32-6.89,3.8-23.94,16.45-49.53,29.62-76.81,39.65-17.62,6.48-35.74,10.99-54.06,14.72-9.06,1.84-18.32,2.98-27.54,3.77-12.97,1.12-25.98,2.19-39.01,1.82-20.65-.59-41.19-2.42-61.48-6.51-.24-.05-.42-.38-1.16-1.1,3.53.36,6.49.51,9.41.98,23.45,3.76,46.98,4.86,70.71,3.44,24.31-1.45,48.17-5.23,71.63-11.71,33.63-9.29,65.13-23.28,94.23-42.56,5.99-3.97,11.83-8.17,17.7-12.32,1.01-.71,1.94-1.41,3.26-1.17v7.2Z"/>
    <path class="cls-3" d="m2719.46,1040.24c-2.3-.34-4.03,1.04-5.8,2.07-22.95,13.45-47.04,24.43-72.3,32.76-25.63,8.46-51.83,14.23-78.65,17.59-23.74,2.97-47.54,3.13-71.32,2.25-18.34-.68-36.58-3.14-54.6-6.92-.55-.11-1.1-.22-1.61-.55,5.31-.66,10.36,1,15.49,1.7,12.46,1.7,24.98,2.57,37.5,3.5,14.54,1.08,29.04.61,43.54-.22,24.41-1.38,48.46-5.11,72.2-10.99,27.74-6.87,54.45-16.47,80.06-29.16,10.6-5.26,21.07-10.78,31.09-17.08,1.4-.88,2.7-1.9,4.39-2.17v7.2Z"/>
    <path class="cls-3" d="m2719.46,173.54c-10.84,5.41-21.56,11.06-32.53,16.19-31.78,14.86-65.06,24.81-99.65,30.81-29.26,5.07-58.67,6.01-88.19,5.07-18.08-.58-36.02-3.13-53.83-6.36-.51-.09-.95-.52-1.35-1.06,13.62,1.93,27.22,3.8,40.9,4.47,14.64.71,29.27,1.9,44,.77,11.34-.87,22.68-1.52,33.99-2.82,28.71-3.31,56.58-10.03,83.8-19.59,24.24-8.52,47.55-19.11,69.58-32.41,1-.61,2.19-.92,3.28-1.37v6.3Z"/>
    <path class="cls-3" d="m1506.7,1033.92c-5.32,9.45-12.07,17.41-21.09,23.81-25.98,18.42-53.38,34.3-82.46,47.21-18.6,8.25-37.72,15.22-57.4,20.48-3.2.86-4.08,2.27-3.88,5.29.23,3.43.08,6.89.1,10.34-.6,0-1.2,0-1.8,0-.52-5.19.88-10.44-.6-15.63-.69-2.4,1.22-3.03,3.05-3.53,15.04-4.1,29.64-9.48,44.04-15.38,25.54-10.47,49.91-23.18,73.05-38.29,15.8-10.32,31.19-21.15,45.4-33.6.42-.36,1.09-.44,1.64-.65l-.05-.05Z"/>
    <path class="cls-3" d="m782.87,1141.04c-1.23-3.15-3.68-5.47-5.82-7.89-31.6-35.74-69.57-62.29-114.46-78.73-9.55-3.5-19.22-6.61-29.17-8.77v-3.6c7.75.24,14.94,3.05,22.17,5.3,26.58,8.26,51.54,20.1,74.46,35.92,22.15,15.29,41.9,33.28,58.37,54.7.73.94,1.69,1.74,1.65,3.08h-7.2Z"/>
    <path class="cls-3" d="m633.42,486.74c1.88-.8,2.24-2.72,3.05-4.27,19.49-37.27,33.54-76.45,41.48-117.79,3.33-17.35,5.3-34.86,6.97-52.43.7-7.41.35-14.91,2.32-22.23,0,9.61.54,19.25-.13,28.81-.9,12.95-2.38,25.89-4.24,38.74-2.73,18.81-7.01,37.3-12.51,55.51-5.24,17.35-11.24,34.41-18.82,50.88-4.69,10.19-9.79,20.19-14.84,30.21-.67,1.34-1.25,3.16-3.27,3.37v-10.8Z"/>
    <path class="cls-3" d="m1384.29,61.04c-2.33,4.48-6.94,6.31-10.8,8.85-18.96,12.49-39.2,22.49-60.65,29.89-16.85,5.81-34.11,10.06-51.8,12.54-17.84,2.51-35.78,3.39-53.74,2.57-15.79-.71-31.47-2.65-46.83-6.77,7.55.9,15.11,1.77,22.66,2.72,17.75,2.22,35.52,2.01,53.34.84,22.24-1.47,43.83-6.03,64.99-12.83,25.7-8.26,49.56-20.28,71.84-35.48.85-.58,1.76-1.18,1.99-2.33h9Z"/>
    <path class="cls-3" d="m2679.85,61.04c-3.17,4.8-8.4,7.07-13,9.85-26.96,16.33-55.72,28.45-86.63,35.02-13.75,2.92-27.67,4.64-41.73,5.73-13.96,1.08-27.85.76-41.72-.28-10.97-.82-21.99-1.95-32.64-5.36,6.26.69,12.52,1.39,18.77,2.08,20.32,2.24,40.59,2.25,60.96.06,26.41-2.84,51.83-9.31,76.38-19.29,16.14-6.57,31.49-14.7,46.09-24.22,1.39-.91,3.48-1.33,3.61-3.6h9.9Z"/>
    <path class="cls-3" d="m1994.7,1141.04c-18.82-15.76-40.18-26.93-63.21-35.17-28.22-10.08-57.35-13.2-87.07-11.52-8.91.5-17.75,2.14-26.65,3.11,8.43-2.8,17.21-3.85,25.96-4.94,10.42-1.3,20.92-1.26,31.4-.96,34.43.96,66.6,10.08,96.76,26.7,10.67,5.88,20.54,12.82,30.01,20.4.8.64,1.83,1.11,1.81,2.38h-9Z"/>
    <path class="cls-3" d="m1087.18,61.04c.21,2.11,2.15,2.32,3.51,3.05,25.17,13.65,51.68,23.63,79.91,28.77,11.46,2.09,23.03,3.3,34.65,4.34,17.22,1.54,34.27-.17,51.41-1.22-3.94,2.23-8.43,2.16-12.65,2.56-31,2.9-61.75,1.81-92.2-5.54-25.82-6.23-50.19-15.88-73.16-29.13-1.23-.71-2.95-.96-3.17-2.84h11.7Z"/>
    <path class="cls-3" d="m2392.64,61.04c-.08,2.43,2.03,2.75,3.54,3.51,28.7,14.54,58.8,24.44,90.89,28.13,11.91,1.37,23.85,2.59,35.78,2.28,12.97-.34,26.02-.67,38.84-3.2.85-.17,1.76-.02,2.67.23-7.81,2.26-15.86,3.17-23.9,4.03-13.59,1.46-27.26,1.46-40.88.91-24.52-.99-48.43-5.53-71.7-13.35-15.37-5.17-30.3-11.35-44.38-19.46-1.34-.77-3.29-.97-3.47-3.09h12.6Z"/>
    <path class="cls-3" d="m2222.61,1045.49c9.17,5.33,15.72,13.03,21.15,22.06,13.51,22.51,25.89,45.56,35.47,70.04.43,1.09.59,2.29.87,3.44-1.8,0-3.6,0-5.4,0-5.98-16.34-14.02-31.73-22.31-46.96-8.67-15.91-18.56-31.07-29.21-45.72-.5-.69-.64-1.64-.95-2.48.13-.13.26-.26.39-.39Z"/>
    <path class="cls-3" d="m2719.46,1099.64c-5.53.62-9.97,3.97-14.78,6.22-18.89,8.86-38.41,15.96-58.33,22.05-3.02.92-3.97,2.34-3.2,5.09.75,2.66.55,5.35.68,8.03-.9,0-1.8,0-2.7,0,.04-4.04.31-8.1.04-12.13-.19-2.96.85-4.25,3.63-5.11,19.47-6.04,38.37-13.56,56.84-22.19,5.93-2.77,11.4-6.54,17.81-8.27v6.3Z"/>
    <path class="cls-3" d="m2106.34,61.04c-.04,1.9,1.53,2.39,2.78,3.15,13.13,8.09,25.51,17.26,37.79,26.55,5.65,4.27,8.72,10.96,13.36,16.23,1.25,1.43,2.34,3,4.29,5.51-4.54-1.77-6.69-4.7-9.25-6.89-17.76-15.19-36.48-29.06-56.4-41.28-1.3-.8-3.17-1.25-3.37-3.27h10.8Z"/>
    <path class="cls-3" d="m691.04,1141.04c.29-2.04-1.29-3.07-2.57-3.87-17.38-10.89-35.17-20.96-55.05-26.73v-4.5c14.99,3.03,28.52,9.76,41.96,16.66,8.51,4.37,16.44,9.74,24.14,15.42,1.07.79,2.4,1.36,2.32,3.02h-10.8Z"/>
    <path class="cls-3" d="m1752.52,1141.04c-.95-2.42-.46-4.03,2.01-5.46,13.99-8.14,28.49-15.12,44.02-19.8,1.38-.42,3.28-1.96,4.25.34,1.08,2.56-1.02,3.33-2.92,3.99-13.44,4.65-26.3,10.53-38.49,17.87-1.52.91-2.91,2.04-4.36,3.06-1.5,0-3,0-4.5,0Z"/>
    <path class="cls-3" d="m1816.44,1141.04c0-8.97.05-17.94-.07-26.92-.03-2.4.73-3.23,3.17-3.78,12.6-2.84,25.44-3.24,38.22-4.19,1.29-.1,3.17-.32,3.15,1.52-.02,2.12-2.08,1.74-3.48,1.75-12,.06-23.75,2.03-35.47,4.43-3.16.65-3.8,2.02-3.73,4.82.19,7.46,1.43,14.88.92,22.36-.9,0-1.8,0-2.7,0Z"/>
    <path class="cls-3" d="m1581.39,90.68c3.84-6.02,7.73-12.01,11.52-18.07,2.35-3.76,5.18-7.26,6.56-11.57h6.3c-1.14,6.39-5.98,10.79-8.78,16.29-3.32,6.52-9.33,10.11-15.44,13.51l-.15-.15Z"/>
    <path class="cls-3" d="m633.42,873.74c11.1.31,21.82,3.12,32.66,5.13,3.95.73,7.81,1.97,11.75,2.8,1.8.37,2.8,1.14,2.37,2.98-.53,2.26-2.18.98-3.27.73-12.64-2.99-25.33-5.77-38.18-7.7-1.76-.26-3.56-.23-5.33-.34,0-1.2,0-2.4,0-3.6Z"/>
    <path class="cls-3" d="m2577.21,1141.04c1.19-2.97,4.15-2.09,6.22-2.44,13.58-2.31,27.04-5.15,40.36-8.63,1.58-.41,3.81-1.82,4.43.86.55,2.4-1.77,2.69-3.55,3.07-8.33,1.8-16.66,3.62-25.01,5.39-1.16.25-2.49.08-2.65,1.76h-1.8c-.9-1.15-1.8-.91-2.7,0h-15.31Z"/>
    <path class="cls-3" d="m1874.06,1141.04c.06-10.17.11-20.33.19-30.5.01-1.56-.53-3.74,2.08-3.55,8.99.67,17.92,1.84,26.55,4.71-7.3-.74-14.59-1.65-21.91-2.15-5.36-.37-5.18-.14-4.63,5.12.45,4.3.41,8.65.41,12.98,0,4.49.07,8.96.9,13.38-1.2,0-2.4,0-3.6,0Z"/>
    <path class="cls-3" d="m633.42,266.24c2.16.43,1.68,2.18,1.68,3.56.04,14.43.04,28.86,0,43.29,0,1.36.5,3.15-1.69,3.55v-50.4Z"/>
    <path class="cls-3" d="m1165.51,1141.04c-.55-3.57-4.4-.56-5.84-3.13,4.86-1.21,9.45.53,14.04.71,4.9.2,9.8.7,14.72.84,1.25.03,2.83-.35,3.19,1.59h-17.11c-.6-.91-1.2-.97-1.8,0h-7.2Z"/>
    <path class="cls-3" d="m1238.43,1141.04c.17-1.7,1.49-1.55,2.64-1.65,6.62-.53,13.25-.94,19.85-1.64,2.98-.32,2.58,1.57,2.71,3.29h-25.21Z"/>
    <path class="cls-3" d="m1932.58,1141.04c.45-6.52,1.2-13.03,1.59-19.62,1.5,6.47.93,13.08,1.11,19.62h-2.7Z"/>
    <path class="cls-3" d="m637.92,1141.04v-18.88c.43,0,.86,0,1.29,0,1.11,6.23-.21,12.69,1.41,18.88h-2.7Z"/>
    <path class="cls-3" d="m2603.15,1122.17c-9.08,1.72-18.12,3.73-27.25,5.12-28.36,4.31-56.92,5.63-85.57,4.7-29.71-.96-58.98-5.08-87.88-12.1-35.28-8.57-69.01-21.16-101.08-38.13-27.9-14.76-53.87-32.34-78.02-52.73-32.18-27.17-59.76-58.35-82.65-93.63-29.53-45.52-49.48-94.93-59.63-148.28-4.23-22.26-6.9-44.65-6.29-67.35.01-.45.13-.95-.02-1.34-3.31-8.26,1.47-12.08,7.97-15.57,8.72-4.68,17.42-9.39,26.58-13.16,1.27-.52,3.04-2.51,4.1,0,.8,1.9.2,3.7-2.07,4.74-9.13,4.18-17.83,9.18-26.65,13.97-7.3,3.96-9.65,8.49-8.53,17.15,1.79,13.9,2.68,27.94,4.95,41.82,3.96,24.13,10.08,47.68,18.09,70.78,7.03,20.28,15.53,39.89,25.53,58.86,8.95,16.97,19.04,33.23,30.21,48.84,10.2,14.26,21.45,27.63,33.05,40.76,17.62,19.96,37.54,37.42,58.6,53.52,17.49,13.37,36.01,25.32,55.42,35.83,34.68,18.79,71.23,32.68,109.58,41.86,19.65,4.71,39.57,7.66,59.66,9.93,14.18,1.6,28.42,2.04,42.57,2.06,19.4.03,38.88-.65,58.15-3.81,10.29-1.69,20.64-3.08,30.96-4.6.08.26.16.51.23.77Z"/>
    <path class="cls-3" d="m1304.84,1117.62c-7.76,2.88-15.87,4.01-23.92,5.28-28.21,4.44-56.65,5.57-85.13,4.5-35.58-1.33-70.54-6.86-104.79-16.78-24.96-7.23-49.17-16.39-72.45-27.92-35.23-17.45-67.61-39.16-96.96-65.38-36.31-32.44-66.37-69.83-89.91-112.49-21.03-38.11-35.66-78.5-43.97-121.16-4.41-22.65-7.27-45.51-6.64-68.68.02-.6.2-1.27,0-1.79-3.1-7.84,1.62-11.12,7.64-14.45,8.54-4.72,17.02-9.48,26.07-13.15,1.67-.67,4.03-2.59,5.35.21,1.39,2.94-1.28,3.97-3.33,4.77-10.82,4.21-20.38,10.68-30.29,16.53-3.77,2.22-4.6,4.78-4.08,9.24,1,8.59,1.2,17.29,2.21,25.91,4.57,39.01,14.27,76.71,29.17,113.02,9.27,22.6,20.38,44.27,33.52,64.93,15.56,24.44,33.22,47.13,53.14,68.19,27.77,29.36,59.12,54.21,93.71,74.87,27.32,16.32,56.2,29.45,86.56,39.33,21.1,6.87,42.47,12.56,64.31,16.31,14.28,2.45,28.69,4.05,43.18,5.14,17.39,1.31,34.77,1.05,52.14.64,16.43-.39,32.83-1.97,49.06-4.85,5.11-.91,10.28-1.49,15.42-2.23Z"/>
    <path class="cls-3" d="m1754.65,877.03c-.22-16.93-.86-33.8,1.12-50.69,2.09-17.86,4.95-35.54,9.07-53.04,5.54-23.55,13.19-46.39,22.84-68.56,13.53-31.06,30.45-60.16,51.1-87.03,22.18-28.86,47.47-54.68,76.12-77.22,24.26-19.08,50.14-35.51,77.85-49.02,37.65-18.35,77.13-30.99,118.45-38.23,32.82-5.75,65.82-7.03,98.96-5.89,20.64.71,41.13,3.51,61.46,7.29,1,.19,1.96.59,2.93,1.13-132.36-20.44-253.02,6.98-357.85,91.49-104.68,84.38-156.98,195.77-162.07,329.79Z"/>
    <path class="cls-3" d="m1630.83,685.95c-9.84,1.65-19.65,3.52-29.53,4.92-25.73,3.64-51.63,4.4-77.58,3.75-24.15-.6-48.04-3.55-71.71-8.28-28.88-5.78-56.9-14.37-84.03-25.85-35.95-15.21-69.26-34.81-99.99-58.94-12.58-9.87-24.74-20.17-36.25-31.23-12.16-11.7-23.15-24.55-33.66-37.66-8.96-11.18-17.45-22.81-25.23-35-24.36-38.21-42.4-79.06-53.72-122.87-5.85-22.63-9.58-45.63-11.43-68.97-1-12.58-.44-25.12-.8-37.96,2.3.58,1.92,2.11,1.88,3.25-.6,18.79,2.12,37.3,4.59,55.84.14,1.03.16,2.23.71,3.04,2.62,3.9,2.16,8.46,2.74,12.72,2.87,20.88,9.15,40.84,16.04,60.62,11.19,32.11,26.27,62.35,44.96,90.74,9.54,14.49,19.88,28.38,31.12,41.65,8.03,9.49,16.28,18.72,25.04,27.52,12.33,12.38,25.63,23.66,39.06,34.8,13.12,10.88,27.17,20.47,41.75,29.15,20.1,11.97,40.64,23.1,62.52,31.75,17.38,6.88,34.92,13.11,52.89,18.19,18.1,5.12,36.59,8.25,55.13,11.22,23.62,3.78,47.4,3.82,71.2,3.7,12.72-.06,25.34-1.02,38.02-2.29,12.12-1.21,24.05-3.54,36.24-3.79Z"/>
    <path class="cls-3" d="m1284.5,1068.97c-7.66,2.59-15.65,3.4-23.58,4.37-19.51,2.39-39.11,3.49-58.76,2.72-28.48-1.11-56.61-4.82-84.29-11.9-29.77-7.62-58.22-18.55-85.39-32.87-27.98-14.74-53.62-32.81-77.13-53.96-30.6-27.51-55.92-59.25-75.94-95.11-20.25-36.26-33.98-74.89-40.88-115.95-4.36-25.96-5.81-52.04-5.08-78.31.26-9.22.07-9.29,8.91-11.66,11.01-2.96,22.28-4.55,33.59-5.79,1.1-.12,2.71-.51,2.99,1.12.3,1.79-1.2,2.09-2.62,2.31-10.65,1.63-21.21,3.63-31.67,6.24-9.1,2.27-10.29,3.31-9.38,12.44,1.23,12.21,1.2,24.48,2.4,36.7,2.13,21.79,5.97,43.24,11.74,64.33,5.7,20.84,13.06,41.1,22.37,60.6,13.67,28.62,30.58,55.19,50.82,79.64,12.54,15.15,26.04,29.4,40.85,42.29,16.36,14.24,33.57,27.4,52.11,38.82,18.81,11.59,38.34,21.66,58.77,29.95,30.51,12.38,62.1,20.79,94.79,25.12,22.34,2.96,44.75,4.15,67.22,3.28,16.09-.62,32.18-1.86,48.16-4.38Z"/>
    <path class="cls-3" d="m2592.02,1071.26c-7.84,2.35-15.34,3.57-22.79,4.64-24.04,3.45-48.19,5.56-72.52,4.73-22.32-.76-44.44-3.22-66.36-7.6-38.95-7.78-75.79-21.3-110.54-40.48-24.48-13.51-47.2-29.54-68.12-48.13-26.6-23.64-49.62-50.33-68.57-80.45-21.48-34.12-36.96-70.76-46.4-110.04-8.04-33.47-10.61-67.32-9.6-101.59.27-9.01.02-9.22,8.64-11.37,10.89-2.73,21.83-5.32,33.17-5.2,1.19.01,3.17-.91,3.41.96.24,1.86-1.76,1.57-3.01,1.75-12.31,1.75-24.43,4.34-36.36,7.9-3.42,1.02-4.29,2.69-4.22,6.05.7,34.2,4.01,68.08,12.81,101.21,8.76,33.01,21.75,64.27,38.95,93.86,18.35,31.57,40.83,59.79,67.29,84.84,17.2,16.28,35.8,30.81,55.7,43.73,26.15,16.97,54.03,30.35,83.42,40.58,24.5,8.53,49.63,14.51,75.41,17.9,22.64,2.97,45.35,4.24,68.11,3.3,18.96-.78,37.85-2.86,56.53-6.44,1.48-.28,2.9-.67,5.06-.15Z"/>
    <path class="cls-3" d="m1478.22,651.83c120.37,15.11,228.96-12.43,321.56-92.36,93.17-80.42,135.76-183.94,133.55-307.13,1.85,3.77,1.89,3.77,1.9,7.07.02,14.25.63,28.53-.12,42.74-1.39,26.19-5.39,52.04-12.55,77.33-4.77,16.87-10.47,33.42-17.65,49.44-9.88,22.05-21.42,43.12-35.27,62.97-14.8,21.21-31.39,40.85-50.13,58.62-22.24,21.08-46.63,39.34-73.25,54.66-21.5,12.37-43.97,22.54-67.27,30.91-18.42,6.62-37.35,11.51-56.55,15.16-10.63,2.02-21.36,3.66-32.17,4.9-19.58,2.25-39.16,1.9-58.73,1.49-17.86-.37-35.74-1.49-53.31-5.8Z"/>
    <path class="cls-3" d="m828.49,485.51c6.78-1.07,13.43-2.27,20.13-3.16,18.12-2.4,36.37-3.69,54.6-3.47,37.4.46,74.2,5.66,110.21,16.1,39.18,11.36,75.58,28.61,109.39,51.31,30.25,20.31,57.03,44.5,80.29,72.62,13.97,16.88,26.54,34.64,37.45,53.63,20.45,35.6,34.24,73.57,42.29,113.85,6.33,31.71,6.49,63.64,5.95,95.69-.01.87-.19,1.74-.34,2.99-1.86-1.21-1.28-2.82-1.3-4.1-.14-16.62-.6-33.25-2-49.81-1.3-15.35-3.74-30.55-6.97-45.64-6.59-30.78-17.01-60.21-31.01-88.34-13.87-27.87-31-53.64-51.32-77.32-25.21-29.39-53.95-54.68-86.57-75.53-34.21-21.87-70.82-38.31-110.1-48.83-23.63-6.33-47.56-10.52-71.95-12.63-25.47-2.2-50.83-1.82-76.21.93-6.98.75-13.96,1.48-20.88,2.66-.57.1-1.17.09-1.67-.96Z"/>
    <path class="cls-3" d="m2124.38,490.37c5.44-2.18,11.27-2.69,16.97-3.46,23.97-3.25,48.1-3.63,72.21-2.8,25.01.87,49.72,4.43,74.06,10.39,17.62,4.32,34.97,9.5,51.88,16.1,29.6,11.54,57.41,26.43,83.4,44.7,17.92,12.6,34.89,26.42,50.12,42.15,20.09,20.75,38.64,42.79,53.89,67.48,23.29,37.7,39.64,78.07,48.67,121.48,6.32,30.4,7.78,61.1,7.01,92-.02.75-.04,1.5-.12,2.24-.31,2.78-.65,5.56-1.25,8.32-.73-8.64-.91-17.3-1.08-25.92-.81-40.46-7.73-79.75-21.15-117.93-12.31-35.03-29.29-67.57-51.36-97.45-9.34-12.65-19.47-24.59-30.04-36.27-20.76-22.92-44.41-42.31-69.95-59.45-25.36-17.02-52.52-30.65-81.18-41.23-21.55-7.96-43.63-14.04-66.22-18.13-17.23-3.12-34.61-4.96-52.12-6.1-15.62-1.02-31.16-.42-46.71.32-10.14.48-20.28,1.47-30.33,3.09-2.21.35-4.48.3-6.72.43,0,0,.04.05.04.05Z"/>
    <path class="cls-3" d="m931.64,674.58c-11.16-1.43-22.03-1.87-32.91-2.39-3.35-.16-4.43.94-4.33,4.34.68,23.32,1.4,46.6,5.21,69.73,5.03,30.51,14.25,59.57,27.74,87.36,13.23,27.25,30.04,51.94,50.3,74.52,24.79,27.63,53.53,50.17,85.93,67.9,33.73,18.47,69.73,30.69,107.9,36.4,22.32,3.34,44.74,4.21,67.21,3.32,12.22-.48,24.44-1.75,36.51-4.01,1.15-.22,2.35-.17,3.56,0-6.74,2.56-13.89,2.99-20.9,4.02-19.63,2.89-39.43,3.61-59.2,2.64-41.09-2-80.61-11.04-118.23-27.91-33.39-14.97-63.46-34.83-90.12-59.98-24.98-23.56-45.52-50.39-61.81-80.58-17.69-32.8-28.81-67.73-33.74-104.59-2.99-22.31-3.86-44.74-2.11-67.23.08-1.04.29-2.17.02-3.14-1.39-4.96,1.78-5.59,5.26-5.27,10.57.96,21.23,1.16,31.66,3.39.71.15,1.52.09,2.05,1.47Z"/>
    <path class="cls-3" d="m2557.75,898.2c-10.84,3.25-21.88,4.67-32.95,5.97-2.58.3-3.34-.75-3.32-3.32.09-10.5-.03-20.99-.09-31.49-.3-53.57-12.87-104.05-38.23-151.27-14.04-26.14-31.44-49.82-52.02-71.25-14.35-14.94-30.42-27.78-46.9-40.2-31.88-24.03-67.63-40.11-105.82-50.91-23.37-6.61-47.27-10.33-71.61-11.69-24.64-1.38-49.04-.06-73.38,3.65-1.15.17-2.34.02-3.61-.61,5.33-.9,10.65-1.84,15.99-2.7,22.37-3.59,44.93-3.43,67.44-2.65,21.38.74,42.44,4.26,63.29,9.25,17.28,4.13,34.05,9.85,50.38,16.56,14.59,5.99,28.71,13.22,42.11,21.79,10.39,6.65,20.8,13.25,30.64,20.67,22.59,17.04,42.26,37.01,59.59,59.36,8.73,11.26,16.74,23,23.82,35.32,10.91,19,19.65,39.01,26.55,59.83,5.76,17.38,9.48,35.21,12.28,53.26.94,6.05,1.58,12.16,1.98,18.27,1.32,20.19.78,40.38-.63,60.54-.26,3.78.4,5.51,4.7,5.14,9.4-.8,18.69-2.28,27.98-3.82.55-.09,1.09-.49,1.77.31Z"/>
    <path class="cls-3" d="m1608.35,708.4c0,10.28.54,20.59-.13,30.83-.93,14.15-2.56,28.27-5.16,42.24-6.13,32.84-16.45,64.26-31.1,94.32-8.55,17.56-18.46,34.31-29.56,50.3-9.2,13.25-19.39,25.81-30.41,37.68-7.25,7.81-14.65,15.45-22.4,22.74-14.96,14.08-31.14,26.67-48.19,38.11-16.31,10.94-33.45,20.48-51.21,28.88-32.56,15.39-66.66,25.75-102.15,31.91-29.39,5.1-58.97,6.2-88.63,5.08-19.21-.73-38.32-3.01-57.13-7.57,117.96,18.25,225.7-6.1,319.57-80.64,94.11-74.73,141.16-174.18,146.51-293.87Z"/>
    <path class="cls-3" d="m1618.96,634.3c-8.04,2.93-16.31,4.17-24.58,5.26-21.56,2.82-43.21,4.37-64.97,3.66-48.06-1.57-94.42-11.09-138.88-29.62-15.24-6.35-30-13.63-44.3-21.82-23.55-13.5-45.19-29.62-65.38-47.77-22.74-20.45-42.56-43.41-59.55-68.78-28.64-42.76-47.52-89.52-56.58-140.21-3.41-19.06-4.89-38.27-4.91-57.62,0-2.83,1.58-2.07,2.81-1.98,8.21.6,16.43,1.11,24.6,2.07,4.95.58,9.88.28,14.81.58,1.08.06,2.81-.44,2.75,1.35-.05,1.58-1.53.79-2.48.88-6.84.65-13.55-.88-20.32-1.27-5.89-.34-11.85-.35-17.65-1.86-1.66-.43-2.45.68-2.42,2.35.02,1.5-.13,3.01.02,4.5,1.01,10.51,1.85,21.04,3.16,31.51,2.89,23.21,9.1,45.64,16.44,67.8,5.79,17.48,13.35,34.19,21.72,50.52,8.54,16.66,18.33,32.61,29.45,47.69,8.51,11.53,17.37,22.8,27.15,33.32,18.99,20.42,39.52,39.13,62.41,55.13,13.42,9.38,27.35,17.97,41.89,25.56,5.95,3.11,11.76,6.47,17.9,9.23,28.3,12.71,57.5,22.67,88.01,28.48,16.3,3.11,32.69,5.46,49.29,6.65,13.04.94,26.06.79,39.07.63,19.02-.23,37.86-2.65,56.62-5.72,1.31-.21,2.63-.33,3.94-.49Z"/>
    <path class="cls-3" d="m2226.77,679.01c-8.81-1.21-17.76-1.4-26.69-1.93-.3-.02-.58-.18-.88-.19-3.43-.1-7.24-1.2-10.19.52-3.76,2.19-.69,6.02-.74,9.07-.29,17.23.62,34.43,2.84,51.51,3.74,28.76,10.72,56.68,22.18,83.45,7.03,16.43,14.98,32.33,24.52,47.42,11.95,18.9,25.67,36.36,41.34,52.37,15.77,16.11,32.83,30.52,51.45,43.19,31.8,21.64,66.54,36.79,103.63,46.46,17.8,4.64,36.01,7.24,54.4,8.76,14.69,1.22,29.37.9,44.04.62,8.18-.16,16.42-.76,24.52-2.27.74-.14,1.48-.27,2.79.97-5.68.82-10.79,1.68-15.94,2.27-15.36,1.76-30.78,2.28-46.22,1.84-36.54-1.04-71.94-7.89-106.19-20.72-33.42-12.52-63.93-30.11-91.48-52.73-30.3-24.88-55.14-54.42-74.55-88.54-17.21-30.25-28.75-62.53-35.12-96.68-4.69-25.15-5.4-50.57-4.83-76.08.3-13.75.2-13.88,14.07-13.42,9.1.3,18.13,1.43,27.03,4.09Z"/>
    <path class="cls-3" d="m1493.53,595.84c9.31.78,18.65,1.63,28.03,2.06,12.43.57,24.84.62,37.28-.08,14.22-.8,28.35-2.34,42.33-4.91,16.12-2.96,31.94-7.01,47.53-12.35,13.14-4.51,25.96-9.6,38.46-15.52,22.56-10.68,43.58-23.87,63.11-39.45,11.73-9.36,23.04-19.17,33.38-30.05,20.12-21.17,37.37-44.47,51.37-70.12,14.95-27.39,25.76-56.34,32.19-86.89,3.02-14.35,4.87-28.87,6.08-43.5,1.46-17.67.51-35.36.85-53.03.07-3.52.82-4.94,4.48-4.46,10.2,1.32,20.44,2.35,30.27,5.71-6.57-.4-12.97-2.06-19.53-2.58-2.37-.19-4.75-.52-7.14-.56-6.77-.11-6.63.06-6.23,6.69.95,15.96,1.82,31.9,1.11,47.96-.69,15.45-2.27,30.76-5.19,45.84-3.58,18.51-8.78,36.65-15.76,54.25-11.51,29.03-26.78,55.87-46.16,80.32-16.71,21.08-35.67,39.91-57.05,56.33-24.52,18.83-51.27,33.72-79.7,45.64-13.34,5.6-27.34,9.29-41.32,13.02-15.1,4.03-30.36,7.36-45.85,8.97-16.84,1.74-33.83,1.21-50.77,1.14-14.05-.05-27.99-1.09-41.76-4.43Z"/>
    <path class="cls-3" d="m836.11,542.49c7.03-1.16,14.02-2.67,21.1-3.41,18.01-1.88,36.07-3.63,54.21-2.74,27.85,1.35,55.31,5.07,82.24,12.76,17.63,5.03,34.8,11.16,51.31,18.96,21.42,10.12,41.67,22.28,60.31,37.03,10.33,8.17,20.53,16.49,29.93,25.69,9.72,9.52,18.72,19.72,27.44,30.18,6.87,8.24,13.12,16.98,18.87,25.92,5.95,9.25,11.29,19,16.35,28.87,9.33,18.2,16.08,37.38,22.13,56.76,4.36,13.98,6.63,28.55,8.63,43.13,3.23,23.43,1.36,46.92,1.63,70.38.03,2.52-.45,5.05-.74,7.57-.33,2.78.91,3.73,3.63,3.56,8.51-.52,16.98-1.34,25.32-3.17.99-.22,2.02-.27,3.08-.14-7.79,3.06-16.02,3.93-24.22,4.99-10.12,1.32-8.8,1.01-9.35-8.8-.7-12.56,0-25.19-.45-37.77-.93-26.43-5.23-52.36-12.68-77.75-11.65-39.73-30.62-75.75-56.08-108.27-16.86-21.54-36.16-40.82-58.05-57.32-28.59-21.56-59.48-39.07-93.4-50.84-23.25-8.07-47.09-13.7-71.58-16.67-17-2.06-34.02-3.03-51.1-2.46-15.25.5-30.47,1.62-45.53,4.21-.87.15-1.78.1-2.67.15-.11-.28-.23-.56-.34-.84Z"/>
    <path class="cls-3" d="m2267.11,507.14c-7.44.37-14.63-2.05-22.04-2.67-7.65-.63-15.25-1.77-22.9-2.38-15.56-1.25-31.19-1.6-46.73-.71-16.5.94-32.92,2.91-49.3,5.66-15.66,2.63-30.75,7.11-46.02,10.99-13.42,3.41-26.15,9.07-38.93,14.42-18.37,7.69-36.11,16.64-52.97,27.27-12.45,7.85-24.34,16.47-35.92,25.58-22.89,18-43.23,38.39-61.5,61.1-15.66,19.46-29.17,40.2-40.68,62.26-13.71,26.24-24.24,53.72-31.07,82.6-4.93,20.85-8.6,41.87-9.9,63.28-.15,2.49-.74,4.95-1.32,7.4-.86-10.61-.44-21.21.8-31.72,2.36-19.92,5.91-39.64,11.44-58.98,9.7-33.94,23.82-65.85,42.72-95.71,15.62-24.69,33.68-47.35,54.61-67.71,27.97-27.22,59.28-49.74,94.13-67.47,36.12-18.37,74.18-30.66,114.09-37.06,24.58-3.94,49.42-5.79,74.33-4.64,22.56,1.04,45.05,2.96,67.17,8.51Z"/>
    <path class="cls-3" d="m1581.65,462.09c-5.49,2.56-11.43,2.9-17.22,3.76-7.41,1.11-14.92,1.23-22.42,1.19-2.56-.01-3.92-.25-3.15-3.51,1.04-4.43-.46-8.91-.56-13.4-.7-31.12,1.43-61.95,9.11-92.21,6.55-25.81,16.18-50.4,29-73.81,10.49-19.14,22.89-36.9,37.01-53.45,11.97-14.04,25.18-26.85,39.51-38.54,7.73-6.31,15.8-12.11,23.97-17.77,34.99-24.26,73.64-40.07,115.14-49.07,28.72-6.23,57.86-7.79,87.13-6.43,14.78.69,29.5,2.53,44.05,5.42,1,.2,1.95.62,2.88,1.19-8.02-.55-15.92-1.84-23.88-2.69-16.7-1.78-33.34-2.65-50.16-1.64-19.16,1.14-38.13,3.44-56.84,7.55-28.98,6.37-56.42,16.98-82.71,30.7-11.7,6.11-22.83,13.17-33.69,20.59-11.08,7.56-21.43,16.14-31.34,25.19-10.83,9.89-21.25,20.18-30.66,31.46-9.96,11.95-19.06,24.5-27.32,37.69-17.32,27.64-29.83,57.33-38,88.84-4.66,17.96-7.81,36.22-8.83,54.79-.8,14.63-1.48,29.26-2.33,43.89-.13,2.26,1.06,2.42,2.68,2.57,8.07.74,16.11-.15,24.14-.67,4.85-.32,9.66-1.09,14.49-1.65Z"/>
    <path class="cls-3" d="m1809.68,108.25c6.86-1.04,13.52-2.42,20.25-2.99,15.66-1.33,31.36-2.55,47.1-1.87,30.29,1.31,60.03,5.72,89.13,14.66,22.02,6.77,43.11,15.56,63.22,26.63,19.56,10.77,38.01,23.2,55.07,37.77,18.77,16.04,35.57,33.86,50.38,53.51,15.11,20.05,27.42,41.79,37.27,64.93,11.16,26.19,18.41,53.47,22.11,81.61,1.93,14.67,2.91,29.51,2.1,44.36-.22,3.98.99,5.23,4.99,5.07,11.84-.47,23.6,1.3,35.41,1.76,1.48.06,3.45-.05,3.39,2-.07,2.34-2.34,1.55-3.54,1.45-7.14-.55-14.23-1.58-21.39-2.07-5.54-.38-11.07-.56-16.6-.55-3.18,0-3.9-1.05-3.96-4.17-.79-40.17-7.81-79.2-22.79-116.56-12.62-31.5-29.81-60.38-51.58-86.49-22.43-26.9-48.26-49.97-77.83-68.75-33.98-21.58-70.75-36.54-110.05-45.14-29.26-6.4-58.96-8.55-88.86-7.26-10.59.46-21.19,1.35-31.69,3.02-.68.11-1.43.53-2.13-.92Z"/>
    <path class="cls-3" d="m1152.97,1026.57c23.22,3.17,46.31,5.24,69.53,4.61,40.47-1.11,79.62-8.91,117.3-23.95,39.86-15.92,75.56-38.42,106.65-67.94,32.76-31.11,58.28-67.35,76.06-109.05,11.36-26.65,18.8-54.28,22.78-82.87,1.71-12.28,3-24.66,3.16-37.08.04-2.71.85-2.98,2.94-2.98,12.74,0,25.41-1.17,38.05-2.62.3-.03.61-.07.9-.02,1.21.19,3.11-.79,3.39,1.12.31,2.08-1.59,2.26-3.1,2.26-3.76,0-7.46.72-11.18.85-8.38.28-16.73,1.56-25.13,1-3.21-.21-4.53.66-4.45,4.2.81,32.94-4.56,65.03-14.6,96.27-10.09,31.41-25,60.47-44.5,87.2-8.13,11.15-16.79,21.84-26.19,31.86-13.93,14.85-29.05,28.44-45.65,40.34-29.33,21.03-61.03,37.37-95.49,48.19-20.89,6.55-42.23,11.02-64.02,13.41-14.74,1.61-29.52,2.86-44.33,2.4-20.33-.63-40.56-2.53-60.56-6.45-.55-.11-1.05-.48-1.58-.74Z"/>
    <path class="cls-3" d="m2253.91,563.96c-4.88-.83-9.73-1.85-14.64-2.45-16.35-2.01-32.78-2.92-49.26-2.88-44.5.13-86.94,9.8-127.79,27.08-15.62,6.61-30.21,15.04-44.63,23.94-11.84,7.31-23,15.49-33.59,24.33-10.81,9.03-21.4,18.36-30.58,29.35-6.06,7.25-13.19,13.7-18.8,21.45-9.31,12.89-18.4,25.9-26.47,39.64-9.89,16.84-17.07,34.88-23.6,53.13-5.16,14.41-9.03,29.28-11.97,44.36-2.42,12.42-3.99,24.92-4.89,37.53-.24,3.35.84,4.45,4.24,4.42,11.68-.1,23.34.58,34.96,1.69,1.42.14,3.58-.3,3.44,1.82-.16,2.52-2.27,1.07-3.54.99-12.1-.76-24.17-2.25-36.32-1.93-3.63.1-4.78-.4-4.7-4.86.26-14.11,1.46-28.07,3.74-41.98,2.78-17.02,6.95-33.68,12.56-49.99,8.68-25.21,20.41-48.93,35.24-71.05,14.05-20.96,30.29-40.09,49.01-57.13,13.66-12.44,28.29-23.48,43.72-33.62,35.65-23.43,74.61-38.3,116.36-46.34,25.44-4.9,51.15-6.56,76.92-5.12,16.36.91,32.85,1.88,48.86,6.07.66.17,1.29.45,1.93.68-.07.28-.15.57-.22.85Z"/>
    <path class="cls-3" d="m1610.21,578.63c-11.57,2.17-22.28,3.99-33.08,5.21-16.71,1.89-33.5,2.46-50.27,1.77-36.02-1.49-70.95-8.43-104.66-21.42-33.59-12.94-64.29-30.8-91.85-53.9-24.25-20.33-45.06-43.76-62.3-70.39-18.66-28.83-32.24-59.79-40.65-93.05-5.48-21.69-8.58-43.71-9.05-66.1-.06-3.04,1.75-2.6,3.47-2.65,6.73-.21,13.46-.26,20.2-.75,6.12-.45,12.24-.93,18.35-1.43,1.26-.1,2.57-.47,2.86,1.15.31,1.76-1.24,1.84-2.38,1.93-7.6.57-15.2,1.16-22.81,1.56-4.04.21-8.1.07-12.15.09-5.77.02-5.9.08-5.37,5.76,1.19,12.81,3.1,25.5,5.64,38.12,6.09,30.32,16.57,59.07,31.11,86.29,12.53,23.45,27.81,44.99,45.74,64.73,16.6,18.28,34.87,34.51,55.08,48.64,24.19,16.91,50.12,30.45,78,40.17,23.95,8.35,48.51,14.04,73.74,17,18.24,2.13,36.5,2.06,54.76,1.51,13.88-.42,27.67-2.46,41.38-4.8,1.16-.2,2.3-.68,4.25.57Z"/>
    <path class="cls-3" d="m2150.03,602.16c19.37-4.49,39.26-6.05,59.06-4.29,12.8,1.14,25.71,1.87,38.44,4.53,30.41,6.36,59.29,16.45,86.21,32.1,24.25,14.1,46.09,31.14,65,51.87,14.25,15.63,26.76,32.64,36.82,51.19,11.74,21.65,20.65,44.49,25.58,68.79,2.49,12.26,5.29,24.54,5.4,37.02.13,15.67.81,31.4-.78,47.05-.57,5.66-.58,6.3,4.86,7.19,11.23,1.83,22.33,4.93,33.92,3.55,1.46-.17,3.77-.02,3.92,2.09.16,2.33-2.05,1.75-3.38,1.7-13.18-.43-26.23-2.01-39.2-4.35-2.42-.44-2.12-2.07-2.14-3.71-.17-11.83-.23-23.66-.54-35.49-.88-33.37-8.03-65.27-21.08-95.89-11.74-27.52-27.77-52.32-47.9-74.47-37.97-41.78-84.55-69.18-139.19-82.97-16.7-4.22-33.64-6.63-50.94-7.32-9.72-.39-19.43-.82-29.13-.58-8.31.21-16.6,1.28-24.91,1.97Z"/>
    <path class="cls-3" d="m1861.34,238.75c-4.61.56-8.03,1.12-11.48,1.38-9.11.67-18.09,2.21-27.07,3.83-3.19.58-4.87,1.75-4.59,5.52,1.09,14.65,1.48,29.34.91,44.02-.87,22.52-4.98,44.49-11.76,66.02-2.7,8.58-5.7,17.12-9.3,25.24-5.05,11.43-11.07,22.52-17.86,33.1-11.94,18.6-25.62,35.8-41.77,50.92-16.13,15.09-33.95,27.82-52.97,39.15-26.21,15.61-54.54,25.09-84.11,31.32-21.63,4.55-43.6,5.92-65.66,4.96-13.58-.59-27.1-2.19-40.5-4.59-.38-.07-.71-.44-1.55-1,9.66.9,18.76,1.87,27.87,2.57,12.72.98,25.43.83,38.17-.03,14.82-1,29.41-3.24,43.91-6.47,21.77-4.86,42.55-12.46,62.44-22.4,27.97-13.98,52.95-32.19,74.64-54.71,34.68-36,57.88-78.34,69.19-127.08,6.45-27.79,7.02-56.08,6.57-84.41-.06-3.68.91-4.68,4.46-5.36,11.52-2.21,23.07-3.58,34.79-3.37,1.46.03,3.01-.37,5.67,1.41Z"/>
    <path class="cls-3" d="m845.37,599.1c10.15-3.21,20.57-4.14,30.96-5.22,13.15-1.37,26.36-1.3,39.53-.77,11.55.46,22.96,2.11,34.36,4.39,11.18,2.24,22.32,4.41,33.25,7.75,27.16,8.28,52.45,20.35,75.69,36.65,13.87,9.73,27.04,20.32,38.88,32.51,32.28,33.22,55.2,71.84,66.97,116.76,4.59,17.53,7.34,35.39,7.86,53.59.41,14.18.03,28.32-1.01,42.45-.26,3.53.9,5.01,4.47,5.69,11,2.12,22,4.01,33.23,4.28.75.02,1.51-.02,2.25.06,1.15.12,2.75-.03,2.64,1.64-.1,1.44-1.63,1.01-2.57,1.01-4.8-.02-9.64.23-14.39-.28-8.17-.88-16.29-2.28-24.43-3.43-1.64-.23-3.39-.84-2.83-2.66,1.96-6.3-.34-12.47-.21-18.71.5-24.64-1.79-48.99-7.72-73.01-6.48-26.26-16.78-50.88-30.71-74-13.55-22.49-30.04-42.64-49.53-60.18-28.4-25.55-60.58-44.81-96.88-57.12-12.51-4.24-25.2-7.62-38.14-10.11-22.57-4.34-45.38-5.98-68.29-4.61-10.09.6-20.3.84-30.25,3.17-.99.23-2.06.12-3.1.17Z"/>
    <path class="cls-3" d="m1566.98,971.78c5.89-8.27,11.8-16.53,17.65-24.82,15.34-21.74,28.04-44.99,38.88-69.24,14.61-32.69,24.68-66.79,30.64-102.07,3.42-20.22,5.39-40.62,5.7-61.15.1-6.85,1.9-13.68.1-20.55-.48-1.82.61-2.63,2.38-3.03,5.68-1.29,11.25-3.1,16.84-4.68,5.18-1.47,10.32-3.48,15.41-5.42,9.59-3.66,19.09-7.53,28.55-11.53,15.34-6.48,29.98-14.38,44.4-22.67,24.31-13.98,47.03-30.22,68.38-48.4.46-.39.93-.77,1.94-.03-.47,2.18-2.89,3.05-3.94,4.87-5.99,10.31-16.08,16.21-24.96,23.47-10.56,8.63-22.31,15.47-33.95,22.34-12.39,7.31-25.22,13.95-38.41,19.86-10.47,4.69-20.85,9.6-31.69,13.37-13.11,4.56-26.33,8.85-39.78,12.32-2.41.62-3.81,1.5-3.47,4.18,1.75,13.9.64,27.81-.13,41.7-1.06,18.96-3.24,37.79-7.04,56.42-5.24,25.72-12.5,50.83-22.48,75.13-9.92,24.14-21.95,47.18-35.82,69.25-3.82,6.07-7.36,12.52-12.24,17.64-4.85,5.09-10.43,9.78-16.79,13.21,0,0-.16-.16-.16-.16Z"/>
    <path class="cls-3" d="m1264.23,956.73c-164.5,33.84-329.65-97.31-312.54-277.69.42,4.06,1.17,8.12,1.2,12.18.16,22.53,2.7,44.74,8.06,66.65,5.01,20.47,12.3,40.08,22.1,58.7,10.21,19.39,22.53,37.41,37.24,53.69,19.21,21.25,41.11,39.3,66.05,53.46,27.81,15.79,57.37,26.81,89.05,32.05,15.85,2.62,31.8,4.02,47.78,4.06,12.67.03,25.42-.66,37.96-3.08,1-.19,2.07-.03,3.1-.03Z"/>
    <path class="cls-3" d="m2244.85,684.52c.1,84.54,27.97,157.46,92.7,213.38,64.25,55.51,139.53,75.18,223.35,63.21-35.22,7.25-70.56,7.45-105.91.59-35.61-6.91-68.78-20.19-98.39-41.13-81.47-57.61-117.76-136.96-111.75-236.07Z"/>
    <path class="cls-3" d="m2210.89,161.72c7.65,5.22,15.15,10.66,20.6,18.3,22.56,31.62,40.34,65.79,53.36,102.35,9.35,26.26,15.72,53.29,19.75,80.92,3.73,25.62,3.8,51.33,3.33,77.08-.08,4.3.92,6.16,5.4,7.34,35.36,9.33,68.97,22.99,100.84,41,14.49,8.18,28.5,17.05,42.09,26.63,5.39,3.8,8.14,9.53,12.64,15.37-5.25-1.45-8.36-4.47-11.52-7.05-10.59-8.65-22.04-16.01-33.62-23.18-31-19.19-64.06-33.88-98.7-45.11-5.27-1.71-10.61-3.21-15.97-4.62-2.14-.56-3.2-1.56-2.77-3.76,2.04-10.31-.16-20.6-.39-30.88-.28-12.67-1.53-25.35-3.13-37.98-4.56-35.84-13.5-70.5-26.86-104.05-15.06-37.82-35.22-72.72-60.13-104.9-1.82-2.35-4.24-4.27-5.09-7.29,0,0,.17-.17.17-.17Z"/>
    <path class="cls-3" d="m1921.36,182.24c-85.34-15-162.57,3.2-228.84,59.41-66.38,56.32-95.3,130.22-94.55,216.64-2.63-23-2.01-45.69,1.84-68.22,8.37-48.99,29.31-92.08,62.83-128.65,70.58-77.01,171.9-100.21,258.71-79.19Z"/>
    <path class="cls-3" d="m1802.48,167.96c9.22-3.45,18.87-5.13,28.47-5.76,9.83-.65,19.57-2.2,29.48-2.32,36.81-.46,72.49,5.25,106.88,18.45,26.03,9.99,50.01,23.6,71.97,40.89,23.67,18.64,43.54,40.65,59.59,66.04,19.53,30.89,32.37,64.32,37.36,100.68,2.06,15.03,2.9,30.08,2.46,45.22-.1,3.3.52,4.2,4.3,3.78,11.88-1.31,23.84-1.92,35.77-2.81.93-.07,1.99-.14,2.02,1.09.04,1.61-1.37,1.33-2.32,1.32-7.34-.06-14.67-.07-22,.76-5.5.62-11.07.56-16.56,1.24-2.71.34-2.9-.62-2.99-2.81-.88-20.49-2.36-40.91-7.12-60.96-6.45-27.16-16.63-52.78-31-76.76-11.61-19.38-25.36-37.09-41.41-52.93-30.44-30.04-65.96-51.99-106.5-65.87-34.92-11.95-70.84-16.22-107.54-14.41-12.99.64-25.9,2.31-38.66,4.99-.72.15-1.47.12-2.21.17Z"/>
    <path class="cls-3" d="m2250.14,620.35c-18.86-3.96-37.93-5.62-57.05-5.6-28.77.03-56.91,4.67-84.24,13.78-38.97,12.99-73.35,33.5-102.85,62.24-17.36,16.91-32.14,35.7-44.54,56.51-12.68,21.27-22.02,43.87-28.3,67.74-4.12,15.64-6.51,31.59-7.84,47.71-.28,3.35.76,4.69,4.21,5.19,13.76,1.96,27.48,4.2,41,7.54,1.88.47,3.93.78,3.23,3.2-.71,2.49-2.71.95-4.14.61-14.28-3.36-28.64-6.33-43.19-8.28-1.93-.26-2.79-.66-2.81-2.97-.31-39.71,8.92-77.21,26.9-112.45,20.27-39.71,49.02-72.11,86.01-97.2,34.6-23.47,72.67-37.94,113.99-43.58,25.33-3.45,50.76-3.2,76.13.53,7.97,1.17,15.91,2.26,23.49,5.03Z"/>
    <path class="cls-3" d="m1596.88,522.8c-6.73,2.33-13.79,3.3-20.82,4.26-16.53,2.25-33.18,2.62-49.81,1.89-32.35-1.42-63.4-8.69-93.17-21.47-24.15-10.37-46.27-24.1-66.28-41.03-19.66-16.63-36.49-35.84-50.42-57.62-16.07-25.13-27.53-52.1-34.18-81.17-3.76-16.42-5.24-33.06-5.9-49.84-.11-2.87,1.11-3.77,3.42-4.14,14.79-2.35,29.51-5.03,44.04-8.68,1.16-.29,2.47-.86,2.83.97.43,2.2-.91,2.65-2.78,3.1-12.38,2.95-24.87,5.22-37.46,7.03-8.48,1.22-8.34,1.13-7.51,9.99,2.81,29.95,10.62,58.58,23.34,85.75,9.74,20.79,21.94,40.07,36.76,57.78,17.86,21.34,38.35,39.5,61.69,54.54,23.35,15.04,48.41,26.14,75.29,33.27,20.35,5.4,40.96,8.17,61.99,9.2,19.87.98,39.33-1.54,58.97-3.82Z"/>
    <path class="cls-3" d="m1169.01,971.78c19.76,2.75,39.64,3.67,59.52,2.64,33.18-1.72,65.16-9.03,95.79-22.04,22.48-9.55,43.36-21.89,62.53-36.95,20.72-16.27,38.75-35.21,54.08-56.69,21.54-30.18,36.06-63.47,43.75-99.67,3.48-16.39,5.48-33.05,5.89-49.84.08-3.13.37-4.23,4.07-3.93,12.23,1.01,24.46,2.27,36.77,2.05,1.14-.02,2.91-.32,2.94,1.21.03,1.57-1.74,1.35-2.87,1.27-10.14-.71-20.31-1.15-30.4-2.35-8.87-1.06-8.84-1.45-8.81,7.32.13,37.56-7.76,73.42-23.57,107.42-11.17,24.02-25.84,45.79-43.7,65.49-20.13,22.2-43.2,40.61-69.34,55.02-27.2,14.99-56.18,25.13-86.93,30.25-19.13,3.19-38.33,4.76-57.67,4.1-14.13-.48-28.23-1.81-42.06-5.31Z"/>
    <path class="cls-3" d="m2157.46,662.45c8.25-.95,16.48-2.42,24.75-2.75,28.37-1.15,56.2,2.12,83.11,11.64,25.84,9.14,49.11,22.67,69.7,40.81,30.92,27.25,51.25,61.01,61.68,100.74,3.08,11.73,4.6,23.75,5.09,35.91.23,5.67,1.15,11.31-.03,16.98-.48,2.3.83,3.62,2.63,4.69,13.41,7.98,27.28,14.98,42.02,20.19.85.3,1.7.58,2.52.95,1.59.71,1.61,2.12,1.19,3.45-.53,1.67-1.92,1.12-3,.73-6.91-2.49-13.91-4.75-20.65-7.65-7.99-3.43-15.69-7.47-23.27-11.78-2.62-1.49-3.41-3.21-3.4-6.08.12-32.78-7.17-63.86-22.14-93.01-18.67-36.37-45.8-64.88-81.03-85.68-23.91-14.12-49.66-23.2-77.05-27.28-20.06-2.99-40.27-3.41-60.44-.5-.54.08-1.12-.13-1.69-.2,0-.38.01-.76.02-1.14Z"/>
    <path class="cls-3" d="m854.99,659.49c7.61-1.17,15.19-2.5,22.83-3.46,10.13-1.26,20.33-1.21,30.52-.96,15.76.4,31.24,2.83,46.51,6.72,23.59,6.01,45.54,15.88,65.62,29.46,18.05,12.21,33.77,27.15,47.08,44.53,16.05,20.95,27.7,44.03,34.49,69.56,4.73,17.78,6.75,35.83,5.85,54.19-.14,2.89.66,4.7,3.11,6.29,11.48,7.44,23.69,13.39,36.43,18.28,2.51.97,5.05,1.88,7.57,2.82,1.62.61,2.53,1.78,2.04,3.48-.57,2-2.09,1.14-3.32.76-15.97-4.9-31.09-11.71-45.45-20.26-2.04-1.22-3.29-2.39-2.2-4.94,2.08-4.86.3-9.8-.09-14.64-3.51-43.62-18.63-82.76-46.68-116.46-32.2-38.69-73.3-63.09-122.57-73.29-25.43-5.26-51.12-5.57-76.81-1.46-.74.12-1.49.15-2.24.18-.87.03-1.73,0-2.6,0-.03-.28-.07-.55-.1-.83Z"/>
    <path class="cls-3" d="m2146.2,966.85c-8.08-5.88-15.97-11.98-24.12-17.74-30.63-21.66-63.35-39.38-98.4-52.78-10.92-4.18-21.92-8.14-33.19-11.27-3.09-.86-3.89-2.2-3.42-5.46.5-3.48-.35-7.13-.28-10.7.9-44.59,14.66-84.6,42.71-119.52,8-9.96,16.75-19.18,26.6-27.34,1.37-1.13,3.24-3.86,4.54-2.12,1.39,1.86,1.55,5.35-1.04,7.32-5.17,3.92-9.57,8.65-13.98,13.33-28.9,30.73-46.9,66.87-53.7,108.56-1.42,8.73-1.68,17.55-2.66,26.31-.43,3.84,1.39,5.38,4.71,6.26,15.08,3.97,29.72,9.26,44.15,15.13,25.44,10.35,49.7,23.02,72.81,37.86,4.66,2.99,9.16,6.23,13.91,9.08,9.34,5.61,16.36,13.34,21.34,23.09Z"/>
    <path class="cls-3" d="m1493.2,183.43c-5.04,10.8-14.25,17.37-23.85,23.54-22.06,14.17-44.94,26.89-69.07,37.16-17.08,7.27-34.42,13.96-52.46,18.55-3.83.98-6.37,2.05-5.87,7.07,1.91,18.92,4.49,37.67,10.67,55.77,9.06,26.54,22.89,50.23,41.68,71.09,5.02,5.58,10.13,11,15.9,15.79,1.03.86,2.12,1.77,2.83,2.88,1.46,2.29,1.85,5.5.26,7.11-1.76,1.79-2.95-1.51-4.16-2.53-26.46-22.27-45.81-49.63-57.8-82.06-6.63-17.93-10.29-36.5-11.3-55.64-.33-6.26.86-12.53-.43-18.76-.58-2.79,1.72-3.05,3.57-3.63,11.3-3.53,22.53-7.21,33.6-11.43,28.67-10.94,55.92-24.64,81.67-41.31,10.68-6.92,21.26-13.99,31.21-21.96,1.04-.83,2.13-1.69,3.61-1.61l-.04-.04Z"/>
    <path class="cls-3" d="m1427.29,694.34c1.58,2.16,1.87,4.44,1.98,6.8,1.2,25.04-.96,49.68-9,73.58-5.9,17.53-13.77,34.14-24.28,49.38-15.45,22.41-34.37,41.33-57.24,56.27-26.64,17.41-55.72,28.28-87.17,32.76-23.27,3.31-46.5,2.77-69.67-2.08,65.13,7.44,123.72-7.97,173.44-51.27,49.92-43.48,72.7-99.39,71.93-165.45Z"/>
    <path class="cls-3" d="m2074.39,446.93c-1.82-5.17-1.34-10.42-1.41-15.61-.47-33.82-8.18-65.91-24.36-95.62-20.28-37.24-49.34-65.88-86.78-86.02-23.52-12.65-48.56-20.48-74.94-23.71-20.27-2.48-40.64-2-60.89,1.08-.54.08-1.1.01-1.61-.49,43.45-8.88,85.83-5.01,126.73,12.16,41.08,17.24,73.49,44.98,96.6,83.18,23.3,38.5,31.86,80.28,26.65,125.04Z"/>
    <path class="cls-3" d="m1753.58,275.18c1.43,15.21.34,30.05-2.39,44.79-4.77,25.81-15.33,49.36-29.63,71.05-11.21,17.01-25.4,31.65-41.25,44.66-18.71,15.35-39.61,26.65-62.28,34.67-17.25,6.11-35.06,9.85-53.41,11.15-9.59.68-19.18,1.08-28.73.56-11.27-.62-22.58-1.56-33.58-5.06,63.7,10.05,121.99-3.96,172.05-43.8,50.06-39.84,76.23-93.51,79.21-158.03Z"/>
    <path class="cls-3" d="m1889.26,544.24c1.66-4.96,5.68-8.3,8.69-12.29,19.45-25.82,36.08-53.27,49.53-82.71,13.2-28.87,23.02-58.81,29.53-89.84,3.96-18.89,6.48-38,8.01-57.26.51-6.49.28-13.1,2.37-19.47,0,8.31.45,16.65-.11,24.92-.76,11.17-1.69,22.34-3.31,33.44-2.58,17.63-6.14,35.04-10.8,52.23-5.29,19.54-11.91,38.64-20.12,57.11-8.65,19.43-18.58,38.24-30.12,56.16-3.73,5.79-7.73,11.39-11.46,17.17-5.65,8.74-13.9,14.66-22.05,20.71l-.16-.16Z"/>
    <path class="cls-3" d="m1340.74,854.24c-4.59-90.67-32.33-173.13-86.62-246.31,8.68,4.48,15.2,10.87,20.34,19.14,11.16,17.95,21.57,36.29,30.29,55.54,14.02,30.94,24.12,63.13,30.1,96.59,3.74,20.93,6.3,41.95,6.39,63.25.02,3.89,1.28,7.78-.5,11.79Z"/>
    <path class="cls-3" d="m2556.6,623.42c9.23,4.28,14.25,12.46,19.12,20.74,9.27,15.76,17.85,31.9,25.13,48.68,6.08,14.01,11.33,28.35,15.89,42.93,4.64,14.86,8.41,29.96,11.2,45.27,2.95,16.17,5.19,32.43,6.17,48.88.58,9.73.67,19.42.75,29.75-1.86-1.59-1.61-3.21-1.67-4.71-1.87-41.35-8.85-81.74-22.15-121.02-12.13-35.81-28.39-69.54-49.49-100.95-1.95-2.9-4.85-5.42-5.24-9.27l.29-.29Z"/>
    <path class="cls-3" d="m2387.05,862.45c-.08.29-.06,1.27-.52,1.62-.9.69-1.63-.28-2.3-.79-3.21-2.45-6.56-4.75-9.56-7.43-24.55-21.88-43.5-47.69-55.12-78.67-7.04-18.78-11.1-38.14-12.18-58.15-.07-1.24-.68-3.18,1.11-3.39,1.55-.18,1.29,1.68,1.43,2.8,1.71,13.36,3.99,26.6,8.07,39.46,7.01,22.13,17.16,42.67,31.18,61.26,10.13,13.43,21.29,25.85,34.57,36.26,2.21,1.73,3.05,3.96,3.32,7.02Z"/>
    <path class="cls-3" d="m1093.05,859.92c-41.71-23.03-85.49-106.66-77.62-149.14.8,5.16,1.55,10.32,2.4,15.47,5.98,35.94,20.48,68.04,43.67,96.15,8.6,10.42,18.16,19.96,28.64,28.49,3.03,2.46,3.72,5.13,2.91,9.03Z"/>
    <path class="cls-3" d="m1661.3,425.49c-1.21-8.7.14-17.18,1.48-25.69,1.81-11.41,5.68-22.14,9.31-33.07,11.83-35.7,34.16-63.49,62.8-86.87,1.29-1.05,2.98-3.41,4.31-1.94,1.43,1.59.2,4.33-.84,6.26-.59,1.09-2.02,1.71-3.04,2.58-26.83,23-47.54,50.41-60.17,83.61-3.97,10.45-7.51,21.11-9.38,32.1-1.31,7.73-3.49,15.25-4.46,23.03Z"/>
    <path class="cls-3" d="m1800.68,245.65c1.49-.16,2.18.37,2.31,1.68.16,1.62-.6,2.41-2.1,2.94-4.8,1.69-9.61,3.38-14.32,5.31-10.56,4.32-20.42,9.97-30.17,15.85-1,.6-2.34,3.04-3.57.9-1.12-1.96-1.6-4.33,1.37-6.04,7.4-4.26,15-8.11,22.74-11.71,7.21-3.36,14.63-6.12,22.23-8.45.57-.18,1.14-.36,1.5-.48Z"/>
    <path class="cls-3" d="m1274.88,1137.61c.39-1.71,1.96-1.67,3.17-1.81,13.56-1.49,26.81-4.64,40.13-7.42,1.61-.34,3.19-.84,4.8-1.17,1.34-.28,3.13-1.41,3.56,1.02.35,2-1.36,2.45-2.83,2.8-3.49.82-6.99,1.69-10.52,2.31-11.33,1.99-22.68,3.91-34.03,5.78-1.54.25-3.37.62-4.27-1.51Z"/>
    <path class="cls-3" d="m1610.35,705.5c-1.44-.14-3.05.46-3.3-1.18-.31-2.02,1.71-1.88,2.82-2.06,11.63-1.87,23.21-3.99,34.66-6.78.95-.23,2.15-.91,2.48.75.29,1.46-.02,2.6-1.82,2.96-5.26,1.04-10.48,2.31-15.75,3.25-6.45,1.16-12.93,2.08-19.09,3.06Z"/>
    <path class="cls-3" d="m1808,867.72c8.49-.97,16.96-2.06,25.47-2.87,5.49-.52,11.02-.65,16.53-.92.89-.04,1.96,0,2.11,1.15.11.92-.75,1.25-1.51,1.24-14.22-.19-28.33,1.81-42.6,1.4Z"/>
    <path class="cls-3" d="m2461,272.87c13.3.94,26.61,1.87,39.91,2.81-.03.45-.05.9-.08,1.35-13.36.46-26.55-1.95-39.83-2.88v-1.27Z"/>
    <path class="cls-3" d="m2124.35,490.32c-.93.99-2.08.88-3.38.62,1.06-1.1,2.33-.33,3.41-.58,0,0-.04-.05-.04-.05Z"/>
    <path class="cls-3" d="m1633.6,684.55c.35-.31.49-.53.67-.57.28-.06.61-.06.87.04.45.17.42.44-.06.51-.41.06-.84.01-1.48.01Z"/>
    <path class="cls-3" d="m850.42,661.06c.28-.23.42-.43.59-.46.27-.05.58-.05.83.05.44.17.41.41-.06.47-.39.05-.8-.03-1.36-.06Z"/>
    <path class="cls-3" d="m1951.34,888.27c.28.06.78.08.81.2.13.69-.47.42-.76.44-.25.02-.51-.2-.77-.31.24-.11.48-.22.72-.33Z"/>
    <path class="cls-3" d="m993.54,453.99c-.25.05-.49.1-.73.12-.04,0-.1-.17-.15-.25.24-.05.49-.11.73-.13.04,0,.1.17.16.27Z"/>
    <path class="cls-3" d="m1955.43,889.25c.19.11.38.22.57.32-.12.06-.25.2-.34.17-.2-.06-.38-.2-.57-.31.11-.06.23-.12.34-.19Z"/>
    <path class="cls-3" d="m1283.38,1010.81v.31c-.27,0-.54,0-.82,0,0-.1,0-.3,0-.3.27-.02.54-.01.81-.01Z"/>
    <polygon class="cls-3" points="2607 1120.92 2606.68 1120.75 2607.03 1120.64 2607 1120.92"/>
    <path class="cls-3" d="m1178.18,528.97c.36.14.72.28,1.09.43-.08.11-.22.32-.23.31-.32-.2-.63-.42-.94-.63,0,0,.09-.1.09-.1Z"/>
    <polygon class="cls-3" points="1307.84 1117.34 1307.51 1117.16 1307.86 1117.04 1307.84 1117.34"/>
    <path class="cls-3" d="m1889.42,544.4c-.32.28-.63.56-.95.84,0,0-.01-.01-.01-.01.27-.33.54-.66.8-.99,0,0,.16.16.16.16Z"/>
    <path class="cls-3" d="m1493.24,183.47c.04-.1.08-.2.12-.29-.05.09-.11.17-.16.26,0,0,.04.04.04.04Z"/>
    <path class="cls-3" d="m1506.75,1033.96c.12-.12.24-.24.37-.36-.03.08-.03.19-.09.22-.09.06-.21.06-.32.09,0,0,.05.05.05.05Z"/>
    <path class="cls-3" d="m1566.12,972.72c-.04.12-.08.24-.12.37.06-.11.11-.21.17-.32,0,0-.05-.05-.05-.05Z"/>
    <path class="cls-3" d="m1566.17,972.76c.27-.33.54-.66.81-.99,0,0,.16.16.16.16-.34.26-.68.52-1.02.77,0,0,.05.05.05.05Z"/>
    <path class="cls-3" d="m2222.23,1045.88c-.09-.23-.19-.46-.28-.69.22.1.44.2.67.3-.13.13-.25.26-.39.39Z"/>
    <polygon class="cls-3" points="2555.6 622.64 2555.21 622.46 2555.38 622.27 2555.6 622.64"/>
    <path class="cls-3" d="m2556.32,623.71c-.24-.36-.48-.71-.71-1.07.33.26.67.52,1,.79,0,0-.29.29-.29.29Z"/>
    <path class="cls-3" d="m1581.54,90.83c-.17.12-.33.24-.5.36.12-.17.23-.34.35-.51,0,0,.15.15.15.15Z"/>
    <path class="cls-3" d="m2209.92,160.89c.32.28.64.55.97.83,0,0-.17.17-.17.17-.29-.31-.58-.62-.87-.93l.07-.07Z"/>
    <path class="cls-3" d="m2209.85,160.97c-.28-.31-.56-.63-.84-.94l-.05.05c.32.28.64.55.96.83,0,0-.07.07-.07.07Z"/>
    <path class="cls-3" d="m2209,160.02c-.3-.3-.6-.6-.9-.9l-.05.05c.3.3.6.6.9.9,0,0,.05-.05.05-.05Z"/>
    <path class="cls-3" d="m2208.11,159.12c-.11-.07-.22-.13-.34-.2.09.08.19.16.28.25,0,0,.05-.05.05-.05Z"/>
    <polygon class="cls-3" points="1796.62 922.31 1796.39 922.57 1796.66 922.35 1796.62 922.31"/>
    <path class="cls-3" d="m1887.54,546.12l-.2.38c.08-.11.17-.22.25-.33l-.05-.04Z"/>
    <path class="cls-3" d="m1887.59,546.17c.29-.31.58-.62.87-.93,0,0,.01.01.01.01-.31.29-.62.58-.93.88,0,0,.05.04.05.04Z"/>
  </g>
  <rect class="cls-3" width="138.24" height="172.33"/>
  <rect class="cls-2" x="5.76" y="212.21" width="126.72" height="157.97"/>
</svg>