<?xml version="1.0" encoding="UTF-8"?>
<svg id="Layer_1" data-name="Layer 1" xmlns="http://www.w3.org/2000/svg" viewBox="0 0 1920 1080">
  <defs>
    <style>
      .cls-1 {
        fill: #734f31;
      }

      .cls-2 {
        fill: #c0aa8a;
      }
    </style>
  </defs>
  <rect class="cls-1" width="1920" height="1080"/>
  <g>
    <path class="cls-2" d="m1160.12,0c.49,2.77,2.59,1.65,4,1.77,9.07.78,18.02,2.42,26.97,4.05.21.04.36.4.81.92-8.37-.87-16.44-1.66-24.5-2.57-17.46-1.97-34.92-1.8-52.44-.86-13.09.7-26.03,2.47-38.95,4.7-15.26,2.64-30.26,6.48-45.02,11.36-16.37,5.41-32.35,12.02-47.82,19.98-7.69,3.96-15.19,8.33-22.65,12.82-7.56,4.56-14.9,9.52-22.13,14.6-9.2,6.47-17.81,13.91-26.5,21.2-10.15,8.52-19.78,17.63-28.88,27.39-7.93,8.51-14.55,18.33-22.15,27.16-7.56,8.78-13.66,18.67-19.7,28.56-8.95,14.65-17.56,29.51-24.41,45.6-4.83,11.35-9.69,22.67-13.78,34.33-4.29,12.23-7.5,24.89-10.79,37.5-4.42,16.97-6.43,34.35-8.39,51.8-1.82,16.18-2.95,32.36-3.24,48.65-.05,3.02.69,4.54,3.51,5.46,10.95,3.55,22.03,6.32,33.37,7.81,1.45.19,3.66-.13,3.39,2.15-.28,2.37-2.36,1.15-3.73,1.02-11.98-1.11-23.7-3.68-35.27-7.22-2.35-.72-2.98-1.9-2.95-4.39.12-10.34-.05-20.69.1-31.04.5-35.42,6.14-69.9,16.07-103.62,9.61-32.62,23.41-63,40.96-91.4,17.63-28.52,38.63-53.75,62.65-76.14,24.04-22.41,50.42-40.78,79.02-55.34,31.01-15.79,63.48-26.59,97.45-31.83,6.4-.99,12.83-1.76,19.25-2.64,1.14-.16,2.66.32,2.76-1.78h3.31c3.31,1.65,6.63,1.15,9.94,0h38.95c2.49,1.28,4.97,1.59,7.46,0h3.31Z"/>
    <path class="cls-2" d="m147.5,0c6.7,5.82,14.46,9.86,21.45,15.2,16.24,12.4,31.96,25.46,46.61,40.1,22.74,22.73,43.07,47.71,60.52,75.32,15.64,24.75,28.51,51.22,38.98,79.06,9.93,26.42,17.2,53.69,21.88,81.72,2.92,17.5,4.95,35.13,5.52,52.98.32,10.03.51,20.06.5,30.09,0,3,1.06,4.32,3.59,4.97,14.92,3.81,29.48,8.89,43.86,14.62,12.81,5.11,25.31,10.99,37.61,17.44,21.52,11.28,41.88,24.67,61.28,39.77,5.46,4.25,9.22,10.12,12.11,16.66l-.08.1c-6.32-5.02-12.6-10.1-18.96-15.06-29.53-23-61.28-41.51-95.33-55.36-13.71-5.58-27.6-10.5-41.79-14.37-3.41-.93-4.39-2.06-3.94-6.3.98-9.08-.29-18.25-.87-27.36-1.06-16.56-2.83-33.05-5.58-49.4-6.94-41.25-19.12-80.61-36.75-117.89-18.65-39.44-42.32-74.97-71.03-106.62-25.92-28.58-54.71-53-86.55-73.25-.91-.58-2.13-.9-2.13-2.44h9.12Z"/>
    <path class="cls-2" d="m316.55,1080c-.85-7.18-4.72-13.03-7.44-19.34-12.53-29.02-28.37-55.84-46.65-80.95-16.91-23.21-35.89-44.22-56.77-63.31-26.12-23.88-54.48-43.89-85.07-60.21-19.85-10.59-40.45-19.17-61.61-26.12-2.54-.84-3.61-1.86-3.55-4.89.18-8.24.05-16.5.02-24.75-.11-25.42,5.31-49.57,14.46-72.8,9.62-24.44,23.72-45.55,41.35-63.9,2.99-3.11,6.12-6.05,9.28-8.95,1.77-1.62,2.86-1.43,2.93,1.52.06,2.67-.4,4.65-2.43,6.63-17.88,17.52-32.73,37.66-43.39,61.21-9.38,20.71-15.49,42.48-18.12,65.45-1.18,10.26-1,20.61-2.29,30.84-.39,3.12.42,4.77,3.52,5.74,32.32,10.2,63.11,24.26,92.16,42.85,19.03,12.17,37.27,25.53,54.31,40.76,7.91,7.08,13.82,16.29,20.7,24.47,9.88,11.75,20.27,22.93,31.31,33.35,7.62,7.18,13.1,16.14,18.93,24.8,13.37,19.88,24.67,41.15,34.49,63.32,3.51,7.93,7.21,15.83,9.67,24.27h-5.8Z"/>
    <path class="cls-2" d="m1920,629.1c-9.49-1.49-18.35-5.32-27.31-8.73-34.03-12.95-65.93-30.52-95.62-52.77-14.87-11.14-29.16-23.16-42.52-36.32-6.85-6.76-13.17-14.32-19.75-21.44-11.91-12.9-22.04-27.31-32.2-41.7-11.92-16.87-21.65-35.27-30.77-54.07-13.63-28.09-24.03-57.53-31.36-88.24-4.6-19.28-7.84-38.84-9.75-58.67-1.44-14.9-2.37-29.82-2.23-44.8.06-6.56.58-13.11,1.3-19.68.32,5.31.82,10.61.92,15.92.63,34.23,4.92,67.9,12.89,101.03,7.46,30.98,18.02,60.68,31.65,89.03,10.8,22.45,23.52,43.6,37.73,63.72,11.6,16.42,24.37,31.64,37.98,46.07,7.03,7.46,14.57,14.3,22,21.29,12.13,11.41,24.94,21.7,38.31,31.16,32.89,23.28,68.13,41.18,105.87,53.14.92.29,1.89.4,2.83.59v4.5Z"/>
    <path class="cls-2" d="m759.88,1080c6.65-18.65,15.35-36.19,24.79-53.3,14.65-26.56,31.94-50.93,51.56-73.44,27.12-31.13,57.98-56.92,92.18-78.21,34.42-21.42,70.96-36.84,109.6-46.39,20.44-5.05,41.1-8.52,62.07-9.81,9.77-.6,19.54-1.63,29.31-1.42,25.92.57,51.74,2.48,77.23,8.03,1.04.23,2.04.62,3.73,1.13-5.87,1.49-10.76-.51-15.6-1.5-10.46-2.15-21.07-2.25-31.54-3.63-12.83-1.7-25.6-1.57-38.39-1.33-11.81.22-23.59,1.28-35.33,3.23-11.69,1.95-23.56,2.88-35.11,5.61-8.93,2.11-17.95,3.99-26.71,6.76-15.64,4.95-31.05,10.74-46.24,17.22-28.36,12.11-54.73,28.12-79.7,46.93-14.38,10.84-27.82,22.97-40.92,35.6-15.94,15.38-30.26,32.37-43.52,50.39-14.05,19.07-26.52,39.36-37.24,60.88-4.79,9.63-9.51,19.29-13.51,29.35-.5,1.25-1.05,2.45-.87,3.87h-5.8Z"/>
    <path class="cls-2" d="m22.37,0c.34,2.62,2.56,1.94,3.94,2.4,6.72,2.21,13.54,4.02,20.26,6.24,18.78,6.21,36.77,14.47,54.37,23.93,18.71,10.06,36.37,21.89,53.1,35.36,25.17,20.26,47.38,43.83,66.86,70.5,19.33,26.46,34.96,55.22,47.11,86.28,10.4,26.59,17.64,54.16,21.85,82.63,2.77,18.77,4.46,37.7,4.18,56.74-.06,4.19,1.42,5.37,4.86,5.87,9.27,1.34,18.5,3,27.75,4.57,1.64.28,3.16,1.17,2.69,3.19-.45,1.91-2,.81-3.13.6-10.31-1.92-20.61-3.94-30.95-5.68-2.18-.36-2.65-1.18-2.71-3.38-.83-30.33-4.62-60.25-11.84-89.55-12-48.65-32.28-92.95-60.52-132.91-23.46-33.19-51.23-61.42-83-85.05C102.31,35.83,64.24,17.63,23.55,5.71c-5.32-1.56-10.74-2.65-16.12-3.95-1.03-.25-2.32-.04-2.45-1.76h13.26c.83.93,1.66,1.2,2.49,0h1.66Z"/>
    <path class="cls-2" d="m1237.19,0c7.02,2.58,14.06,5.07,21.05,7.76,16.1,6.19,31.74,13.51,46.89,22.14,17.37,9.9,33.9,21.19,49.59,33.94,12.04,9.77,23.31,20.51,34.12,31.86,17.6,18.49,33.23,38.73,46.83,60.81,26.66,43.28,44.11,90.6,52.47,141.87,3.81,23.38,4.99,46.96,4.26,70.66-.12,4.06.47,6.07,4.86,6.63,8.59,1.08,17.19,2.51,25.58,4.97,1.06.31,2.12.63,3.19.93,1.24.35,2.03,1.15,1.64,2.58-.38,1.39-1.54,1.02-2.45.79-10.46-2.66-21.02-4.79-31.62-6.68-1.34-.24-3.09-.4-2.65-2.55,1.45-7.19-.09-14.34-.41-21.44-.69-15.67-2.14-31.29-4.65-46.8-8.05-49.74-24.31-95.99-49.37-138.57-11.77-19.99-25.13-38.57-39.97-56.01-30.83-36.2-66.89-64.59-107.62-86.09-18.38-9.7-37.39-17.78-57.14-23.7-1.88-.56-4.59-.08-5.39-3.1h10.77Z"/>
    <path class="cls-2" d="m946.33,0c-.45,2.37-2.62,2.55-4.05,3.37-21.27,12.21-41.24,26.62-60.06,42.83-21.1,18.17-40.39,38.37-57.69,60.91-16.03,20.89-30.48,42.89-42.73,66.56-19.32,37.33-33.18,77-41.54,118.83-4.11,20.6-6.4,41.51-8.15,62.54-.71,8.56,1.03,13.23,7.79,17.15,7.77,4.51,15.2,9.71,23.45,13.24,1.27.54,2.64,1.08,3.35,2.49.62,1.24.83,2.66.02,3.82-.77,1.11-1.8.2-2.63-.16-11.31-4.92-22.03-11.04-32.23-18.27-2.29-1.62-2.1-3.88-1.72-5.94,1.06-5.81.58-11.65.7-17.47.66-30.86,5.7-60.98,13.23-90.65,6.55-25.78,15.48-50.59,26.57-74.47,13.71-29.55,30.51-56.88,50.11-82.24,25.12-32.48,54.16-60.09,86.79-83.27,9.44-6.71,19.22-12.86,28.84-19.27h9.94Z"/>
    <path class="cls-2" d="m1920,576c-6.74-2.8-13.53-5.38-20.5-7.5-3.21-.97-6.16-3.06-9.33-4.47-15.37-6.86-30.42-14.56-44.54-24.07-29.19-19.67-56.05-42.57-79.25-70.24-26.51-31.63-47.59-67.04-62.95-106.51-10.91-28.03-18.33-57.1-22.6-87.1-1.6-11.22-2.79-22.54-2.86-33.94-.06-10.01-.01-20.03.54-30.09.38,4.98.94,9.95,1.1,14.93,1.07,32.94,6.37,65.13,15.39,96.51,8.3,28.83,19.74,56.24,34.26,82.09,13.83,24.62,29.96,47.31,48.45,67.98,22.7,25.37,48.12,46.99,76.28,64.8,9.5,6.01,19.32,11.24,29.29,16.32,11.98,6.11,24.13,11.52,36.71,15.89v5.4Z"/>
    <path class="cls-2" d="m813.74,1080c3.96-11.26,9.84-21.41,15.59-31.61,16.52-29.34,36.83-55.33,60.05-78.61,19.73-19.78,41.46-36.67,64.86-51,27.66-16.94,56.91-29.58,87.75-37.86,21.31-5.72,42.9-9.26,64.83-10.77,22.38-1.54,44.65-.63,66.87,2.14,8.64,1.07,17.27,2.46,25.66,5.24-4.04.31-8.15-.3-11.87-1.3-9.98-2.69-20.17-2.02-30.2-3.34-10.45-1.38-20.96-1.07-31.42-.67-11.91.46-23.81,1.47-35.65,3.32-9.62,1.5-19.34,2.44-28.83,4.75-6.65,1.62-13.16,4.19-19.76,5.73-9.08,2.13-17.68,5.46-26.42,8.62-11.23,4.07-21.84,9.65-32.59,14.92-8.51,4.18-16.54,9.32-24.77,14.06-30.53,17.6-56.57,41.35-80.49,68.03-14.62,16.31-27.57,34.16-38.96,53.32-5.98,10.05-11.89,20.13-16.95,30.77-.63,1.32-1.35,2.65-1.07,4.25h-6.63Z"/>
    <path class="cls-2" d="m1397.12,0c.94,5.55,4.65,9.42,7.47,13.71,11.78,17.92,24.74,34.78,38.77,50.73,20.57,23.38,43.3,43.88,68.08,61.68,24.92,17.89,51.31,32.82,79.33,44.19,27.29,11.07,55.3,19.21,84.13,24.13,27.51,4.7,55.19,5.38,82.89,4.26,19.37-.79,38.67-3.29,57.69-7.71.23-.05.51.13,1.09.29-1.35,1.74-3.26,1.37-4.77,1.92-1.67.61-3.51.69-5.26,1.06-32.1,6.9-64.57,8.57-97.14,7.13-24.25-1.07-48.22-4.96-71.9-10.93-30.78-7.76-60.33-19.16-88.57-34.47-16.67-9.03-32.71-19.28-48.1-30.75-23.18-17.28-44.47-36.93-63.78-59.08-16.81-19.29-32.03-39.99-45.11-62.48-.66-1.14-1.42-2.23-1.44-3.66h6.63Z"/>
    <path class="cls-2" d="m198.88,0c3.74,8.04,8.8,15.17,13.69,22.36,6.06,8.9,12.19,17.81,19,26.02,9.76,11.77,19.27,23.81,30.27,34.36,8.26,7.92,16.44,15.91,25.06,23.37,16.09,13.94,32.95,26.65,50.84,37.67,23.33,14.38,47.7,26.33,73.14,35.58,20.41,7.42,41.26,13.06,62.51,16.8,20.28,3.57,40.68,5.45,61.27,5.68,20.42.23,40.71-.72,60.93-3.7.64-.09,1.32.11,2.09,1.15-4.56.74-9.12,1.5-13.69,2.22-16.41,2.58-32.98,3.14-49.48,3.26-12.9.1-25.86-.62-38.79-2.04-19.78-2.17-39.3-5.66-58.61-10.7-23.95-6.25-47.11-14.9-69.58-25.82-28.08-13.65-54.35-30.64-78.79-50.91-26.99-22.38-51-48.07-71.93-77.15-7.74-10.76-14.89-21.94-21.77-33.35-.88-1.46-2.21-2.78-1.94-4.82h5.8Z"/>
    <path class="cls-2" d="m0,54.9c24.43,5.33,47.79,14.08,70.32,25.58,33.79,17.25,63.37,40.68,89.16,70.07,30.98,35.3,53.42,75.91,67.07,122.37,6.48,22.06,10.41,44.56,12.27,67.59.59,7.35.67,14.66.62,21.98-.02,3.01.92,3.96,3.59,3.83,11.18-.55,22.32.67,33.48.97,1.37.04,3.57-.59,3.38,1.96-.16,2.12-2.17,1.47-3.4,1.28-10.55-1.67-21.16-1.63-31.78-1.68-5.69-.03-5.46-.07-6.14-6.34-2.18-20.04-3.94-40.13-8.36-59.83-10.8-48.09-30.53-91.25-59.38-129.6-25.83-34.34-56.84-61.7-92.73-82.68-23.33-13.63-47.9-23.68-73.61-30.52C3,59.5,1.53,59.21,0,59.4v-4.5Z"/>
    <path class="cls-2" d="m1070.65,861.32c7.41-3.05,15.3-3.31,23.01-4.4,14.22-2.01,28.59-2.5,42.87-2.48,11.08.02,22.24.67,33.36,1.9,11.03,1.22,22.01,2.94,32.97,4.54,9.03,1.31,17.76,4.84,26.7,7.01,12.38,3.02,24.33,7.6,36.27,12.07,5.09,1.91,10.13,4.52,15.13,6.97,17.03,8.32,33.59,17.61,49.39,28.48,17.71,12.19,34.25,25.98,49.85,41.19,15.65,15.26,29.64,32.15,42.54,50.1,10.31,14.34,19.33,29.65,27.47,45.57,4.6,9,9.09,18.05,12.37,27.74h-5.8c-.15-5.03-2.9-8.98-4.92-13.14-17.82-36.7-40.29-69.69-67.75-98.54-23.8-25.01-50.28-46.1-79.4-63.32-24.83-14.68-50.88-25.97-78.1-34.08-18.87-5.62-38.06-9.39-57.56-11.69-16.9-2-33.8-2.93-50.74-2.3-14.02.52-28.03,1.63-41.91,4.04-1.89.33-3.85.22-5.78.31l.04.04Z"/>
    <path class="cls-2" d="m1920,513.9c-7.3-1.37-13.76-5.23-20.33-8.56-26.42-13.38-50.47-30.7-72.2-51.85-38.77-37.74-66.37-83.4-82.51-137.16-6.47-21.55-10.42-43.65-12.39-66.24-.98-11.24-.02-22.47-.95-33.65-.23-2.73,1.43-2.09,2.63-2.08,8.56.04,17.1-.3,25.63-1.01,3.29-.28,6.58-.64,9.88-.84.98-.06,2.51-.5,2.52,1.34,0,1.45-1.33,1.24-2.23,1.36-8.48,1.13-17,1.69-25.55,1.67-2.62,0-5.25.1-7.87-.02-2.27-.1-3.22.8-3.19,3.37.19,13.18,1.27,26.28,3.19,39.28,2.66,18.05,6.62,35.77,11.9,53.13,4.94,16.23,11.22,31.87,18.49,47.03,6.18,12.89,13.29,25.16,21.07,36.97,14.84,22.51,32.03,42.64,51.6,60.39,16.56,15.02,34.35,28.06,53.47,38.88,7.33,4.15,14.93,7.73,22.45,11.47,1.34.67,2.78,1.4,4.38,1.12v5.4Z"/>
    <path class="cls-2" d="m0,758.7c1.66-7.22,3.21-14.47,5.01-21.65,5.86-23.43,14.77-45.43,26.57-66.05,9.5-16.6,20.4-32.06,33.19-45.77,37.18-39.86,81.39-64.98,133.05-74.67,19.32-3.62,38.7-3.97,58.12-3.14,11.66.5,23.3,2.17,34.71,5.13.72.19,1.74-.17,2.21,1.46-9.35-1.7-18.54-3.03-27.79-3.84-13.91-1.21-27.77-1.05-41.65.23-14.86,1.37-29.48,4.21-43.8,8.62-24.41,7.51-47.38,18.54-68.77,33.51-16.08,11.25-30.89,24.11-43.97,39.22-16.87,19.48-31.15,40.95-42.29,64.94-11.47,24.69-18.83,50.67-22.91,77.86-.19,1.25.19,2.87-1.66,3.06v-18.9Z"/>
    <path class="cls-2" d="m263.51,1080c-4.47-11.66-10.6-22.33-16.66-33.04-12.38-21.91-27.02-41.89-43.2-60.65-27.82-32.25-59.89-58.28-95.88-78.77-29.88-17.01-61.38-29.09-94.35-36.67C9,869.85,4.6,868.46,0,868.5v-3.6c16.57,2.27,32.76,6.5,48.76,11.54,22.03,6.95,43.17,16.36,63.52,27.84,24.28,13.7,46.93,29.99,67.75,49.36,25.4,23.62,47.37,50.48,65.81,80.73,8.07,13.23,15.28,27.03,21.54,41.4.59,1.35,1.4,2.61,1.1,4.23h-4.97Z"/>
    <path class="cls-2" d="m258.54,0c4.19,7.26,9.6,13.49,14.74,19.9,16.81,20.94,35.84,39.35,56.39,55.82,28.79,23.08,60.3,40.58,94.1,53.41,21.28,8.07,43.05,13.7,65.27,17.29,10.33,1.67,20.77,2.54,31.22,3.24,9.79.66,19.57.72,29.34.6,16.91-.22,33.71-2.18,50.48-4.59-4.86,2.25-10.08,2.77-15.19,3.53-19.4,2.9-38.91,4.21-58.49,3.73-32.54-.81-64.44-6.14-95.62-16.33-33.38-10.9-64.66-26.8-93.63-47.8-28.25-20.48-53.54-44.65-74.98-73.41-2.95-3.95-5.93-7.87-8.92-11.79-.8-1.05-1.63-2.07-1.34-3.59h6.63Z"/>
    <path class="cls-2" d="m837.77,0c-3.14,7.43-8.34,13.29-12.81,19.69-11.37,16.27-24.36,30.97-38.09,44.86-19.43,19.66-40.8,36.55-63.88,50.82-21.37,13.22-43.61,24.47-67.03,32.69-22.82,8-46.1,13.93-70.01,16.8-11.78,1.41-23.57,2.14-35.4,2.77-26.71,1.41-53-1.91-79.23-6.69-.32-.06-.58-.45-1.63-1.31,6.39.93,11.89,1.82,17.41,2.51,7.52.94,15.04,1.98,22.58,2.53,45.01,3.3,89.19-2.13,132.3-16.41,38-12.59,73.27-31.37,105.64-56.62,18.67-14.57,35.98-30.73,51.8-48.77,11.22-12.79,21.74-26.27,31.02-40.82.37-.58.47-1.36.7-2.05h6.63Z"/>
    <path class="cls-2" d="m1456.78,0c1.4,3.66,4.06,6.29,6.33,9.25,7.49,9.76,15.4,19.06,23.8,27.95,9.69,10.25,19.84,19.84,30.4,28.96,14.81,12.79,30.57,24.12,47.18,33.85,23.47,13.74,48.05,24.64,73.75,32.66,15.28,4.77,30.79,8.09,46.38,10.97,9.88,1.82,19.94,2.58,29.99,3.17,7.99.47,15.97.86,23.97.78,22.07-.22,43.99-2.06,65.63-6.96.65-.15,1.34-.08,2.16.68-4.84,1.12-9.65,2.49-14.53,3.31-22.09,3.74-44.31,6-66.68,5.58-42.42-.81-83.55-9.05-123.21-25.61-31.37-13.11-60.47-30.66-87.21-52.76-23.7-19.6-44.72-42.22-63.22-67.57-.91-1.24-2.09-2.45-2.19-4.24h7.46Z"/>
    <path class="cls-2" d="m875.06,1080c4.68-10.25,11.1-19.24,17.47-28.25,8.4-11.89,17.47-23.18,27.5-33.5,11.58-11.91,23.8-22.94,36.85-32.93,23.51-17.99,48.9-31.9,76.15-41.73,24.15-8.71,48.91-14.1,74.39-15.87,24.6-1.7,49.01-.69,73.3,3.81,1.61.3,3.2.73,4.76,1.4-5.51.51-10.91-.85-16.29-1.61-13.73-1.95-27.51-1.9-41.28-1.66-24.19.41-47.92,4.28-71.32,11.1-32.4,9.43-62.33,24.58-90.14,44.72-10.85,7.85-20.78,17.07-30.85,26.11-11.57,10.4-21.01,22.84-31.17,34.58-5.97,6.91-11.04,14.86-15.79,22.85-2.23,3.74-5.54,6.67-6.95,10.98h-6.63Z"/>
    <path class="cls-2" d="m0,113.4c7.59.95,14.69,3.83,21.83,6.53,19.48,7.37,37.77,17.36,55.17,29.4,18.65,12.91,34.83,28.92,49.64,46.54,11.92,14.18,21.95,29.95,30.62,46.73,12.31,23.85,20.61,49.26,25.42,76.05,2.83,15.76,4.26,31.67,3.78,47.74-.11,3.53.52,4.43,4.19,3.88,10.35-1.56,20.75-2.89,31.23-3.09,1.25-.02,2.67-.5,4.56,1.41-14.16.84-27.54,1.49-41.16,4.15-2.2-67.72-23.82-127.66-66.81-177.81C85.85,156.88,46.06,131.21,0,117v-3.6Z"/>
    <path class="cls-2" d="m1396.29,1080c-3.13-8.74-8.4-16.11-13.27-23.66-12.77-19.78-27.34-37.92-43.83-54.18-18.13-17.88-37.89-33.35-59.36-46.15-26.03-15.52-53.56-26.79-82.56-33.72-15.48-3.7-31.12-6.09-46.97-7.24-10.63-.77-21.23-.87-31.83-.59-12.94.33-25.82,1.77-38.63,3.84-.36.06-.75-.07-1.19-.57,4.6-1.11,9.16-2.87,13.81-3.21,17.99-1.3,35.94-3.98,54.02-2.69,19.33,1.37,38.55,3.74,57.5,8.38,21.15,5.17,41.71,12.28,61.33,22.27,21.06,10.73,40.86,23.72,59.35,39.2,16.34,13.69,30.82,29.36,44.52,45.98,12.25,14.86,22.19,31.55,31.58,48.63.62,1.13.91,2.47,1.35,3.72-1.93,0-3.87,0-5.8,0Z"/>
    <path class="cls-2" d="m1920,452.7c-10.73-4.89-20.61-11.45-30.23-18.46-16.33-11.89-31.11-25.85-44.3-41.66-17.73-21.24-31.84-45.07-42.25-71.48-7.97-20.23-13.17-41.27-16.33-62.93-2.16-14.84-2.06-29.83-2-44.82.01-3.55,2.47-3.21,4.3-3.46,11.22-1.54,22.28-3.93,33.32-6.52,1.75-.41,3.46-1.04,5.22-1.4,1.25-.26,2.93-1.18,3.42,1.03.44,1.97-1.07,2.58-2.46,2.9-5.66,1.29-11.3,2.68-17,3.72-7.59,1.39-15.22,2.59-22.86,3.65-2.54.35-2.33,2.11-2.22,3.87.58,8.94.87,17.93,1.92,26.81,2.54,21.58,7.3,42.59,14.69,62.87,9.14,25.11,21.29,48.34,36.87,69.35,17.95,24.2,39.01,44.7,63.48,60.9,5.26,3.48,10.47,7.21,16.42,9.32v6.3Z"/>
    <path class="cls-2" d="m0,619.2c11.04-15.58,23.13-30.15,36.45-43.44,6.07-6.06,12.39-11.82,18.93-17.32,22.37-18.85,46.62-34.07,72.97-45.32,23.19-9.9,47.15-16.46,71.87-20.07,17.99-2.63,36.02-3.09,54.07-2.34,15.91.66,31.76,2.59,47.18,7.55-4.54-.78-9.08-1.63-13.63-2.34-18.34-2.88-36.81-3.37-55.28-2.68-31.07,1.16-61.17,7.95-90.39,19.45-17.01,6.7-33.42,14.79-48.95,24.84-18.09,11.71-34.94,25.27-50.82,40.33-11.57,10.96-21.37,23.63-31.41,36.1-2.25,2.79-4.05,5.99-6.09,8.98-1.29,1.89-2.45,3.99-4.9,4.35v-8.1Z"/>
    <path class="cls-2" d="m1920,702c-2.3.19-1.8,2.45-2.12,3.8-5.63,23.92-15.03,46.03-28.22,66.03-17.52,26.57-39.81,47.43-66.55,62.59-20.23,11.46-41.65,18.9-64.24,22.21-16.56,2.43-33.16,2.84-49.83.48-6.13-.87-12.22-1.7-18.19-3.78,5.41.62,10.83,1.12,16.22,1.89,10.32,1.47,20.69,1.12,31,.51,17.54-1.05,34.64-4.98,51.3-11.13,23.52-8.69,44.66-21.83,63.6-39.29,26.35-24.29,45.36-54.07,57.06-89.35,3.89-11.71,6.4-23.82,8.31-36.08.19-1.23-.23-2.88,1.64-3.06v21.6c-.56.3-.69.6,0,.9v2.7Z"/>
    <path class="cls-2" d="m0,532.8c8.99-8.14,17.75-16.58,27.2-24.11,40.82-32.55,85.84-55.06,135.36-66.77,18.47-4.37,37.12-7.02,56.01-8.29,19.07-1.29,38.04-.62,57,1.2,13.17,1.26,26.21,3.63,39.16,6.53.97.22,2.19.25,3.11,1.74-6.46-1.12-12.62-2.09-18.75-3.27-8.82-1.7-17.74-2.36-26.64-3.27-11.68-1.19-23.42-1.15-35.14-.92-27.37.54-54.27,4.77-80.79,12.07-24.13,6.65-47.39,15.99-69.68,27.87-24.07,12.82-46.39,28.79-67.23,47.15-5.46,4.81-10.89,9.66-15.69,15.27-1.05,1.23-2.16,2.37-3.92,1.99v-7.2Z"/>
    <path class="cls-2" d="m0,465.3c9.16-6.39,18.01-13.27,27.3-19.46,24.78-16.54,50.92-29.84,78.37-40.28,22.97-8.74,46.49-14.94,70.46-19.22,28.98-5.17,58.22-5.89,87.45-4.44,20.76,1.03,41.38,4.15,61.73,8.96.65.15,1.25.51,1.75,1.4-2.85-.55-5.69-1.11-8.54-1.63-20.79-3.81-41.69-5.93-62.8-6.64-15.06-.51-30.04.15-44.96,1.44-20.72,1.8-41.21,5.52-61.45,10.86-28.91,7.64-56.7,18.64-83.38,32.84-21.8,11.6-42.63,25.07-62,41.07C2.77,471.16,1.67,472.47,0,472.5v-7.2Z"/>
    <path class="cls-2" d="m201.36,1080c.25-3.17-1.87-5.23-3.25-7.51-10.73-17.81-22.78-34.45-36.41-49.83-29.18-32.92-63.22-58.06-101.78-76.04-18.13-8.46-36.95-14.74-56.24-19.3-1.19-.28-2.46-.22-3.69-.32,0-1.2,0-2.4,0-3.6,9.42.65,18.39,3.64,27.42,6.24,29.4,8.48,56.8,21.96,82.47,39.59,15.51,10.66,29.98,22.79,43.45,36.4,17.85,18.04,33.58,37.96,46.9,60.12,2.77,4.61,5.83,9.08,7.76,14.25h-6.63Z"/>
    <path class="cls-2" d="m1920,171.9c-6.62,1.7-12.44,5.53-18.6,8.43-15.72,7.39-31.77,13.69-48.26,18.7-1.33.4-2.61,1.03-3.96,1.3-2.97.61-3.88,2.35-3.83,5.67.6,35.86,7.02,70.19,22.97,101.89,10.24,20.36,23.09,38.62,39.23,53.99,2.83,2.69,2.31,5.94,1.27,9.7-22.27-20.31-39.35-44.34-50.86-72.97-8.59-21.36-13.31-43.63-14.42-66.95-.42-8.72-.12-17.34.16-26.01.25-7.92.1-7.96,7.17-10.31,22.46-7.47,44.29-16.66,65.33-28.05,1.23-.66,2.54-1.13,3.81-1.69v6.3Z"/>
    <path class="cls-2" d="m768.99,0c-.87,3.69-3.73,5.84-5.88,8.42-7.6,9.12-16.08,17.26-24.76,25.14-19.34,17.57-40.47,32.12-63.2,43.97-27.4,14.29-56.09,23.95-86.17,28.84-17.75,2.88-35.57,4.62-53.51,4.23-20.4-.44-40.63-2.91-60.63-7.39-.51-.12-.98-.47-1.38-1.22,5.28.87,10.56,1.8,15.85,2.61,21.77,3.29,43.58,4.31,65.56,2.74,20.85-1.5,41.33-5.08,61.46-11.01,36.99-10.88,71-28.52,101.99-53.09,11.73-9.3,22.55-19.7,33.24-30.3,3.96-3.93,7.58-8.25,10.8-12.94h6.63Z"/>
    <path class="cls-2" d="m331.46,0c-.09,2.16,1.55,3.08,2.69,4.27,17.24,18.09,36.58,33.1,57.38,45.93,26.79,16.53,55.21,28.5,85.35,35.5,13.32,3.1,26.81,4.96,40.4,6.24,12.14,1.14,24.26.91,36.38.68,13.76-.25,27.46-1.73,40.95-4.96.63-.15,1.3-.11,2,.19-4.72,2.47-9.91,2.87-14.92,3.72-22.82,3.87-45.75,4.72-68.82,3.09-25.6-1.81-50.54-7.09-74.8-15.93-23.49-8.55-45.73-20.08-66.58-34.74-16.61-11.67-31.99-24.98-46.3-39.78-1.16-1.2-2.72-2.17-2.85-4.23h9.12Z"/>
    <path class="cls-2" d="m0,177.3c16.91,6.28,32.88,14.76,47.63,25.65,21.79,16.1,40.11,36.18,53.95,60.54,14.26,25.1,23.44,52.32,26.19,81.93,1.14,12.26.69,24.48.62,36.73,0,1.65-.25,3.23-1.3,4.69-.63-10.28-1.18-20.41-1.89-30.52-1.62-22.96-7.52-44.72-16.35-65.53-10.82-25.49-26.05-47.57-45.19-66.39C44.96,206.03,23.86,191.85,0,182.7v-5.4Z"/>
    <path class="cls-2" d="m1529.7,0c1.79,5.28,6.39,7.67,9.94,11,15.59,14.6,32.48,27.25,50.48,38.08,17.75,10.68,36.27,19.39,55.7,25.93,15.56,5.24,31.32,9.43,47.43,11.86,20.79,3.14,41.66,3.97,62.66,2.55,11.54-.78,22.95-2.61,34.45-3.71-8.28,3.04-16.96,3.85-25.52,4.97-14.66,1.92-29.43,2.44-44.2,1.94-34.05-1.14-67.01-8.22-98.83-21.49-25.78-10.75-49.77-25.07-71.86-43.08-9.15-7.46-18.17-15.14-26.15-24.12-1-1.13-2.59-1.92-2.4-3.94h8.29Z"/>
    <path class="cls-2" d="m1332.48,1080c-.26-3.81-3.1-5.96-5.05-8.48-37.17-48-83.88-79.3-140.1-93.76-24.61-6.33-49.61-7.87-74.76-6.54-10.28.54-20.55,1.9-30.68,4.12-.64.14-1.33.02-2.03-.21,7.51-2.49,15.26-3.7,22.98-4.76,14.79-2.04,29.69-2.67,44.57-1.83,20.81,1.18,41.33,4.62,61.36,11.08,22.99,7.42,44.71,17.97,64.86,32.1,22.5,15.77,42.38,34.8,58.96,57.73,2.4,3.32,6.15,5.73,6.53,10.55h-6.63Z"/>
    <path class="cls-2" d="m939.7,1080c3.91-6.57,9.44-11.53,14.29-17.18,12.77-14.88,27.22-27.43,42.98-38.24,29.29-20.1,61.1-32.81,95.4-38.39,11.9-1.94,23.86-2.97,35.79-3.01,11.92-.04,23.92.45,35.76,2.92,4.15.87,8.41,1.1,12.43,3.05-5.3-.73-10.58-1.66-15.9-2.17-11.52-1.09-23-1.8-34.63-.95-12.79.94-25.5,2.03-38.09,4.8-20.07,4.41-39.38,11.18-57.89,20.75-15.1,7.81-29.45,16.92-42.81,27.86-11.33,9.27-22.19,19.11-31.59,30.74-2.59,3.2-6.04,5.58-7.46,9.82h-8.29Z"/>
    <path class="cls-2" d="m1920,831.6c-2.03-.06-2.78,1.91-3.8,3.14-11.82,14.18-25.46,25.94-39.77,37.01-29.41,22.74-62.12,36.7-97.29,44.15-19.94,4.23-40.19,5.71-60.5,4.65-11.81-.61-23.55-2.45-35.23-4.51-.93-.16-1.81-.62-2.63-1.5,4.09.58,8.16,1.24,12.26,1.73,20.2,2.42,40.39,2.55,60.63.23,21.24-2.44,41.82-7.83,61.79-15.83,16.87-6.76,32.88-15.52,48.06-26.04,20.35-14.11,38.49-31.02,54.41-50.74.57-.7,1.17-1.27,2.08-1.29v9Z"/>
    <path class="cls-2" d="m1920,909c-2.6.42-4.4,2.45-6.33,4.02-19.45,15.76-40.52,28.51-62.84,38.59-24.61,11.12-50.26,18.49-76.76,22.31-15.73,2.27-31.52,3.73-47.36,3.29-18.02-.51-36.01-1.88-53.71-6.04-.5-.12-.99-.29-1.39-1.02,8.19,1.03,16.36,2.12,24.56,3.06,15.39,1.77,30.78,1.89,46.24.93,14.75-.92,29.37-2.72,43.82-5.89,47.7-10.44,90.93-31.67,129.49-63.97,1.3-1.08,2.44-2.48,4.27-2.48v7.2Z"/>
    <path class="cls-2" d="m1920,44.1c-2.85-.21-4.36,2.32-6.34,3.8-22.03,16.45-45.59,29.62-70.7,39.65-16.22,6.48-32.89,10.99-49.75,14.72-8.34,1.84-16.86,2.98-25.35,3.77-11.94,1.12-23.91,2.19-35.91,1.82-19.01-.59-37.91-2.42-56.58-6.51-.22-.05-.38-.38-1.07-1.1,3.25.36,5.98.51,8.66.98,21.58,3.76,43.24,4.86,65.09,3.44,22.38-1.45,44.34-5.23,65.93-11.71,30.95-9.29,59.95-23.28,86.73-42.56,5.51-3.97,10.89-8.17,16.29-12.32.93-.71,1.79-1.41,3-1.17v7.2Z"/>
    <path class="cls-2" d="m1920,979.2c-2.12-.34-3.71,1.04-5.34,2.07-21.13,13.45-43.3,24.43-66.55,32.76-23.59,8.46-47.71,14.23-72.39,17.59-21.85,2.97-43.75,3.13-65.64,2.25-16.88-.68-33.67-3.14-50.25-6.92-.5-.11-1.01-.22-1.48-.55,4.88-.66,9.53,1,14.26,1.7,11.47,1.7,22.99,2.57,34.52,3.5,13.38,1.08,26.73.61,40.08-.22,22.46-1.38,44.6-5.11,66.46-10.99,25.53-6.87,50.12-16.47,73.68-29.16,9.76-5.26,19.39-10.78,28.62-17.08,1.29-.88,2.49-1.9,4.04-2.17v7.2Z"/>
    <path class="cls-2" d="m1920,112.5c-9.97,5.41-19.85,11.06-29.94,16.19-29.25,14.86-59.88,24.81-91.72,30.81-26.93,5.07-54,6.01-81.17,5.07-16.65-.58-33.15-3.13-49.54-6.36-.47-.09-.88-.52-1.24-1.06,12.54,1.93,25.06,3.8,37.64,4.47,13.47.71,26.94,1.9,40.5.77,10.44-.87,20.87-1.52,31.29-2.82,26.42-3.31,52.08-10.03,77.13-19.59,22.31-8.52,43.76-19.11,64.04-32.41.92-.61,2.01-.92,3.02-1.37v6.3Z"/>
    <path class="cls-2" d="m803.77,972.88c-4.9,9.45-11.11,17.41-19.41,23.81-23.91,18.42-49.13,34.3-75.9,47.21-17.12,8.25-34.72,15.22-52.83,20.48-2.95.86-3.75,2.27-3.57,5.29.21,3.43.08,6.89.09,10.34-.55,0-1.1,0-1.66,0-.48-5.19.81-10.44-.55-15.63-.63-2.4,1.12-3.03,2.81-3.53,13.84-4.1,27.28-9.48,40.53-15.38,23.51-10.47,45.94-23.18,67.23-38.29,14.54-10.32,28.71-21.15,41.78-33.6.38-.36,1-.44,1.51-.65l-.04-.05Z"/>
    <path class="cls-2" d="m137.56,1080c-1.13-3.15-3.38-5.47-5.36-7.89-29.09-35.74-64.03-62.29-105.35-78.73C18.06,989.88,9.16,986.76,0,984.6v-3.6c7.13.24,13.75,3.05,20.41,5.3,24.47,8.26,47.44,20.1,68.53,35.92,20.39,15.29,38.57,33.28,53.73,54.7.67.94,1.56,1.74,1.52,3.08h-6.63Z"/>
    <path class="cls-2" d="m0,425.7c1.73-.8,2.06-2.72,2.81-4.27,17.94-37.27,30.87-76.45,38.17-117.79,3.06-17.35,4.88-34.86,6.41-52.43.65-7.41.32-14.91,2.14-22.23,0,9.61.49,19.25-.12,28.81-.83,12.95-2.19,25.89-3.9,38.74-2.51,18.81-6.46,37.3-11.52,55.51-4.82,17.35-10.35,34.41-17.32,50.88-4.32,10.19-9.01,20.19-13.66,30.21-.62,1.34-1.15,3.16-3.01,3.37v-10.8Z"/>
    <path class="cls-2" d="m691.1,0c-2.15,4.48-6.39,6.31-9.94,8.85-17.45,12.49-36.08,22.49-55.83,29.89-15.51,5.81-31.4,10.06-47.67,12.54-16.42,2.51-32.93,3.39-49.47,2.57-14.53-.71-28.97-2.65-43.1-6.77,6.95.9,13.91,1.77,20.86,2.72,16.34,2.22,32.69,2.01,49.1.84,20.47-1.47,40.35-6.03,59.82-12.83,23.65-8.26,45.62-20.28,66.12-35.48.78-.58,1.62-1.18,1.83-2.33h8.29Z"/>
    <path class="cls-2" d="m1883.54,0c-2.92,4.8-7.73,7.07-11.96,9.85-24.82,16.33-51.28,28.45-79.74,35.02-12.65,2.92-25.47,4.64-38.41,5.73-12.85,1.08-25.64.76-38.4-.28-10.1-.82-20.24-1.95-30.04-5.36,5.76.69,11.52,1.39,17.28,2.08,18.7,2.24,37.36,2.25,56.11.06,24.31-2.84,47.71-9.31,70.3-19.29,14.86-6.57,28.99-14.7,42.42-24.22,1.28-.91,3.21-1.33,3.32-3.6h9.12Z"/>
    <path class="cls-2" d="m1252.93,1080c-17.32-15.76-36.98-26.93-58.18-35.17-25.97-10.08-52.79-13.2-80.14-11.52-8.2.5-16.34,2.14-24.53,3.11,7.76-2.8,15.84-3.85,23.9-4.94,9.59-1.3,19.26-1.26,28.9-.96,31.69.96,61.3,10.08,89.06,26.7,9.82,5.88,18.9,12.82,27.62,20.4.74.64,1.69,1.11,1.66,2.38h-8.29Z"/>
    <path class="cls-2" d="m417.64,0c.19,2.11,1.98,2.32,3.23,3.05,23.17,13.65,47.57,23.63,73.55,28.77,10.55,2.09,21.2,3.3,31.89,4.34,15.85,1.54,31.54-.17,47.32-1.22-3.63,2.23-7.76,2.16-11.64,2.56-28.53,2.9-56.83,1.81-84.86-5.54-23.77-6.23-46.19-15.88-67.33-29.13-1.13-.71-2.72-.96-2.92-2.84h10.77Z"/>
    <path class="cls-2" d="m1619.2,0c-.07,2.43,1.87,2.75,3.26,3.51,26.41,14.54,54.12,24.44,83.66,28.13,10.96,1.37,21.95,2.59,32.93,2.28,11.94-.34,23.95-.67,35.75-3.2.78-.17,1.62-.02,2.46.23-7.19,2.26-14.6,3.17-21.99,4.03-12.51,1.46-25.09,1.46-37.63.91-22.56-.99-44.58-5.53-66-13.35-14.15-5.17-27.89-11.35-40.84-19.46-1.23-.77-3.03-.97-3.2-3.09h11.6Z"/>
    <path class="cls-2" d="m1462.7,984.45c8.44,5.33,14.47,13.03,19.46,22.06,12.44,22.51,23.83,45.56,32.65,70.04.39,1.09.54,2.29.8,3.44-1.66,0-3.31,0-4.97,0-5.51-16.34-12.9-31.73-20.54-46.96-7.98-15.91-17.08-31.07-26.89-45.72-.46-.69-.59-1.64-.87-2.48.12-.13.24-.26.36-.39Z"/>
    <path class="cls-2" d="m1920,1038.6c-5.09.62-9.18,3.97-13.6,6.22-17.38,8.86-35.36,15.96-53.68,22.05-2.78.92-3.66,2.34-2.94,5.09.69,2.66.51,5.35.62,8.03-.83,0-1.66,0-2.49,0,.04-4.04.28-8.1.04-12.13-.18-2.96.78-4.25,3.34-5.11,17.92-6.04,35.32-13.56,52.31-22.19,5.46-2.77,10.49-6.54,16.4-8.27v6.3Z"/>
    <path class="cls-2" d="m1355.68,0c-.03,1.9,1.41,2.39,2.56,3.15,12.09,8.09,23.48,17.26,34.78,26.55,5.2,4.27,8.03,10.96,12.3,16.23,1.15,1.43,2.16,3,3.95,5.51-4.18-1.77-6.16-4.7-8.51-6.89-16.35-15.19-33.57-29.06-51.91-41.28-1.2-.8-2.91-1.25-3.1-3.27h9.94Z"/>
    <path class="cls-2" d="m53.03,1080c.27-2.04-1.19-3.07-2.37-3.87C34.67,1065.25,18.29,1055.17,0,1049.4v-4.5c13.8,3.03,26.25,9.76,38.62,16.66,7.84,4.37,15.13,9.74,22.22,15.42.99.79,2.21,1.36,2.14,3.02h-9.94Z"/>
    <path class="cls-2" d="m1030.02,1080c-.88-2.42-.43-4.03,1.85-5.46,12.88-8.14,26.22-15.12,40.52-19.8,1.27-.42,3.02-1.96,3.91.34.99,2.56-.94,3.33-2.69,3.99-12.37,4.65-24.21,10.53-35.43,17.87-1.4.91-2.68,2.04-4.02,3.06-1.38,0-2.76,0-4.14,0Z"/>
    <path class="cls-2" d="m1088.86,1080c0-8.97.04-17.94-.07-26.92-.03-2.4.68-3.23,2.91-3.78,11.59-2.84,23.41-3.24,35.18-4.19,1.18-.1,2.92-.32,2.9,1.52-.02,2.12-1.92,1.74-3.21,1.75-11.05.06-21.86,2.03-32.65,4.43-2.91.65-3.5,2.02-3.43,4.82.17,7.46,1.31,14.88.84,22.36-.83,0-1.66,0-2.49,0Z"/>
    <path class="cls-2" d="m872.51,29.64c3.54-6.02,7.12-12.01,10.6-18.07,2.16-3.76,4.77-7.26,6.04-11.57h5.8c-1.05,6.39-5.5,10.79-8.08,16.29-3.06,6.52-8.59,10.11-14.22,13.51l-.14-.15Z"/>
    <path class="cls-2" d="m0,812.7c10.22.31,20.09,3.12,30.06,5.13,3.64.73,7.19,1.97,10.82,2.8,1.66.37,2.58,1.14,2.18,2.98-.49,2.26-2.01.98-3.01.73-11.64-2.99-23.31-5.77-35.14-7.7-1.62-.26-3.27-.23-4.91-.34,0-1.2,0-2.4,0-3.6Z"/>
    <path class="cls-2" d="m1789.07,1080c1.09-2.97,3.82-2.09,5.72-2.44,12.5-2.31,24.88-5.15,37.15-8.63,1.45-.41,3.51-1.82,4.08.86.51,2.4-1.63,2.69-3.26,3.07-7.67,1.8-15.34,3.62-23.01,5.39-1.07.25-2.3.08-2.44,1.76h-1.66c-.83-1.15-1.66-.91-2.49,0h-14.09Z"/>
    <path class="cls-2" d="m1141.89,1080c.06-10.17.1-20.33.18-30.5.01-1.56-.48-3.74,1.92-3.55,8.28.67,16.49,1.84,24.44,4.71-6.72-.74-13.43-1.65-20.16-2.15-4.94-.37-4.77-.14-4.26,5.12.41,4.3.38,8.65.38,12.98,0,4.49.07,8.96.83,13.38-1.1,0-2.21,0-3.31,0Z"/>
    <path class="cls-2" d="m0,205.2c1.99.43,1.55,2.18,1.55,3.56.04,14.43.04,28.86,0,43.29,0,1.36.46,3.15-1.55,3.55v-50.4Z"/>
    <path class="cls-2" d="m489.74,1080c-.51-3.57-4.05-.56-5.38-3.13,4.47-1.21,8.7.53,12.92.71,4.51.2,9.02.7,13.55.84,1.15.03,2.61-.35,2.94,1.59h-15.74c-.55-.91-1.1-.97-1.66,0h-6.63Z"/>
    <path class="cls-2" d="m556.86,1080c.15-1.7,1.37-1.55,2.43-1.65,6.09-.53,12.2-.94,18.27-1.64,2.74-.32,2.37,1.57,2.49,3.29h-23.2Z"/>
    <path class="cls-2" d="m1195.75,1080c.42-6.52,1.11-13.03,1.47-19.62,1.38,6.47.85,13.08,1.02,19.62h-2.49Z"/>
    <path class="cls-2" d="m4.14,1080v-18.88c.4,0,.79,0,1.19,0,1.02,6.23-.19,12.69,1.3,18.88h-2.49Z"/>
    <path class="cls-2" d="m1812.95,1061.13c-8.36,1.72-16.68,3.73-25.08,5.12-26.11,4.31-52.39,5.63-78.76,4.7-27.34-.96-54.28-5.08-80.88-12.1-32.47-8.57-63.51-21.16-93.04-38.13-25.68-14.76-49.59-32.34-71.81-52.73-29.62-27.17-55-58.35-76.07-93.63-27.18-45.52-45.55-94.93-54.88-148.28-3.9-22.26-6.35-44.65-5.79-67.35.01-.45.12-.95-.02-1.34-3.05-8.26,1.35-12.08,7.33-15.57,8.03-4.68,16.03-9.39,24.46-13.16,1.17-.52,2.8-2.51,3.77,0,.74,1.9.18,3.7-1.91,4.74-8.4,4.18-16.41,9.18-24.53,13.97-6.72,3.96-8.88,8.49-7.85,17.15,1.65,13.9,2.47,27.94,4.56,41.82,3.64,24.13,9.28,47.68,16.65,70.78,6.47,20.28,14.29,39.89,23.5,58.86,8.24,16.97,17.53,33.23,27.81,48.84,9.39,14.26,19.74,27.63,30.42,40.76,16.22,19.96,34.56,37.42,53.93,53.52,16.09,13.37,33.15,25.32,51.01,35.83,31.92,18.79,65.56,32.68,100.86,41.86,18.09,4.71,36.42,7.66,54.91,9.93,13.05,1.6,26.16,2.04,39.18,2.06,17.86.03,35.79-.65,53.52-3.81,9.47-1.69,18.99-3.08,28.49-4.6.07.26.14.51.21.77Z"/>
    <path class="cls-2" d="m617.98,1056.58c-7.14,2.88-14.6,4.01-22.02,5.28-25.97,4.44-52.14,5.57-78.36,4.5-32.75-1.33-64.93-6.86-96.45-16.78-22.97-7.23-45.26-16.39-66.68-27.92-32.43-17.45-62.23-39.16-89.24-65.38-33.42-32.44-61.09-69.83-82.76-112.49-19.36-38.11-32.82-78.5-40.47-121.16-4.06-22.65-6.69-45.51-6.11-68.68.01-.6.18-1.27,0-1.79-2.86-7.84,1.49-11.12,7.03-14.45,7.86-4.72,15.67-9.48,23.99-13.15,1.53-.67,3.71-2.59,4.93.21,1.28,2.94-1.18,3.97-3.06,4.77-9.95,4.21-18.75,10.68-27.88,16.53-3.47,2.22-4.23,4.78-3.76,9.24.92,8.59,1.11,17.29,2.04,25.91,4.21,39.01,13.13,76.71,26.85,113.02,8.53,22.6,18.75,44.27,30.86,64.93,14.32,24.44,30.58,47.13,48.91,68.19,25.56,29.36,54.41,54.21,86.25,74.87,25.15,16.32,51.73,29.45,79.67,39.33,19.42,6.87,39.09,12.56,59.19,16.31,13.14,2.45,26.41,4.05,39.74,5.14,16,1.31,32,1.05,47.99.64,15.13-.39,30.21-1.97,45.15-4.85,4.7-.91,9.46-1.49,14.19-2.23Z"/>
    <path class="cls-2" d="m1031.98,815.99c-.21-16.93-.79-33.8,1.03-50.69,1.93-17.86,4.55-35.54,8.35-53.04,5.1-23.55,12.14-46.39,21.02-68.56,12.45-31.06,28.03-60.16,47.04-87.03,20.42-28.86,43.69-54.68,70.06-77.22,22.32-19.08,46.15-35.51,71.66-49.02,34.65-18.35,70.99-30.99,109.02-38.23,30.2-5.75,60.58-7.03,91.08-5.89,19,.71,37.86,3.51,56.57,7.29.92.19,1.8.59,2.7,1.13-121.83-20.44-232.88,6.98-329.37,91.49-96.34,84.38-144.48,195.77-149.17,329.79Z"/>
    <path class="cls-2" d="m918.02,624.92c-9.06,1.65-18.09,3.52-27.18,4.92-23.69,3.64-47.52,4.4-71.4,3.75-22.23-.6-44.22-3.55-66-8.28-26.58-5.78-52.37-14.37-77.34-25.85-33.09-15.21-63.75-34.81-92.03-58.94-11.58-9.87-22.77-20.17-33.36-31.23-11.19-11.7-21.31-24.55-30.98-37.66-8.25-11.18-16.07-22.81-23.22-35-22.42-38.21-39.02-79.06-49.44-122.87-5.38-22.63-8.81-45.63-10.52-68.97-.92-12.58-.4-25.12-.74-37.96,2.12.58,1.76,2.11,1.73,3.25-.55,18.79,1.95,37.3,4.23,55.84.13,1.03.15,2.23.65,3.04,2.41,3.9,1.99,8.46,2.52,12.72,2.64,20.88,8.42,40.84,14.77,60.62,10.3,32.11,24.18,62.35,41.39,90.74,8.78,14.49,18.3,28.38,28.64,41.65,7.39,9.49,14.98,18.72,23.05,27.52,11.35,12.38,23.59,23.66,35.95,34.8,12.07,10.88,25.01,20.47,38.43,29.15,18.5,11.97,37.41,23.1,57.55,31.75,16,6.88,32.14,13.11,48.68,18.19,16.66,5.12,33.68,8.25,50.75,11.22,21.74,3.78,43.63,3.82,65.54,3.7,11.71-.06,23.32-1.02,34.99-2.29,11.16-1.21,22.14-3.54,33.36-3.79Z"/>
    <path class="cls-2" d="m599.26,1007.93c-7.05,2.59-14.41,3.4-21.71,4.37-17.95,2.39-36,3.49-54.08,2.72-26.22-1.11-52.11-4.82-77.58-11.9-27.4-7.62-53.59-18.55-78.59-32.87-25.75-14.74-49.35-32.81-70.99-53.96-28.16-27.51-51.47-59.25-69.9-95.11-18.64-36.26-31.28-74.89-37.63-115.95-4.02-25.96-5.35-52.04-4.67-78.31.24-9.22.07-9.29,8.2-11.66,10.14-2.96,20.5-4.55,30.91-5.79,1.02-.12,2.5-.51,2.75,1.12.28,1.79-1.1,2.09-2.41,2.31-9.8,1.63-19.52,3.63-29.15,6.24-8.38,2.27-9.47,3.31-8.63,12.44,1.13,12.21,1.11,24.48,2.21,36.7,1.96,21.79,5.49,43.24,10.8,64.33,5.25,20.84,12.02,41.1,20.59,60.6,12.58,28.62,28.14,55.19,46.78,79.64,11.54,15.15,23.97,29.4,37.6,42.29,15.06,14.24,30.89,27.4,47.96,38.82,17.31,11.59,35.29,21.66,54.09,29.95,28.08,12.38,57.15,20.79,87.25,25.12,20.56,2.96,41.19,4.15,61.87,3.28,14.81-.62,29.62-1.86,44.33-4.38Z"/>
    <path class="cls-2" d="m1802.7,1010.22c-7.22,2.35-14.12,3.57-20.98,4.64-22.12,3.45-44.36,5.56-66.74,4.73-20.54-.76-40.91-3.22-61.08-7.6-35.85-7.78-69.76-21.3-101.74-40.48-22.53-13.51-43.44-29.54-62.7-48.13-24.49-23.64-45.67-50.33-63.12-80.45-19.77-34.12-34.02-70.76-42.71-110.04-7.4-33.47-9.77-67.32-8.84-101.59.24-9.01.02-9.22,7.95-11.37,10.02-2.73,20.1-5.32,30.53-5.2,1.09.01,2.92-.91,3.14.96.22,1.86-1.62,1.57-2.77,1.75-11.33,1.75-22.49,4.34-33.47,7.9-3.15,1.02-3.95,2.69-3.89,6.05.65,34.2,3.69,68.08,11.79,101.21,8.06,33.01,20.02,64.27,35.85,93.86,16.89,31.57,37.58,59.79,61.93,84.84,15.83,16.28,32.95,30.81,51.27,43.73,24.07,16.97,49.73,30.35,76.78,40.58,22.55,8.53,45.68,14.51,69.41,17.9,20.83,2.97,41.74,4.24,62.69,3.3,17.45-.78,34.84-2.86,52.03-6.44,1.37-.28,2.67-.67,4.66-.15Z"/>
    <path class="cls-2" d="m777.55,590.79c110.79,15.11,210.73-12.43,295.96-92.36,85.75-80.42,124.95-183.94,122.92-307.13,1.7,3.77,1.74,3.77,1.75,7.07.02,14.25.58,28.53-.11,42.74-1.28,26.19-4.96,52.04-11.55,77.33-4.39,16.87-9.63,33.42-16.24,49.44-9.1,22.05-19.71,43.12-32.46,62.97-13.62,21.21-28.89,40.85-46.14,58.62-20.47,21.08-42.92,39.34-67.42,54.66-19.79,12.37-40.47,22.54-61.92,30.91-16.96,6.62-34.38,11.51-52.05,15.16-9.79,2.02-19.66,3.66-29.61,4.9-18.02,2.25-36.04,1.9-54.06,1.49-16.44-.37-32.89-1.49-49.07-5.8Z"/>
    <path class="cls-2" d="m179.54,424.47c6.24-1.07,12.37-2.27,18.53-3.16,16.68-2.4,33.48-3.69,50.26-3.47,34.42.46,68.29,5.66,101.43,16.1,36.06,11.36,69.56,28.61,100.68,51.31,27.85,20.31,52.49,44.5,73.9,72.62,12.86,16.88,24.43,34.64,34.47,53.63,18.83,35.6,31.51,73.57,38.92,113.85,5.83,31.71,5.97,63.64,5.48,95.69-.01.87-.18,1.74-.31,2.99-1.71-1.21-1.18-2.82-1.19-4.1-.13-16.62-.55-33.25-1.84-49.81-1.2-15.35-3.44-30.55-6.41-45.64-6.07-30.78-15.66-60.21-28.54-88.34-12.77-27.87-28.54-53.64-47.23-77.32-23.21-29.39-49.66-54.68-79.68-75.53-31.48-21.87-65.18-38.31-101.33-48.83-21.75-6.33-43.78-10.52-66.22-12.63-23.44-2.2-46.78-1.82-70.14.93-6.43.75-12.85,1.48-19.22,2.66-.53.1-1.08.09-1.54-.96Z"/>
    <path class="cls-2" d="m1372.29,429.33c5.01-2.18,10.38-2.69,15.62-3.46,22.06-3.25,44.27-3.63,66.46-2.8,23.02.87,45.76,4.43,68.16,10.39,16.22,4.32,32.19,9.5,47.75,16.1,27.24,11.54,52.84,26.43,76.76,44.7,16.5,12.6,32.11,26.42,46.13,42.15,18.49,20.75,35.57,42.79,49.6,67.48,21.43,37.7,36.49,78.07,44.79,121.48,5.81,30.4,7.16,61.1,6.45,92-.02.75-.04,1.5-.11,2.24-.29,2.78-.6,5.56-1.15,8.32-.67-8.64-.84-17.3-1-25.92-.75-40.46-7.12-79.75-19.46-117.93-11.33-35.03-26.96-67.57-47.27-97.45-8.6-12.65-17.92-24.59-27.65-36.27-19.1-22.92-40.87-42.31-64.39-59.45-23.34-17.02-48.34-30.65-74.72-41.23-19.83-7.96-40.16-14.04-60.95-18.13-15.86-3.12-31.86-4.96-47.97-6.1-14.37-1.02-28.68-.42-42.99.32-9.33.48-18.67,1.47-27.92,3.09-2.03.35-4.12.3-6.18.43,0,0,.03.05.03.05Z"/>
    <path class="cls-2" d="m274.48,613.54c-10.27-1.43-20.28-1.87-30.29-2.39-3.08-.16-4.08.94-3.99,4.34.63,23.32,1.28,46.6,4.79,69.73,4.63,30.51,13.12,59.57,25.53,87.36,12.17,27.25,27.65,51.94,46.3,74.52,22.82,27.63,49.27,50.17,79.09,67.9,31.05,18.47,64.18,30.69,99.31,36.4,20.54,3.34,41.18,4.21,61.86,3.32,11.24-.48,22.5-1.75,33.61-4.01,1.06-.22,2.16-.17,3.27,0-6.2,2.56-12.78,2.99-19.23,4.02-18.07,2.89-36.29,3.61-54.48,2.64-37.82-2-74.19-11.04-108.82-27.91-30.73-14.97-58.41-34.83-82.94-59.98-22.99-23.56-41.9-50.39-56.89-80.58-16.29-32.8-26.51-67.73-31.06-104.59-2.75-22.31-3.55-44.74-1.94-67.23.07-1.04.26-2.17.01-3.14-1.28-4.96,1.64-5.59,4.84-5.27,9.73.96,19.54,1.16,29.14,3.39.65.15,1.4.09,1.88,1.47Z"/>
    <path class="cls-2" d="m1771.16,837.16c-9.98,3.25-20.14,4.67-30.32,5.97-2.37.3-3.07-.75-3.05-3.32.08-10.5-.03-20.99-.08-31.49-.28-53.57-11.85-104.05-35.19-151.27-12.92-26.14-28.94-49.82-47.88-71.25-13.21-14.94-28-27.78-43.16-40.2-29.34-24.03-62.25-40.11-97.39-50.91-21.51-6.61-43.51-10.33-65.91-11.69-22.68-1.38-45.14-.06-67.53,3.65-1.05.17-2.16.02-3.32-.61,4.91-.9,9.81-1.84,14.72-2.7,20.59-3.59,41.36-3.43,62.08-2.65,19.68.74,39.07,4.26,58.25,9.25,15.91,4.13,31.34,9.85,46.37,16.56,13.43,5.99,26.42,13.22,38.75,21.79,9.56,6.65,19.14,13.25,28.2,20.67,20.79,17.04,38.9,37.01,54.85,59.36,8.04,11.26,15.41,23,21.93,35.32,10.04,19,18.08,39.01,24.44,59.83,5.3,17.38,8.73,35.21,11.3,53.26.86,6.05,1.45,12.16,1.82,18.27,1.22,20.19.71,40.38-.58,60.54-.24,3.78.37,5.51,4.33,5.14,8.65-.8,17.2-2.28,25.75-3.82.5-.09,1-.49,1.63.31Z"/>
    <path class="cls-2" d="m897.33,647.36c0,10.28.5,20.59-.12,30.83-.85,14.15-2.35,28.27-4.75,42.24-5.64,32.84-15.14,64.26-28.62,94.32-7.87,17.56-16.99,34.31-27.21,50.3-8.47,13.25-17.85,25.81-27.99,37.68-6.67,7.81-13.49,15.45-20.62,22.74-13.77,14.08-28.67,26.67-44.36,38.11-15.01,10.94-30.79,20.48-47.14,28.88-29.97,15.39-61.35,25.75-94.02,31.91-27.05,5.1-54.27,6.2-81.58,5.08-17.68-.73-35.27-3.01-52.58-7.57,108.57,18.25,207.73-6.1,294.13-80.64,86.62-74.73,129.92-174.18,134.85-293.87Z"/>
    <path class="cls-2" d="m907.1,573.26c-7.4,2.93-15.01,4.17-22.62,5.26-19.84,2.82-39.77,4.37-59.8,3.66-44.23-1.57-86.91-11.09-127.83-29.62-14.02-6.35-27.61-13.63-40.78-21.82-21.68-13.5-41.6-29.62-60.18-47.77-20.93-20.45-39.17-43.41-54.81-68.78-26.36-42.76-43.74-89.52-52.07-140.21-3.13-19.06-4.5-38.27-4.52-57.62,0-2.83,1.45-2.07,2.58-1.98,7.55.6,15.12,1.11,22.64,2.07,4.56.58,9.1.28,13.63.58.99.06,2.58-.44,2.54,1.35-.04,1.58-1.41.79-2.29.88-6.29.65-12.47-.88-18.7-1.27-5.42-.34-10.91-.35-16.25-1.86-1.53-.43-2.25.68-2.23,2.35.02,1.5-.12,3.01.02,4.5.93,10.51,1.7,21.04,2.91,31.51,2.66,23.21,8.38,45.64,15.13,67.8,5.33,17.48,12.29,34.19,19.99,50.52,7.86,16.66,16.87,32.61,27.11,47.69,7.83,11.53,15.99,22.8,24.98,33.32,17.48,20.42,36.38,39.13,57.44,55.13,12.35,9.38,25.17,17.97,38.55,25.56,5.48,3.11,10.83,6.47,16.48,9.23,26.05,12.71,52.92,22.67,81,28.48,15,3.11,30.09,5.46,45.37,6.65,12.01.94,23.98.79,35.96.63,17.51-.23,34.85-2.65,52.11-5.72,1.2-.21,2.42-.33,3.63-.49Z"/>
    <path class="cls-2" d="m1466.52,617.98c-8.11-1.21-16.35-1.4-24.57-1.93-.27-.02-.54-.18-.81-.19-3.16-.1-6.66-1.2-9.37.52-3.46,2.19-.63,6.02-.68,9.07-.26,17.23.58,34.43,2.62,51.51,3.44,28.76,9.87,56.68,20.41,83.45,6.47,16.43,13.78,32.33,22.57,47.42,11,18.9,23.62,36.36,38.05,52.37,14.51,16.11,30.22,30.52,47.35,43.19,29.27,21.64,61.24,36.79,95.39,46.46,16.38,4.64,33.15,7.24,50.07,8.76,13.52,1.22,27.03.9,40.53.62,7.53-.16,15.11-.76,22.57-2.27.68-.14,1.36-.27,2.57.97-5.23.82-9.93,1.68-14.67,2.27-14.14,1.76-28.33,2.28-42.54,1.84-33.63-1.04-66.22-7.89-97.74-20.72-30.76-12.52-58.85-30.11-84.2-52.73-27.89-24.88-50.76-54.42-68.62-88.54-15.84-30.25-26.46-62.53-32.32-96.68-4.32-25.15-4.97-50.57-4.45-76.08.28-13.75.18-13.88,12.95-13.42,8.38.3,16.69,1.43,24.88,4.09Z"/>
    <path class="cls-2" d="m791.65,534.81c8.57.78,17.17,1.63,25.8,2.06,11.44.57,22.86.62,34.31-.08,13.09-.8,26.09-2.34,38.96-4.91,14.84-2.96,29.4-7.01,43.74-12.35,12.1-4.51,23.89-9.6,35.4-15.52,20.77-10.68,40.11-23.87,58.09-39.45,10.8-9.36,21.2-19.17,30.72-30.05,18.52-21.17,34.4-44.47,47.28-70.12,13.76-27.39,23.71-56.34,29.63-86.89,2.78-14.35,4.48-28.87,5.6-43.5,1.34-17.67.47-35.36.78-53.03.06-3.52.76-4.94,4.13-4.46,9.38,1.32,18.81,2.35,27.86,5.71-6.05-.4-11.94-2.06-17.98-2.58-2.18-.19-4.37-.52-6.57-.56-6.23-.11-6.1.06-5.74,6.69.87,15.96,1.68,31.9,1.02,47.96-.63,15.45-2.09,30.76-4.78,45.84-3.3,18.51-8.08,36.65-14.51,54.25-10.59,29.03-24.65,55.87-42.49,80.32-15.38,21.08-32.83,39.91-52.51,56.33-22.57,18.83-47.19,33.72-73.35,45.64-12.28,5.6-25.17,9.29-38.03,13.02-13.89,4.03-27.94,7.36-42.2,8.97-15.5,1.74-31.14,1.21-46.73,1.14-12.93-.05-25.76-1.09-38.43-4.43Z"/>
    <path class="cls-2" d="m186.56,481.45c6.47-1.16,12.91-2.67,19.42-3.41,16.58-1.88,33.2-3.63,49.9-2.74,25.63,1.35,50.91,5.07,75.7,12.76,16.23,5.03,32.03,11.16,47.22,18.96,19.72,10.12,38.35,22.28,55.51,37.03,9.5,8.17,18.9,16.49,27.55,25.69,8.95,9.52,17.23,19.72,25.26,30.18,6.32,8.24,12.08,16.98,17.37,25.92,5.48,9.25,10.39,19,15.05,28.87,8.59,18.2,14.8,37.38,20.37,56.76,4.02,13.98,6.1,28.55,7.95,43.13,2.97,23.43,1.25,46.92,1.5,70.38.03,2.52-.41,5.05-.68,7.57-.3,2.78.84,3.73,3.34,3.56,7.84-.52,15.63-1.34,23.31-3.17.91-.22,1.86-.27,2.84-.14-7.17,3.06-14.75,3.93-22.29,4.99-9.31,1.32-8.1,1.01-8.6-8.8-.65-12.56,0-25.19-.41-37.77-.85-26.43-4.82-52.36-11.67-77.75-10.72-39.73-28.18-75.75-51.62-108.27-15.52-21.54-33.29-40.82-53.43-57.32-26.32-21.56-54.74-39.07-85.96-50.84-21.4-8.07-43.34-13.7-65.88-16.67-15.65-2.06-31.31-3.03-47.04-2.46-14.03.5-28.04,1.62-41.91,4.21-.8.15-1.64.1-2.46.15-.1-.28-.21-.56-.31-.84Z"/>
    <path class="cls-2" d="m1503.66,446.1c-6.85.37-13.46-2.05-20.29-2.67-7.04-.63-14.04-1.77-21.07-2.38-14.32-1.25-28.7-1.6-43.01-.71-15.19.94-30.3,2.91-45.38,5.66-14.42,2.63-28.3,7.11-42.36,10.99-12.35,3.41-24.07,9.07-35.84,14.42-16.91,7.69-33.23,16.64-48.75,27.27-11.46,7.85-22.4,16.47-33.06,25.58-21.06,18-39.78,38.39-56.6,61.1-14.42,19.46-26.84,40.2-37.45,62.26-12.62,26.24-22.31,53.72-28.6,82.6-4.54,20.85-7.92,41.87-9.12,63.28-.14,2.49-.68,4.95-1.21,7.4-.79-10.61-.41-21.21.74-31.72,2.18-19.92,5.44-39.64,10.53-58.98,8.93-33.94,21.93-65.85,39.32-95.71,14.38-24.69,31-47.35,50.26-67.71,25.75-27.22,54.56-49.74,86.64-67.47,33.25-18.37,68.27-30.66,105.01-37.06,22.62-3.94,45.48-5.79,68.42-4.64,20.76,1.04,41.47,2.96,61.83,8.51Z"/>
    <path class="cls-2" d="m872.76,401.06c-5.06,2.56-10.52,2.9-15.85,3.76-6.82,1.11-13.73,1.23-20.63,1.19-2.35-.01-3.6-.25-2.9-3.51.96-4.43-.42-8.91-.52-13.4-.64-31.12,1.32-61.95,8.39-92.21,6.03-25.81,14.89-50.4,26.7-73.81,9.65-19.14,21.07-36.9,34.06-53.45,11.02-14.04,23.18-26.85,36.37-38.54,7.11-6.31,14.54-12.11,22.06-17.77,32.2-24.26,67.78-40.07,105.98-49.07,26.43-6.23,53.25-7.79,80.19-6.43,13.61.69,27.15,2.53,40.54,5.42.92.2,1.8.62,2.65,1.19-7.38-.55-14.66-1.84-21.98-2.69-15.37-1.78-30.68-2.65-46.17-1.64-17.64,1.14-35.09,3.44-52.31,7.55-26.67,6.37-51.93,16.98-76.12,30.7-10.77,6.11-21.01,13.17-31.01,20.59-10.19,7.56-19.72,16.14-28.84,25.19-9.96,9.89-19.56,20.18-28.22,31.46-9.17,11.95-17.54,24.5-25.15,37.69-15.94,27.64-27.46,57.33-34.97,88.84-4.29,17.96-7.19,36.22-8.13,54.79-.74,14.63-1.36,29.26-2.15,43.89-.12,2.26.98,2.42,2.47,2.57,7.43.74,14.82-.15,22.22-.67,4.46-.32,8.89-1.09,13.34-1.65Z"/>
    <path class="cls-2" d="m1082.63,47.21c6.31-1.04,12.44-2.42,18.64-2.99,14.42-1.33,28.86-2.55,43.35-1.87,27.88,1.31,55.25,5.72,82.04,14.66,20.27,6.77,39.68,15.56,58.19,26.63,18.01,10.77,34.99,23.2,50.68,37.77,17.28,16.04,32.74,33.86,46.37,53.51,13.91,20.05,25.23,41.79,34.3,64.93,10.27,26.19,16.94,53.47,20.35,81.61,1.77,14.67,2.68,29.51,1.93,44.36-.2,3.98.91,5.23,4.59,5.07,10.9-.47,21.72,1.3,32.59,1.76,1.36.06,3.18-.05,3.12,2-.06,2.34-2.16,1.55-3.26,1.45-6.57-.55-13.09-1.58-19.69-2.07-5.1-.38-10.19-.56-15.28-.55-2.92,0-3.59-1.05-3.65-4.17-.72-40.17-7.19-79.2-20.97-116.56-11.62-31.5-27.43-60.38-47.47-86.49-20.65-26.9-44.41-49.97-71.63-68.75-31.28-21.58-65.12-36.54-101.29-45.14-26.93-6.4-54.26-8.55-81.78-7.26-9.75.46-19.51,1.35-29.17,3.02-.62.11-1.31.53-1.96-.92Z"/>
    <path class="cls-2" d="m478.2,965.53c21.37,3.17,42.62,5.24,63.99,4.61,37.25-1.11,73.29-8.91,107.96-23.95,36.68-15.92,69.55-38.42,98.16-67.94,30.15-31.11,53.64-67.35,70.01-109.05,10.46-26.65,17.31-54.28,20.97-82.87,1.57-12.28,2.76-24.66,2.91-37.08.03-2.71.78-2.98,2.71-2.98,11.73,0,23.39-1.17,35.03-2.62.27-.03.56-.07.83-.02,1.12.19,2.86-.79,3.12,1.12.28,2.08-1.47,2.26-2.85,2.26-3.46,0-6.87.72-10.29.85-7.71.28-15.4,1.56-23.13,1-2.96-.21-4.17.66-4.09,4.2.75,32.94-4.2,65.03-13.44,96.27-9.29,31.41-23.01,60.47-40.96,87.2-7.49,11.15-15.45,21.84-24.1,31.86-12.82,14.85-26.74,28.44-42.02,40.34-27,21.03-56.17,37.37-87.89,48.19-19.22,6.55-38.87,11.02-58.92,13.41-13.57,1.61-27.17,2.86-40.81,2.4-18.71-.63-37.34-2.53-55.74-6.45-.51-.11-.97-.48-1.45-.74Z"/>
    <path class="cls-2" d="m1491.51,502.92c-4.49-.83-8.96-1.85-13.47-2.45-15.05-2.01-30.17-2.92-45.34-2.88-40.95.13-80.02,9.8-117.62,27.08-14.38,6.61-27.8,15.04-41.08,23.94-10.9,7.31-21.17,15.49-30.91,24.33-9.95,9.03-19.69,18.36-28.14,29.35-5.57,7.25-12.14,13.7-17.3,21.45-8.57,12.89-16.94,25.9-24.36,39.64-9.1,16.84-15.71,34.88-21.72,53.13-4.75,14.41-8.31,29.28-11.01,44.36-2.22,12.42-3.67,24.92-4.5,37.53-.22,3.35.77,4.45,3.9,4.42,10.75-.1,21.48.58,32.18,1.69,1.31.14,3.29-.3,3.17,1.82-.15,2.52-2.09,1.07-3.26.99-11.14-.76-22.25-2.25-33.43-1.93-3.34.1-4.4-.4-4.32-4.86.24-14.11,1.35-28.07,3.44-41.98,2.56-17.02,6.39-33.68,11.56-49.99,7.99-25.21,18.79-48.93,32.43-71.05,12.93-20.96,27.88-40.09,45.11-57.13,12.58-12.44,26.04-23.48,40.24-33.62,32.81-23.43,68.67-38.3,107.1-46.34,23.42-4.9,47.08-6.56,70.79-5.12,15.05.91,30.23,1.88,44.97,6.07.61.17,1.18.45,1.78.68-.07.28-.14.57-.2.85Z"/>
    <path class="cls-2" d="m899.05,517.59c-10.65,2.17-20.51,3.99-30.45,5.21-15.38,1.89-30.83,2.46-46.27,1.77-33.15-1.49-65.3-8.43-96.33-21.42-30.92-12.94-59.17-30.8-84.54-53.9-22.32-20.33-41.47-43.76-57.34-70.39-17.18-28.83-29.67-59.79-37.41-93.05-5.05-21.69-7.89-43.71-8.33-66.1-.06-3.04,1.61-2.6,3.2-2.65,6.2-.21,12.39-.26,18.59-.75,5.63-.45,11.26-.93,16.89-1.43,1.16-.1,2.37-.47,2.63,1.15.29,1.76-1.14,1.84-2.19,1.93-6.99.57-13.99,1.16-20.99,1.56-3.72.21-7.45.07-11.18.09-5.31.02-5.43.08-4.94,5.76,1.1,12.81,2.86,25.5,5.19,38.12,5.61,30.32,15.25,59.07,28.63,86.29,11.53,23.45,25.6,44.99,42.1,64.73,15.28,18.28,32.09,34.51,50.69,48.64,22.26,16.91,46.13,30.45,71.79,40.17,22.05,8.35,44.65,14.04,67.87,17,16.79,2.13,33.6,2.06,50.4,1.51,12.78-.42,25.47-2.46,38.08-4.8,1.07-.2,2.12-.68,3.91.57Z"/>
    <path class="cls-2" d="m1395.89,541.12c17.83-4.49,36.13-6.05,54.36-4.29,11.78,1.14,23.67,1.87,35.38,4.53,27.99,6.36,54.57,16.45,79.35,32.1,22.32,14.1,42.42,31.14,59.82,51.87,13.12,15.63,24.63,32.64,33.88,51.19,10.8,21.65,19,44.49,23.54,68.79,2.29,12.26,4.87,24.54,4.97,37.02.12,15.67.74,31.4-.72,47.05-.53,5.66-.54,6.3,4.47,7.19,10.34,1.83,20.55,4.93,31.22,3.55,1.35-.17,3.47-.02,3.61,2.09.15,2.33-1.89,1.75-3.11,1.7-12.13-.43-24.14-2.01-36.08-4.35-2.22-.44-1.95-2.07-1.97-3.71-.15-11.83-.21-23.66-.5-35.49-.81-33.37-7.39-65.27-19.41-95.89-10.8-27.52-25.56-52.32-44.09-74.47-34.95-41.78-77.82-69.18-128.11-82.97-15.37-4.22-30.96-6.63-46.89-7.32-8.94-.39-17.89-.82-26.82-.58-7.65.21-15.28,1.28-22.92,1.97Z"/>
    <path class="cls-2" d="m1130.18,177.71c-4.25.56-7.39,1.12-10.56,1.38-8.39.67-16.65,2.21-24.92,3.83-2.94.58-4.48,1.75-4.23,5.52,1,14.65,1.36,29.34.84,44.02-.8,22.52-4.58,44.49-10.82,66.02-2.49,8.58-5.25,17.12-8.56,25.24-4.65,11.43-10.19,22.52-16.44,33.1-10.99,18.6-23.58,35.8-38.45,50.92-14.84,15.09-31.25,27.82-48.75,39.15-24.13,15.61-50.2,25.09-77.42,31.32-19.91,4.55-40.13,5.92-60.43,4.96-12.5-.59-24.95-2.19-37.28-4.59-.35-.07-.65-.44-1.42-1,8.89.9,17.26,1.87,25.65,2.57,11.7.98,23.41.83,35.13-.03,13.64-1,27.07-3.24,40.41-6.47,20.04-4.86,39.16-12.46,57.47-22.4,25.74-13.98,48.73-32.19,68.7-54.71,31.92-36,53.27-78.34,63.68-127.08,5.94-27.79,6.46-56.08,6.04-84.41-.05-3.68.84-4.68,4.1-5.36,10.6-2.21,21.23-3.58,32.02-3.37,1.35.03,2.77-.37,5.22,1.41Z"/>
    <path class="cls-2" d="m195.08,538.06c9.34-3.21,18.93-4.14,28.49-5.22,12.1-1.37,24.26-1.3,36.39-.77,10.63.46,21.14,2.11,31.62,4.39,10.29,2.24,20.54,4.41,30.6,7.75,25,8.28,48.27,20.35,69.66,36.65,12.77,9.73,24.89,20.32,35.78,32.51,29.71,33.22,50.81,71.84,61.64,116.76,4.23,17.53,6.75,35.39,7.24,53.59.38,14.18.03,28.32-.93,42.45-.24,3.53.83,5.01,4.11,5.69,10.12,2.12,20.25,4.01,30.58,4.28.69.02,1.39-.02,2.07.06,1.05.12,2.53-.03,2.43,1.64-.09,1.44-1.5,1.01-2.37,1.01-4.42-.02-8.87.23-13.25-.28-7.52-.88-14.99-2.28-22.49-3.43-1.51-.23-3.12-.84-2.6-2.66,1.8-6.3-.31-12.47-.2-18.71.46-24.64-1.65-48.99-7.1-73.01-5.97-26.26-15.44-50.88-28.26-74-12.47-22.49-27.65-42.64-45.59-60.18-26.14-25.55-55.75-44.81-89.17-57.12-11.51-4.24-23.19-7.62-35.1-10.11-20.77-4.34-41.77-5.98-62.86-4.61-9.29.6-18.69.84-27.85,3.17-.91.23-1.9.12-2.85.17Z"/>
    <path class="cls-2" d="m859.25,910.74c5.42-8.27,10.86-16.53,16.25-24.82,14.12-21.74,25.81-44.99,35.79-69.24,13.45-32.69,22.72-66.79,28.2-102.07,3.14-20.22,4.96-40.62,5.25-61.15.1-6.85,1.75-13.68.09-20.55-.44-1.82.56-2.63,2.19-3.03,5.23-1.29,10.35-3.1,15.5-4.68,4.77-1.47,9.5-3.48,14.18-5.42,8.82-3.66,17.57-7.53,26.27-11.53,14.12-6.48,27.59-14.38,40.86-22.67,22.38-13.98,43.29-30.22,62.93-48.4.42-.39.86-.77,1.78-.03-.43,2.18-2.66,3.05-3.62,4.87-5.51,10.31-14.8,16.21-22.97,23.47-9.72,8.63-20.53,15.47-31.25,22.34-11.41,7.31-23.21,13.95-35.35,19.86-9.64,4.69-19.19,9.6-29.17,13.37-12.07,4.56-24.23,8.85-36.61,12.32-2.22.62-3.5,1.5-3.19,4.18,1.61,13.9.59,27.81-.12,41.7-.98,18.96-2.98,37.79-6.48,56.42-4.83,25.72-11.5,50.83-20.69,75.13-9.13,24.14-20.2,47.18-32.97,69.25-3.51,6.07-6.77,12.52-11.27,17.64-4.47,5.09-9.6,9.78-15.45,13.21,0,0-.15-.16-.15-.16Z"/>
    <path class="cls-2" d="m580.6,895.69c-151.41,33.84-303.41-97.31-287.66-277.69.38,4.06,1.07,8.12,1.1,12.18.15,22.53,2.48,44.74,7.42,66.65,4.61,20.47,11.32,40.08,20.34,58.7,9.4,19.39,20.74,37.41,34.28,53.69,17.68,21.25,37.84,39.3,60.79,53.46,25.6,15.79,52.81,26.81,81.96,32.05,14.58,2.62,29.27,4.02,43.97,4.06,11.66.03,23.4-.66,34.94-3.08.92-.19,1.9-.03,2.85-.03Z"/>
    <path class="cls-2" d="m1483.17,623.48c.09,84.54,25.74,157.46,85.33,213.38,59.14,55.51,128.42,75.18,205.57,63.21-32.42,7.25-64.94,7.45-97.48.59-32.78-6.91-63.31-20.19-90.55-41.13-74.98-57.61-108.39-136.96-102.86-236.07Z"/>
    <path class="cls-2" d="m1451.91,100.68c7.04,5.22,13.95,10.66,18.96,18.3,20.77,31.62,37.13,65.79,49.12,102.35,8.61,26.26,14.47,53.29,18.18,80.92,3.44,25.62,3.5,51.33,3.06,77.08-.07,4.3.85,6.16,4.97,7.34,32.54,9.33,63.48,22.99,92.81,41,13.33,8.18,26.23,17.05,38.74,26.63,4.96,3.8,7.49,9.53,11.63,15.37-4.84-1.45-7.69-4.47-10.6-7.05-9.74-8.65-20.28-16.01-30.94-23.18-28.53-19.19-58.97-33.88-90.85-45.11-4.85-1.71-9.77-3.21-14.7-4.62-1.97-.56-2.95-1.56-2.55-3.76,1.88-10.31-.15-20.6-.36-30.88-.26-12.67-1.4-25.35-2.88-37.98-4.19-35.84-12.43-70.5-24.73-104.05-13.86-37.82-32.42-72.72-55.35-104.9-1.67-2.35-3.9-4.27-4.69-7.29,0,0,.16-.17.16-.17Z"/>
    <path class="cls-2" d="m1185.42,121.2c-78.55-15-149.63,3.2-210.62,59.41-61.1,56.32-87.72,130.22-87.02,216.64-2.42-23-1.85-45.69,1.7-68.22,7.7-48.99,26.98-92.08,57.83-128.65,64.96-77.01,158.22-100.21,238.12-79.19Z"/>
    <path class="cls-2" d="m1076,106.92c8.48-3.45,17.37-5.13,26.21-5.76,9.05-.65,18.01-2.2,27.13-2.32,33.88-.46,66.72,5.25,98.37,18.45,23.96,9.99,46.03,23.6,66.25,40.89,21.79,18.64,40.08,40.65,54.85,66.04,17.97,30.89,29.8,64.32,34.38,100.68,1.9,15.03,2.67,30.08,2.27,45.22-.09,3.3.48,4.2,3.96,3.78,10.94-1.31,21.94-1.92,32.92-2.81.86-.07,1.83-.14,1.86,1.09.04,1.61-1.26,1.33-2.14,1.32-6.76-.06-13.5-.07-20.25.76-5.06.62-10.19.56-15.24,1.24-2.49.34-2.67-.62-2.75-2.81-.81-20.49-2.17-40.91-6.55-60.96-5.93-27.16-15.3-52.78-28.53-76.76-10.69-19.38-23.34-37.09-38.11-52.93-28.02-30.04-60.71-51.99-98.02-65.87-32.14-11.95-65.2-16.22-98.98-14.41-11.95.64-23.84,2.31-35.58,4.99-.66.15-1.36.12-2.03.17Z"/>
    <path class="cls-2" d="m1488.03,559.31c-17.35-3.96-34.91-5.62-52.51-5.6-26.48.03-52.38,4.67-77.54,13.78-35.87,12.99-67.51,33.5-94.66,62.24-15.98,16.91-29.58,35.7-41,56.51-11.67,21.27-20.26,43.87-26.05,67.74-3.79,15.64-5.99,31.59-7.21,47.71-.25,3.35.7,4.69,3.87,5.19,12.67,1.96,25.3,4.2,37.74,7.54,1.73.47,3.61.78,2.98,3.2-.66,2.49-2.49.95-3.81.61-13.14-3.36-26.36-6.33-39.75-8.28-1.77-.26-2.57-.66-2.59-2.97-.28-39.71,8.21-77.21,24.76-112.45,18.65-39.71,45.12-72.11,79.16-97.2,31.85-23.47,66.89-37.94,104.92-43.58,23.31-3.45,46.72-3.2,70.07.53,7.33,1.17,14.64,2.26,21.62,5.03Z"/>
    <path class="cls-2" d="m886.78,461.76c-6.19,2.33-12.7,3.3-19.17,4.26-15.21,2.25-30.54,2.62-45.85,1.89-29.77-1.42-58.35-8.69-85.75-21.47-22.23-10.37-42.59-24.1-61.01-41.03-18.1-16.63-33.59-35.84-46.41-57.62-14.79-25.13-25.33-52.1-31.46-81.17-3.46-16.42-4.82-33.06-5.43-49.84-.1-2.87,1.02-3.77,3.14-4.14,13.61-2.35,27.16-5.03,40.53-8.68,1.07-.29,2.27-.86,2.6.97.4,2.2-.84,2.65-2.56,3.1-11.39,2.95-22.89,5.22-34.48,7.03-7.81,1.22-7.67,1.13-6.91,9.99,2.59,29.95,9.77,58.58,21.48,85.75,8.96,20.79,20.2,40.07,33.84,57.78,16.44,21.34,35.3,39.5,56.78,54.54,21.49,15.04,44.56,26.14,69.3,33.27,18.73,5.4,37.7,8.17,57.05,9.2,18.29.98,36.2-1.54,54.28-3.82Z"/>
    <path class="cls-2" d="m492.96,910.74c18.19,2.75,36.48,3.67,54.78,2.64,30.54-1.72,59.97-9.03,88.17-22.04,20.69-9.55,39.91-21.89,57.56-36.95,19.07-16.27,35.67-35.21,49.78-56.69,19.83-30.18,33.19-63.47,40.27-99.67,3.2-16.39,5.04-33.05,5.42-49.84.07-3.13.34-4.23,3.75-3.93,11.26,1.01,22.52,2.27,33.84,2.05,1.05-.02,2.68-.32,2.71,1.21.03,1.57-1.61,1.35-2.64,1.27-9.33-.71-18.7-1.15-27.98-2.35-8.16-1.06-8.13-1.45-8.1,7.32.12,37.56-7.14,73.42-21.7,107.42-10.28,24.02-23.78,45.79-40.22,65.49-18.52,22.2-39.76,40.61-63.82,55.02-25.03,14.99-51.7,25.13-80.01,30.25-17.61,3.19-35.28,4.76-53.08,4.1-13.01-.48-25.98-1.81-38.71-5.31Z"/>
    <path class="cls-2" d="m1402.73,601.42c7.59-.95,15.16-2.42,22.78-2.75,26.12-1.15,51.73,2.12,76.49,11.64,23.78,9.14,45.2,22.67,64.15,40.81,28.46,27.25,47.17,61.01,56.77,100.74,2.83,11.73,4.24,23.75,4.68,35.91.21,5.67,1.06,11.31-.03,16.98-.44,2.3.77,3.62,2.42,4.69,12.34,7.98,25.11,14.98,38.68,20.19.78.3,1.57.58,2.32.95,1.46.71,1.48,2.12,1.1,3.45-.49,1.67-1.77,1.12-2.77.73-6.36-2.49-12.81-4.75-19.01-7.65-7.35-3.43-14.44-7.47-21.42-11.78-2.41-1.49-3.14-3.21-3.13-6.08.11-32.78-6.6-63.86-20.38-93.01-17.19-36.37-42.16-64.88-74.58-85.68-22-14.12-45.7-23.2-70.91-27.28-18.46-2.99-37.06-3.41-55.63-.5-.5.08-1.03-.13-1.55-.2,0-.38.01-.76.02-1.14Z"/>
    <path class="cls-2" d="m203.94,598.46c7-1.17,13.98-2.5,21.01-3.46,9.32-1.26,18.72-1.21,28.09-.96,14.5.4,28.75,2.83,42.81,6.72,21.72,6.01,41.92,15.88,60.4,29.46,16.61,12.21,31.08,27.15,43.34,44.53,14.77,20.95,25.49,44.03,31.75,69.56,4.36,17.78,6.21,35.83,5.39,54.19-.13,2.89.61,4.7,2.86,6.29,10.57,7.44,21.8,13.39,33.53,18.28,2.31.97,4.65,1.88,6.97,2.82,1.49.61,2.33,1.78,1.88,3.48-.53,2-1.92,1.14-3.06.76-14.7-4.9-28.62-11.71-41.83-20.26-1.88-1.22-3.03-2.39-2.02-4.94,1.92-4.86.28-9.8-.08-14.64-3.23-43.62-17.15-82.76-42.97-116.46-29.64-38.69-67.46-63.09-112.82-73.29-23.4-5.26-47.05-5.57-70.7-1.46-.68.12-1.37.15-2.06.18-.8.03-1.6,0-2.39,0-.03-.28-.06-.55-.09-.83Z"/>
    <path class="cls-2" d="m1392.37,905.82c-7.44-5.88-14.7-11.98-22.2-17.74-28.19-21.66-58.31-39.38-90.57-52.78-10.05-4.18-20.18-8.14-30.55-11.27-2.85-.86-3.58-2.2-3.14-5.46.46-3.48-.32-7.13-.25-10.7.83-44.59,13.5-84.6,39.31-119.52,7.37-9.96,15.42-19.18,24.48-27.34,1.26-1.13,2.99-3.86,4.18-2.12,1.28,1.86,1.43,5.35-.96,7.32-4.76,3.92-8.81,8.65-12.86,13.33-26.6,30.73-43.17,66.87-49.42,108.56-1.31,8.73-1.54,17.55-2.45,26.31-.4,3.84,1.28,5.38,4.34,6.26,13.88,3.97,27.36,9.26,40.64,15.13,23.42,10.35,45.74,23.02,67.02,37.86,4.29,2.99,8.43,6.23,12.8,9.08,8.59,5.61,15.06,13.34,19.65,23.09Z"/>
    <path class="cls-2" d="m791.35,122.39c-4.64,10.8-13.12,17.37-21.95,23.54-20.31,14.17-41.36,26.89-63.57,37.16-15.72,7.27-31.68,13.96-48.28,18.55-3.52.98-5.87,2.05-5.4,7.07,1.75,18.92,4.14,37.67,9.82,55.77,8.34,26.54,21.07,50.23,38.36,71.09,4.62,5.58,9.32,11,14.63,15.79.95.86,1.95,1.77,2.6,2.88,1.34,2.29,1.7,5.5.24,7.11-1.62,1.79-2.72-1.51-3.83-2.53-24.35-22.27-42.16-49.63-53.2-82.06-6.1-17.93-9.47-36.5-10.4-55.64-.3-6.26.79-12.53-.4-18.76-.53-2.79,1.59-3.05,3.28-3.63,10.4-3.53,20.74-7.21,30.93-11.43,26.38-10.94,51.47-24.64,75.17-41.31,9.83-6.92,19.57-13.99,28.72-21.96.96-.83,1.96-1.69,3.32-1.61l-.04-.04Z"/>
    <path class="cls-2" d="m730.68,633.3c1.46,2.16,1.72,4.44,1.83,6.8,1.1,25.04-.88,49.68-8.28,73.58-5.43,17.53-12.67,34.14-22.35,49.38-14.22,22.41-31.64,41.33-52.68,56.27-24.52,17.41-51.29,28.28-80.23,32.76-21.41,3.31-42.8,2.77-64.12-2.08,59.94,7.44,113.87-7.97,159.64-51.27,45.95-43.48,66.92-99.39,66.2-165.45Z"/>
    <path class="cls-2" d="m1326.28,385.89c-1.68-5.17-1.23-10.42-1.3-15.61-.44-33.82-7.53-65.91-22.42-95.62-18.67-37.24-45.41-65.88-79.88-86.02-21.64-12.65-44.7-20.48-68.97-23.71-18.66-2.48-37.4-2-56.04,1.08-.49.08-1.01.01-1.48-.49,39.99-8.88,79-5.01,116.65,12.16,37.81,17.24,67.64,44.98,88.92,83.18,21.45,38.5,29.32,80.28,24.53,125.04Z"/>
    <path class="cls-2" d="m1031,214.14c1.31,15.21.31,30.05-2.2,44.79-4.39,25.81-14.11,49.36-27.27,71.05-10.32,17.01-23.37,31.65-37.97,44.66-17.22,15.35-36.46,26.65-57.32,34.67-15.87,6.11-32.26,9.85-49.16,11.15-8.83.68-17.65,1.08-26.44.56-10.37-.62-20.78-1.56-30.91-5.06,58.63,10.05,112.28-3.96,158.36-43.8,46.07-39.84,70.17-93.51,72.91-158.03Z"/>
    <path class="cls-2" d="m1155.88,483.21c1.53-4.96,5.23-8.3,8-12.29,17.9-25.82,33.21-53.27,45.59-82.71,12.15-28.87,21.19-58.81,27.18-89.84,3.65-18.89,5.97-38,7.37-57.26.47-6.49.26-13.1,2.19-19.47,0,8.31.42,16.65-.1,24.92-.7,11.17-1.55,22.34-3.05,33.44-2.37,17.63-5.65,35.04-9.94,52.23-4.87,19.54-10.96,38.64-18.52,57.11-7.96,19.43-17.1,38.24-27.72,56.16-3.43,5.79-7.12,11.39-10.55,17.17-5.2,8.74-12.79,14.66-20.3,20.71l-.15-.16Z"/>
    <path class="cls-2" d="m651.02,793.2c-4.22-90.67-29.76-173.13-79.72-246.31,7.99,4.48,13.99,10.87,18.72,19.14,10.27,17.95,19.86,36.29,27.88,55.54,12.9,30.94,22.2,63.13,27.7,96.59,3.44,20.93,5.8,41.95,5.88,63.25.01,3.89,1.18,7.78-.46,11.79Z"/>
    <path class="cls-2" d="m1770.11,562.38c8.49,4.28,13.12,12.46,17.6,20.74,8.53,15.76,16.43,31.9,23.13,48.68,5.6,14.01,10.43,28.35,14.62,42.93,4.27,14.86,7.74,29.96,10.31,45.27,2.71,16.17,4.78,32.43,5.68,48.88.53,9.73.62,19.42.69,29.75-1.72-1.59-1.48-3.21-1.54-4.71-1.72-41.35-8.14-81.74-20.39-121.02-11.16-35.81-26.13-69.54-45.55-100.95-1.79-2.9-4.47-5.42-4.82-9.27l.27-.29Z"/>
    <path class="cls-2" d="m1614.04,801.41c-.08.29-.06,1.27-.48,1.62-.83.69-1.5-.28-2.12-.79-2.96-2.45-6.03-4.75-8.8-7.43-22.6-21.88-40.04-47.69-50.73-78.67-6.48-18.78-10.21-38.14-11.21-58.15-.06-1.24-.62-3.18,1.02-3.39,1.42-.18,1.19,1.68,1.32,2.8,1.57,13.36,3.67,26.6,7.43,39.46,6.46,22.13,15.8,42.67,28.7,61.26,9.32,13.43,19.6,25.85,31.82,36.26,2.03,1.73,2.81,3.96,3.06,7.02Z"/>
    <path class="cls-2" d="m423.05,798.89c-38.39-23.03-78.68-106.66-71.44-149.14.74,5.16,1.42,10.32,2.21,15.47,5.51,35.94,18.85,68.04,40.19,96.15,7.91,10.42,16.71,19.96,26.36,28.49,2.79,2.46,3.42,5.13,2.68,9.03Z"/>
    <path class="cls-2" d="m946.06,364.45c-1.11-8.7.13-17.18,1.37-25.69,1.66-11.41,5.23-22.14,8.56-33.07,10.89-35.7,31.44-63.49,57.8-86.87,1.19-1.05,2.74-3.41,3.96-1.94,1.32,1.59.19,4.33-.78,6.26-.54,1.09-1.86,1.71-2.8,2.58-24.69,23-43.75,50.41-55.38,83.61-3.66,10.45-6.91,21.11-8.63,32.1-1.21,7.73-3.21,15.25-4.11,23.03Z"/>
    <path class="cls-2" d="m1074.35,184.61c1.37-.16,2.01.37,2.13,1.68.14,1.62-.55,2.41-1.93,2.94-4.42,1.69-8.85,3.38-13.18,5.31-9.72,4.32-18.8,9.97-27.77,15.85-.92.6-2.15,3.04-3.28.9-1.03-1.96-1.47-4.33,1.26-6.04,6.81-4.26,13.81-8.11,20.93-11.71,6.64-3.36,13.47-6.12,20.46-8.45.53-.18,1.05-.36,1.38-.48Z"/>
    <path class="cls-2" d="m590.41,1076.57c.36-1.71,1.8-1.67,2.92-1.81,12.48-1.49,24.68-4.64,36.94-7.42,1.48-.34,2.93-.84,4.42-1.17,1.24-.28,2.89-1.41,3.27,1.02.32,2-1.25,2.45-2.6,2.8-3.22.82-6.43,1.69-9.68,2.31-10.43,1.99-20.87,3.91-31.32,5.78-1.42.25-3.1.62-3.93-1.51Z"/>
    <path class="cls-2" d="m899.17,644.46c-1.33-.14-2.81.46-3.04-1.18-.29-2.02,1.57-1.88,2.59-2.06,10.71-1.87,21.36-3.99,31.9-6.78.88-.23,1.98-.91,2.28.75.26,1.46-.02,2.6-1.67,2.96-4.84,1.04-9.64,2.31-14.5,3.25-5.93,1.16-11.9,2.08-17.57,3.06Z"/>
    <path class="cls-2" d="m1081.08,806.68c7.81-.97,15.61-2.06,23.44-2.87,5.05-.52,10.14-.65,15.22-.92.82-.04,1.81,0,1.94,1.15.11.92-.69,1.25-1.39,1.24-13.08-.19-26.08,1.81-39.21,1.4Z"/>
    <path class="cls-2" d="m1682.11,211.83c12.25.94,24.49,1.87,36.74,2.81-.02.45-.05.9-.07,1.35-12.29.46-24.44-1.95-36.66-2.88v-1.27Z"/>
    <path class="cls-2" d="m1372.26,429.29c-.86.99-1.91.88-3.11.62.98-1.1,2.14-.33,3.14-.58,0,0-.03-.05-.03-.05Z"/>
    <path class="cls-2" d="m920.57,623.51c.32-.31.45-.53.62-.57.26-.06.56-.06.8.04.42.17.39.44-.06.51-.38.06-.77.01-1.36.01Z"/>
    <path class="cls-2" d="m199.72,600.02c.26-.23.38-.43.54-.46.25-.05.53-.05.76.05.4.17.38.41-.06.47-.36.05-.74-.03-1.25-.06Z"/>
    <path class="cls-2" d="m1213.02,827.23c.26.06.72.08.74.2.12.69-.44.42-.7.44-.23.02-.47-.2-.71-.31.22-.11.44-.22.67-.33Z"/>
    <path class="cls-2" d="m331.45,392.95c-.23.05-.45.1-.68.12-.04,0-.09-.17-.14-.25.22-.05.45-.11.67-.13.04,0,.09.17.14.27Z"/>
    <path class="cls-2" d="m1216.78,828.21c.17.11.35.22.52.32-.11.06-.23.2-.32.17-.19-.06-.35-.2-.52-.31.11-.06.21-.12.32-.19Z"/>
    <path class="cls-2" d="m598.23,949.77v.31c-.25,0-.5,0-.75,0,0-.1,0-.3,0-.3.25-.02.5-.01.75-.01Z"/>
    <polygon class="cls-2" points="1816.49 1059.88 1816.2 1059.72 1816.52 1059.6 1816.49 1059.88"/>
    <path class="cls-2" d="m501.39,467.93c.33.14.67.28,1,.43-.07.11-.2.32-.21.31-.3-.2-.58-.42-.87-.63,0,0,.08-.1.08-.1Z"/>
    <polygon class="cls-2" points="620.74 1056.3 620.44 1056.13 620.76 1056 620.74 1056.3"/>
    <path class="cls-2" d="m1156.03,483.36c-.29.28-.58.56-.87.84,0,0-.01-.01-.01-.01.25-.33.49-.66.74-.99,0,0,.15.16.15.16Z"/>
    <path class="cls-2" d="m791.38,122.43c.04-.1.07-.2.11-.29-.05.09-.1.17-.15.26,0,0,.04.04.04.04Z"/>
    <path class="cls-2" d="m803.81,972.92c.11-.12.23-.24.34-.36-.03.08-.03.19-.08.22-.08.06-.2.06-.3.09,0,0,.04.05.04.05Z"/>
    <path class="cls-2" d="m858.46,911.68c-.04.12-.07.24-.11.37.05-.11.1-.21.16-.32,0,0-.04-.05-.04-.05Z"/>
    <path class="cls-2" d="m858.51,911.73c.25-.33.5-.66.75-.99,0,0,.15.16.15.16-.31.26-.62.52-.94.77,0,0,.04.05.04.05Z"/>
    <path class="cls-2" d="m1462.35,984.84c-.09-.23-.17-.46-.26-.69.2.1.41.2.61.3-.12.13-.23.26-.36.39Z"/>
    <polygon class="cls-2" points="1769.18 561.6 1768.83 561.42 1768.98 561.23 1769.18 561.6"/>
    <path class="cls-2" d="m1769.84,562.67c-.22-.36-.44-.71-.66-1.07.31.26.61.52.92.79,0,0-.26.29-.26.29Z"/>
    <path class="cls-2" d="m872.65,29.79c-.15.12-.31.24-.46.36.11-.17.22-.34.32-.51,0,0,.14.15.14.15Z"/>
    <path class="cls-2" d="m1451.01,99.86c.3.28.59.55.89.83,0,0-.16.17-.16.17-.27-.31-.53-.62-.8-.93l.06-.07Z"/>
    <path class="cls-2" d="m1450.95,99.93c-.26-.31-.52-.63-.77-.94l-.04.05c.29.28.59.55.88.83,0,0-.06.07-.06.07Z"/>
    <path class="cls-2" d="m1450.18,98.98c-.28-.3-.55-.6-.83-.9l-.05.05c.28.3.55.6.83.9,0,0,.04-.05.04-.05Z"/>
    <path class="cls-2" d="m1449.35,98.08c-.1-.07-.21-.13-.31-.2.09.08.17.16.26.25,0,0,.05-.05.05-.05Z"/>
    <polygon class="cls-2" points="1070.61 861.27 1070.4 861.53 1070.65 861.32 1070.61 861.27"/>
    <path class="cls-2" d="m1154.3,485.08l-.19.38c.08-.11.15-.22.23-.33l-.04-.04Z"/>
    <path class="cls-2" d="m1154.34,485.13c.27-.31.53-.62.8-.93,0,0,.01.01.01.01-.28.29-.57.58-.85.88,0,0,.04.04.04.04Z"/>
  </g>
</svg>